%TF.GenerationSoftware,KiCad,Pcbnew,9.0.0-rc3-13-g9b184afb43*%
%TF.CreationDate,2025-02-16T14:58:27-08:00*%
%TF.ProjectId,Carrier_Board,43617272-6965-4725-9f42-6f6172642e6b,rev?*%
%TF.SameCoordinates,Original*%
%TF.FileFunction,Copper,L2,Bot*%
%TF.FilePolarity,Positive*%
%FSLAX46Y46*%
G04 Gerber Fmt 4.6, Leading zero omitted, Abs format (unit mm)*
G04 Created by KiCad (PCBNEW 9.0.0-rc3-13-g9b184afb43) date 2025-02-16 14:58:27*
%MOMM*%
%LPD*%
G01*
G04 APERTURE LIST*
%ADD10C,0.150000*%
%TA.AperFunction,NonConductor*%
%ADD11C,0.150000*%
%TD*%
%TA.AperFunction,ComponentPad*%
%ADD12R,1.800000X1.800000*%
%TD*%
%TA.AperFunction,ComponentPad*%
%ADD13C,1.800000*%
%TD*%
%TA.AperFunction,ComponentPad*%
%ADD14C,2.000000*%
%TD*%
%TA.AperFunction,ComponentPad*%
%ADD15R,2.000000X2.000000*%
%TD*%
%TA.AperFunction,ComponentPad*%
%ADD16R,1.400000X1.400000*%
%TD*%
%TA.AperFunction,ComponentPad*%
%ADD17C,1.400000*%
%TD*%
%TA.AperFunction,ViaPad*%
%ADD18C,0.800000*%
%TD*%
%TA.AperFunction,ViaPad*%
%ADD19C,0.700000*%
%TD*%
%TA.AperFunction,ViaPad*%
%ADD20C,5.000000*%
%TD*%
%TA.AperFunction,Conductor*%
%ADD21C,0.200000*%
%TD*%
%TA.AperFunction,Conductor*%
%ADD22C,0.400000*%
%TD*%
%TA.AperFunction,Conductor*%
%ADD23C,0.350000*%
%TD*%
%TA.AperFunction,Conductor*%
%ADD24C,0.500000*%
%TD*%
G04 APERTURE END LIST*
D10*
D11*
X183545180Y-97091792D02*
X184021371Y-97425125D01*
X183545180Y-97663220D02*
X184545180Y-97663220D01*
X184545180Y-97663220D02*
X184545180Y-97282268D01*
X184545180Y-97282268D02*
X184497561Y-97187030D01*
X184497561Y-97187030D02*
X184449942Y-97139411D01*
X184449942Y-97139411D02*
X184354704Y-97091792D01*
X184354704Y-97091792D02*
X184211847Y-97091792D01*
X184211847Y-97091792D02*
X184116609Y-97139411D01*
X184116609Y-97139411D02*
X184068990Y-97187030D01*
X184068990Y-97187030D02*
X184021371Y-97282268D01*
X184021371Y-97282268D02*
X184021371Y-97663220D01*
X184068990Y-96663220D02*
X184068990Y-96329887D01*
X183545180Y-96187030D02*
X183545180Y-96663220D01*
X183545180Y-96663220D02*
X184545180Y-96663220D01*
X184545180Y-96663220D02*
X184545180Y-96187030D01*
X184545180Y-95901315D02*
X183545180Y-95567982D01*
X183545180Y-95567982D02*
X184545180Y-95234649D01*
X183830895Y-94187029D02*
X183830895Y-93710839D01*
X183545180Y-94282267D02*
X184545180Y-93948934D01*
X184545180Y-93948934D02*
X183545180Y-93615601D01*
X184068990Y-92187029D02*
X184021371Y-92044172D01*
X184021371Y-92044172D02*
X183973752Y-91996553D01*
X183973752Y-91996553D02*
X183878514Y-91948934D01*
X183878514Y-91948934D02*
X183735657Y-91948934D01*
X183735657Y-91948934D02*
X183640419Y-91996553D01*
X183640419Y-91996553D02*
X183592800Y-92044172D01*
X183592800Y-92044172D02*
X183545180Y-92139410D01*
X183545180Y-92139410D02*
X183545180Y-92520362D01*
X183545180Y-92520362D02*
X184545180Y-92520362D01*
X184545180Y-92520362D02*
X184545180Y-92187029D01*
X184545180Y-92187029D02*
X184497561Y-92091791D01*
X184497561Y-92091791D02*
X184449942Y-92044172D01*
X184449942Y-92044172D02*
X184354704Y-91996553D01*
X184354704Y-91996553D02*
X184259466Y-91996553D01*
X184259466Y-91996553D02*
X184164228Y-92044172D01*
X184164228Y-92044172D02*
X184116609Y-92091791D01*
X184116609Y-92091791D02*
X184068990Y-92187029D01*
X184068990Y-92187029D02*
X184068990Y-92520362D01*
X184545180Y-91329886D02*
X184545180Y-91139410D01*
X184545180Y-91139410D02*
X184497561Y-91044172D01*
X184497561Y-91044172D02*
X184402323Y-90948934D01*
X184402323Y-90948934D02*
X184211847Y-90901315D01*
X184211847Y-90901315D02*
X183878514Y-90901315D01*
X183878514Y-90901315D02*
X183688038Y-90948934D01*
X183688038Y-90948934D02*
X183592800Y-91044172D01*
X183592800Y-91044172D02*
X183545180Y-91139410D01*
X183545180Y-91139410D02*
X183545180Y-91329886D01*
X183545180Y-91329886D02*
X183592800Y-91425124D01*
X183592800Y-91425124D02*
X183688038Y-91520362D01*
X183688038Y-91520362D02*
X183878514Y-91567981D01*
X183878514Y-91567981D02*
X184211847Y-91567981D01*
X184211847Y-91567981D02*
X184402323Y-91520362D01*
X184402323Y-91520362D02*
X184497561Y-91425124D01*
X184497561Y-91425124D02*
X184545180Y-91329886D01*
X184545180Y-90615600D02*
X184545180Y-90044172D01*
X183545180Y-90329886D02*
X184545180Y-90329886D01*
D12*
%TO.P,U1,1,3V3*%
%TO.N,3V3*%
X128500000Y-95540000D03*
D13*
%TO.P,U1,2,GPIO5*%
%TO.N,/STATUS_LED*%
X128500000Y-93000000D03*
%TO.P,U1,3,GPIO6*%
%TO.N,/CN105_OE*%
X128500000Y-90460000D03*
%TO.P,U1,4,GPIO7*%
%TO.N,/MODULE_SCL*%
X128500000Y-87920000D03*
%TO.P,U1,5,GPIO8*%
%TO.N,/MODULE_SDA*%
X128500000Y-85380000D03*
%TO.P,U1,6,GND*%
%TO.N,GND*%
X143500000Y-85380000D03*
%TO.P,U1,7,5V*%
%TO.N,5V_MODULE*%
X143500000Y-87920000D03*
%TO.P,U1,8,GPIO38*%
%TO.N,/CN105_TX_IN_3V3*%
X143500000Y-90460000D03*
%TO.P,U1,9,GPIO39*%
%TO.N,/CN105_RX_OUT_3V3*%
X143500000Y-93000000D03*
%TD*%
D14*
%TO.P,TP6,1,1*%
%TO.N,/MODULE_SCL*%
X120000000Y-103000000D03*
%TD*%
%TO.P,TP4,1,1*%
%TO.N,3V3*%
X144500000Y-109500000D03*
%TD*%
D15*
%TO.P,TP2,1,1*%
%TO.N,GND*%
X148000000Y-109500000D03*
%TD*%
%TO.P,TP16,1,1*%
%TO.N,GND*%
X169000000Y-110000000D03*
%TD*%
D14*
%TO.P,TP11,1,1*%
%TO.N,GND*%
X177000000Y-84000000D03*
%TD*%
D15*
%TO.P,TP3,1,1*%
%TO.N,GND*%
X121000000Y-92000000D03*
%TD*%
%TO.P,TP9,1,1*%
%TO.N,GND*%
X159000000Y-84500000D03*
%TD*%
D14*
%TO.P,TP7,1,1*%
%TO.N,/MODULE_SDA*%
X120000000Y-106500000D03*
%TD*%
%TO.P,TP8,1,1*%
%TO.N,5V_MODULE*%
X159000000Y-88000000D03*
%TD*%
%TO.P,TP10,1,1*%
%TO.N,5V_CN105*%
X180500000Y-87500000D03*
%TD*%
%TO.P,TP1,1,1*%
%TO.N,/STATUS_LED*%
X121000000Y-98000000D03*
%TD*%
%TO.P,TP12,1,1*%
%TO.N,/12V*%
X167500000Y-115000000D03*
%TD*%
D15*
%TO.P,TP13,1,1*%
%TO.N,GND*%
X163500000Y-115000000D03*
%TD*%
D16*
%TO.P,J1,1,Pin_1*%
%TO.N,/12V*%
X177000000Y-112000000D03*
D17*
%TO.P,J1,2,Pin_2*%
%TO.N,GND*%
X177000000Y-110000000D03*
%TO.P,J1,3,Pin_3*%
%TO.N,/CN105_5V_IN*%
X177000000Y-108000000D03*
%TO.P,J1,4,Pin_4*%
%TO.N,/CN105_TX_IN*%
X177000000Y-106000000D03*
%TO.P,J1,5,Pin_5*%
%TO.N,/CN105_RX_OUT*%
X177000000Y-104000000D03*
%TD*%
D14*
%TO.P,TP14,1,1*%
%TO.N,/CN105_TX_IN*%
X169000000Y-100000000D03*
%TD*%
%TO.P,TP15,1,1*%
%TO.N,/CN105_RX_OUT*%
X169000000Y-104500000D03*
%TD*%
D15*
%TO.P,TP5,1,1*%
%TO.N,GND*%
X120000000Y-110000000D03*
%TD*%
D18*
%TO.N,GND*%
X152300000Y-94200000D03*
X153500000Y-93000000D03*
X145200000Y-92200000D03*
X145200000Y-93800000D03*
X146700000Y-92200000D03*
X146700000Y-93800000D03*
X148200000Y-92200000D03*
X148200000Y-93800000D03*
X136000000Y-81000000D03*
X116000000Y-107000000D03*
D19*
X160000000Y-99225000D03*
D20*
X118000000Y-117000000D03*
D18*
X173500000Y-97000000D03*
X116000000Y-85000000D03*
X120000000Y-85000000D03*
X120000000Y-83000000D03*
X166000000Y-81000000D03*
X184000000Y-87000000D03*
X160000000Y-104500000D03*
X149700000Y-92200000D03*
X116000000Y-115000000D03*
X130000000Y-81000000D03*
X182000000Y-81000000D03*
X184000000Y-101000000D03*
X156000000Y-81000000D03*
X151000000Y-86137500D03*
X116000000Y-105000000D03*
X120000000Y-119000000D03*
X184000000Y-99000000D03*
X153400000Y-95200000D03*
X118000000Y-81000000D03*
X152962500Y-108037500D03*
X172000000Y-119000000D03*
X148000000Y-119000000D03*
X184000000Y-81000000D03*
X134000000Y-119000000D03*
X155400000Y-107500000D03*
X136000000Y-119000000D03*
X160000000Y-100775000D03*
X176000000Y-119000000D03*
X162850000Y-99275000D03*
X158000000Y-81000000D03*
X122000000Y-119000000D03*
X170000000Y-81000000D03*
X184000000Y-103000000D03*
X160000000Y-81000000D03*
X173300000Y-94250000D03*
X128000000Y-81000000D03*
X150000000Y-108037500D03*
X132000000Y-119000000D03*
X184000000Y-83000000D03*
X130000000Y-119000000D03*
X174000000Y-81000000D03*
X120000000Y-115000000D03*
X184000000Y-111000000D03*
X116000000Y-89000000D03*
X178100000Y-100000000D03*
X116000000Y-97000000D03*
X180000000Y-83000000D03*
X162000000Y-119000000D03*
X184000000Y-117000000D03*
X116000000Y-91000000D03*
X116000000Y-119000000D03*
X152000000Y-81000000D03*
X154000000Y-81000000D03*
X142000000Y-81000000D03*
X164000000Y-119000000D03*
X128000000Y-119000000D03*
X116000000Y-87000000D03*
X126000000Y-81000000D03*
X138000000Y-119000000D03*
X176000000Y-81000000D03*
X151300000Y-92200000D03*
X151300000Y-93800000D03*
X146000000Y-81000000D03*
X154750000Y-96500000D03*
X120000000Y-81000000D03*
X116000000Y-93000000D03*
X157250000Y-97750000D03*
X116000000Y-111000000D03*
X118000000Y-119000000D03*
X134000000Y-81000000D03*
X182000000Y-119000000D03*
X184000000Y-115000000D03*
X144000000Y-119000000D03*
X164000000Y-81000000D03*
X148000000Y-81000000D03*
X184000000Y-85000000D03*
X155500000Y-97750000D03*
X120000000Y-117000000D03*
X157316228Y-107451315D03*
X180000000Y-117000000D03*
D19*
X160000000Y-105950000D03*
D18*
X146000000Y-119000000D03*
X124000000Y-81000000D03*
X116000000Y-81000000D03*
X158000000Y-119000000D03*
X180000000Y-115000000D03*
X162200000Y-97400000D03*
X153412500Y-99500000D03*
X184000000Y-107000000D03*
X137000000Y-115500000D03*
X140000000Y-119000000D03*
X116000000Y-103000000D03*
X126150000Y-112650000D03*
X182000000Y-85000000D03*
X160450000Y-97400000D03*
X140000000Y-81000000D03*
X150000000Y-81000000D03*
X182000000Y-115000000D03*
X132000000Y-81000000D03*
X116000000Y-109000000D03*
D20*
X118000000Y-83000000D03*
D18*
X155975000Y-95275000D03*
X178000000Y-81000000D03*
X126000000Y-119000000D03*
X168000000Y-81000000D03*
X118000000Y-85000000D03*
X118000000Y-115000000D03*
X142000000Y-119000000D03*
X153593750Y-85962500D03*
X124000000Y-119000000D03*
X184000000Y-113000000D03*
X138000000Y-81000000D03*
X174000000Y-119000000D03*
X152000000Y-119000000D03*
X144000000Y-81000000D03*
X116000000Y-117000000D03*
X116000000Y-101000000D03*
D20*
X182000000Y-117000000D03*
D19*
X160000000Y-107000000D03*
D18*
X180000000Y-81000000D03*
X155500000Y-103400000D03*
X184000000Y-109000000D03*
X149700000Y-93800000D03*
X170000000Y-84500000D03*
X180000000Y-85000000D03*
X168000000Y-119000000D03*
X156000000Y-119000000D03*
X172000000Y-81000000D03*
X178000000Y-119000000D03*
X116000000Y-83000000D03*
X166000000Y-119000000D03*
X180000000Y-119000000D03*
D20*
X182000000Y-83000000D03*
D18*
X160000000Y-102225000D03*
X184000000Y-119000000D03*
X162000000Y-81000000D03*
X133862500Y-111650000D03*
X150000000Y-119000000D03*
X160000000Y-119000000D03*
X184000000Y-105000000D03*
X116000000Y-95000000D03*
X116000000Y-113000000D03*
X170000000Y-119000000D03*
X122000000Y-81000000D03*
X157600000Y-103400000D03*
X154000000Y-119000000D03*
X154600000Y-94000000D03*
X116000000Y-99000000D03*
%TO.N,5V_CN105*%
X161400000Y-95600000D03*
X161400000Y-96500000D03*
X163000000Y-100700000D03*
X162400000Y-95600000D03*
%TO.N,/CN105_OE*%
X162700000Y-107450000D03*
X157300000Y-99300000D03*
%TO.N,/CN105_RX_OUT_3V3*%
X156400000Y-108400000D03*
%TD*%
D21*
%TO.N,/CN105_RX_OUT_3V3*%
X156400000Y-97000000D02*
X152400000Y-93000000D01*
X152400000Y-93000000D02*
X143500000Y-93000000D01*
X156400000Y-108400000D02*
X156400000Y-97000000D01*
D22*
%TO.N,5V_CN105*%
X161400000Y-98900000D02*
X161400000Y-95600000D01*
D23*
X161400000Y-99100000D02*
X161400000Y-98900000D01*
D24*
X162400000Y-95600000D02*
X161400000Y-95600000D01*
D22*
X163000000Y-100700000D02*
X161400000Y-99100000D01*
D21*
%TO.N,/CN105_OE*%
X157300000Y-99300000D02*
X156900000Y-99700000D01*
X162650000Y-107400000D02*
X162700000Y-107450000D01*
X156900000Y-105000000D02*
X159600000Y-107700000D01*
X160300000Y-107700000D02*
X160550000Y-107450000D01*
X160550000Y-107450000D02*
X162700000Y-107450000D01*
X159600000Y-107700000D02*
X160300000Y-107700000D01*
X156900000Y-99700000D02*
X156900000Y-105000000D01*
%TD*%
%TA.AperFunction,Conductor*%
%TO.N,GND*%
G36*
X184942539Y-80020185D02*
G01*
X184988294Y-80072989D01*
X184999500Y-80124500D01*
X184999500Y-88876000D01*
X184979815Y-88943039D01*
X184927011Y-88988794D01*
X184875500Y-89000000D01*
X183000000Y-89000000D01*
X183000000Y-98500000D01*
X184875500Y-98500000D01*
X184942539Y-98519685D01*
X184988294Y-98572489D01*
X184999500Y-98624000D01*
X184999500Y-119875500D01*
X184979815Y-119942539D01*
X184927011Y-119988294D01*
X184875500Y-119999500D01*
X115124500Y-119999500D01*
X115057461Y-119979815D01*
X115011706Y-119927011D01*
X115000500Y-119875500D01*
X115000500Y-113952155D01*
X162000000Y-113952155D01*
X162000000Y-116047844D01*
X162006401Y-116107375D01*
X162015277Y-116131170D01*
X163017037Y-115129410D01*
X163034075Y-115192993D01*
X163099901Y-115307007D01*
X163192993Y-115400099D01*
X163307007Y-115465925D01*
X163370589Y-115482962D01*
X162368829Y-116484720D01*
X162368829Y-116484722D01*
X162392622Y-116493597D01*
X162392623Y-116493598D01*
X162452155Y-116499999D01*
X162452172Y-116500000D01*
X164547828Y-116500000D01*
X164547844Y-116499999D01*
X164607372Y-116493598D01*
X164631169Y-116484721D01*
X163629410Y-115482962D01*
X163692993Y-115465925D01*
X163807007Y-115400099D01*
X163900099Y-115307007D01*
X163965925Y-115192993D01*
X163982962Y-115129410D01*
X164984721Y-116131169D01*
X164993598Y-116107372D01*
X164999999Y-116047844D01*
X165000000Y-116047827D01*
X165000000Y-114897648D01*
X166199500Y-114897648D01*
X166199500Y-115102351D01*
X166231522Y-115304534D01*
X166294781Y-115499223D01*
X166387715Y-115681613D01*
X166508028Y-115847213D01*
X166652786Y-115991971D01*
X166807749Y-116104556D01*
X166818390Y-116112287D01*
X166934607Y-116171503D01*
X167000776Y-116205218D01*
X167000778Y-116205218D01*
X167000781Y-116205220D01*
X167105137Y-116239127D01*
X167195465Y-116268477D01*
X167296557Y-116284488D01*
X167397648Y-116300500D01*
X167397649Y-116300500D01*
X167602351Y-116300500D01*
X167602352Y-116300500D01*
X167804534Y-116268477D01*
X167999219Y-116205220D01*
X168181610Y-116112287D01*
X168274590Y-116044732D01*
X168347213Y-115991971D01*
X168347215Y-115991968D01*
X168347219Y-115991966D01*
X168491966Y-115847219D01*
X168491968Y-115847215D01*
X168491971Y-115847213D01*
X168544732Y-115774590D01*
X168612287Y-115681610D01*
X168705220Y-115499219D01*
X168768477Y-115304534D01*
X168800500Y-115102352D01*
X168800500Y-114897648D01*
X168768477Y-114695466D01*
X168767673Y-114692993D01*
X168705218Y-114500776D01*
X168671503Y-114434607D01*
X168612287Y-114318390D01*
X168576939Y-114269737D01*
X168491971Y-114152786D01*
X168347213Y-114008028D01*
X168181613Y-113887715D01*
X168181612Y-113887714D01*
X168181610Y-113887713D01*
X168124653Y-113858691D01*
X167999223Y-113794781D01*
X167804534Y-113731522D01*
X167629995Y-113703878D01*
X167602352Y-113699500D01*
X167397648Y-113699500D01*
X167373329Y-113703351D01*
X167195465Y-113731522D01*
X167000776Y-113794781D01*
X166818386Y-113887715D01*
X166652786Y-114008028D01*
X166508028Y-114152786D01*
X166387715Y-114318386D01*
X166294781Y-114500776D01*
X166231522Y-114695465D01*
X166199500Y-114897648D01*
X165000000Y-114897648D01*
X165000000Y-113952172D01*
X164999999Y-113952155D01*
X164993598Y-113892623D01*
X164993597Y-113892622D01*
X164984722Y-113868829D01*
X164984720Y-113868829D01*
X163982962Y-114870588D01*
X163965925Y-114807007D01*
X163900099Y-114692993D01*
X163807007Y-114599901D01*
X163692993Y-114534075D01*
X163629410Y-114517037D01*
X164631170Y-113515277D01*
X164631170Y-113515276D01*
X164607378Y-113506402D01*
X164607375Y-113506401D01*
X164547844Y-113500000D01*
X162452155Y-113500000D01*
X162392627Y-113506401D01*
X162392623Y-113506402D01*
X162368829Y-113515277D01*
X163370589Y-114517037D01*
X163307007Y-114534075D01*
X163192993Y-114599901D01*
X163099901Y-114692993D01*
X163034075Y-114807007D01*
X163017037Y-114870589D01*
X162015277Y-113868829D01*
X162006402Y-113892623D01*
X162006401Y-113892627D01*
X162000000Y-113952155D01*
X115000500Y-113952155D01*
X115000500Y-113421153D01*
X174099500Y-113421153D01*
X174099500Y-113578846D01*
X174130261Y-113733489D01*
X174130264Y-113733501D01*
X174190602Y-113879172D01*
X174190609Y-113879185D01*
X174278210Y-114010288D01*
X174278213Y-114010292D01*
X174389707Y-114121786D01*
X174389711Y-114121789D01*
X174520814Y-114209390D01*
X174520827Y-114209397D01*
X174666498Y-114269735D01*
X174666503Y-114269737D01*
X174821153Y-114300499D01*
X174821156Y-114300500D01*
X174821158Y-114300500D01*
X174978844Y-114300500D01*
X174978845Y-114300499D01*
X175133497Y-114269737D01*
X175279179Y-114209394D01*
X175410289Y-114121789D01*
X175521789Y-114010289D01*
X175609394Y-113879179D01*
X175669737Y-113733497D01*
X175700500Y-113578842D01*
X175700500Y-113421158D01*
X175700500Y-113421155D01*
X175700499Y-113421153D01*
X175669738Y-113266510D01*
X175669737Y-113266503D01*
X175669735Y-113266498D01*
X175609397Y-113120827D01*
X175609390Y-113120814D01*
X175521789Y-112989711D01*
X175521786Y-112989707D01*
X175410292Y-112878213D01*
X175410288Y-112878210D01*
X175279185Y-112790609D01*
X175279172Y-112790602D01*
X175133501Y-112730264D01*
X175133489Y-112730261D01*
X174978845Y-112699500D01*
X174978842Y-112699500D01*
X174821158Y-112699500D01*
X174821155Y-112699500D01*
X174666510Y-112730261D01*
X174666498Y-112730264D01*
X174520827Y-112790602D01*
X174520814Y-112790609D01*
X174389711Y-112878210D01*
X174389707Y-112878213D01*
X174278213Y-112989707D01*
X174278210Y-112989711D01*
X174190609Y-113120814D01*
X174190602Y-113120827D01*
X174130264Y-113266498D01*
X174130261Y-113266510D01*
X174099500Y-113421153D01*
X115000500Y-113421153D01*
X115000500Y-108952155D01*
X118500000Y-108952155D01*
X118500000Y-111047844D01*
X118506401Y-111107375D01*
X118515277Y-111131170D01*
X119517037Y-110129410D01*
X119534075Y-110192993D01*
X119599901Y-110307007D01*
X119692993Y-110400099D01*
X119807007Y-110465925D01*
X119870589Y-110482962D01*
X118868829Y-111484720D01*
X118868829Y-111484722D01*
X118892622Y-111493597D01*
X118892623Y-111493598D01*
X118952155Y-111499999D01*
X118952172Y-111500000D01*
X121047828Y-111500000D01*
X121047844Y-111499999D01*
X121107372Y-111493598D01*
X121131169Y-111484721D01*
X120129410Y-110482962D01*
X120192993Y-110465925D01*
X120307007Y-110400099D01*
X120400099Y-110307007D01*
X120465925Y-110192993D01*
X120482962Y-110129410D01*
X121484721Y-111131169D01*
X121493598Y-111107372D01*
X121499999Y-111047844D01*
X121500000Y-111047827D01*
X121500000Y-109397648D01*
X143199500Y-109397648D01*
X143199500Y-109602351D01*
X143231522Y-109804534D01*
X143294781Y-109999223D01*
X143387715Y-110181613D01*
X143508028Y-110347213D01*
X143652786Y-110491971D01*
X143807749Y-110604556D01*
X143818390Y-110612287D01*
X143934607Y-110671503D01*
X144000776Y-110705218D01*
X144000778Y-110705218D01*
X144000781Y-110705220D01*
X144105137Y-110739127D01*
X144195465Y-110768477D01*
X144296557Y-110784488D01*
X144397648Y-110800500D01*
X144397649Y-110800500D01*
X144602351Y-110800500D01*
X144602352Y-110800500D01*
X144804534Y-110768477D01*
X144999219Y-110705220D01*
X145181610Y-110612287D01*
X145274590Y-110544732D01*
X145347213Y-110491971D01*
X145347215Y-110491968D01*
X145347219Y-110491966D01*
X145491966Y-110347219D01*
X145491968Y-110347215D01*
X145491971Y-110347213D01*
X145544732Y-110274590D01*
X145612287Y-110181610D01*
X145705220Y-109999219D01*
X145768477Y-109804534D01*
X145800500Y-109602352D01*
X145800500Y-109397648D01*
X145768477Y-109195466D01*
X145767673Y-109192993D01*
X145705218Y-109000776D01*
X145665903Y-108923617D01*
X145612287Y-108818390D01*
X145586242Y-108782542D01*
X145491971Y-108652786D01*
X145347213Y-108508028D01*
X145270309Y-108452155D01*
X146500000Y-108452155D01*
X146500000Y-110547844D01*
X146506401Y-110607375D01*
X146515277Y-110631170D01*
X147517037Y-109629410D01*
X147534075Y-109692993D01*
X147599901Y-109807007D01*
X147692993Y-109900099D01*
X147807007Y-109965925D01*
X147870589Y-109982962D01*
X146868829Y-110984720D01*
X146868829Y-110984722D01*
X146892622Y-110993597D01*
X146892623Y-110993598D01*
X146952155Y-110999999D01*
X146952172Y-111000000D01*
X149047828Y-111000000D01*
X149047844Y-110999999D01*
X149107372Y-110993598D01*
X149131169Y-110984721D01*
X148129410Y-109982962D01*
X148192993Y-109965925D01*
X148307007Y-109900099D01*
X148400099Y-109807007D01*
X148465925Y-109692993D01*
X148482962Y-109629410D01*
X149484721Y-110631169D01*
X149493598Y-110607372D01*
X149499999Y-110547844D01*
X149500000Y-110547827D01*
X149500000Y-108452172D01*
X149499999Y-108452155D01*
X149493598Y-108392623D01*
X149493597Y-108392622D01*
X149484722Y-108368829D01*
X149484720Y-108368829D01*
X148482962Y-109370588D01*
X148465925Y-109307007D01*
X148400099Y-109192993D01*
X148307007Y-109099901D01*
X148192993Y-109034075D01*
X148129410Y-109017037D01*
X149131170Y-108015277D01*
X149131170Y-108015276D01*
X149107375Y-108006401D01*
X149047844Y-108000000D01*
X146952155Y-108000000D01*
X146892627Y-108006401D01*
X146892623Y-108006402D01*
X146868829Y-108015277D01*
X147870589Y-109017037D01*
X147807007Y-109034075D01*
X147692993Y-109099901D01*
X147599901Y-109192993D01*
X147534075Y-109307007D01*
X147517037Y-109370589D01*
X146515277Y-108368829D01*
X146506402Y-108392623D01*
X146506401Y-108392627D01*
X146500000Y-108452155D01*
X145270309Y-108452155D01*
X145181613Y-108387715D01*
X145181612Y-108387714D01*
X145181610Y-108387713D01*
X145124653Y-108358691D01*
X144999223Y-108294781D01*
X144804534Y-108231522D01*
X144629995Y-108203878D01*
X144602352Y-108199500D01*
X144397648Y-108199500D01*
X144373329Y-108203351D01*
X144195465Y-108231522D01*
X144000776Y-108294781D01*
X143818386Y-108387715D01*
X143652786Y-108508028D01*
X143508028Y-108652786D01*
X143387715Y-108818386D01*
X143294781Y-109000776D01*
X143231522Y-109195465D01*
X143199500Y-109397648D01*
X121500000Y-109397648D01*
X121500000Y-108952172D01*
X121499999Y-108952155D01*
X121493598Y-108892623D01*
X121493597Y-108892622D01*
X121484722Y-108868829D01*
X121484720Y-108868829D01*
X120482962Y-109870588D01*
X120465925Y-109807007D01*
X120400099Y-109692993D01*
X120307007Y-109599901D01*
X120192993Y-109534075D01*
X120129410Y-109517037D01*
X121131170Y-108515277D01*
X121131170Y-108515276D01*
X121107375Y-108506401D01*
X121047844Y-108500000D01*
X118952155Y-108500000D01*
X118892627Y-108506401D01*
X118892623Y-108506402D01*
X118868829Y-108515277D01*
X119870589Y-109517037D01*
X119807007Y-109534075D01*
X119692993Y-109599901D01*
X119599901Y-109692993D01*
X119534075Y-109807007D01*
X119517037Y-109870589D01*
X118515277Y-108868829D01*
X118506402Y-108892623D01*
X118506401Y-108892627D01*
X118500000Y-108952155D01*
X115000500Y-108952155D01*
X115000500Y-106397648D01*
X118699500Y-106397648D01*
X118699500Y-106602351D01*
X118731522Y-106804534D01*
X118794781Y-106999223D01*
X118887715Y-107181613D01*
X119008028Y-107347213D01*
X119152786Y-107491971D01*
X119307749Y-107604556D01*
X119318390Y-107612287D01*
X119400908Y-107654332D01*
X119500776Y-107705218D01*
X119500778Y-107705218D01*
X119500781Y-107705220D01*
X119605137Y-107739127D01*
X119695465Y-107768477D01*
X119779608Y-107781804D01*
X119897648Y-107800500D01*
X119897649Y-107800500D01*
X120102351Y-107800500D01*
X120102352Y-107800500D01*
X120304534Y-107768477D01*
X120499219Y-107705220D01*
X120681610Y-107612287D01*
X120774590Y-107544732D01*
X120847213Y-107491971D01*
X120847215Y-107491968D01*
X120847219Y-107491966D01*
X120991966Y-107347219D01*
X120991968Y-107347215D01*
X120991971Y-107347213D01*
X121065740Y-107245677D01*
X121112287Y-107181610D01*
X121205220Y-106999219D01*
X121268477Y-106804534D01*
X121300500Y-106602352D01*
X121300500Y-106397648D01*
X121268477Y-106195466D01*
X121205220Y-106000781D01*
X121205218Y-106000778D01*
X121205218Y-106000776D01*
X121154611Y-105901456D01*
X121112287Y-105818390D01*
X121099289Y-105800500D01*
X120991971Y-105652786D01*
X120847213Y-105508028D01*
X120681613Y-105387715D01*
X120681612Y-105387714D01*
X120681610Y-105387713D01*
X120624653Y-105358691D01*
X120499223Y-105294781D01*
X120304534Y-105231522D01*
X120129995Y-105203878D01*
X120102352Y-105199500D01*
X119897648Y-105199500D01*
X119873329Y-105203351D01*
X119695465Y-105231522D01*
X119500776Y-105294781D01*
X119318386Y-105387715D01*
X119152786Y-105508028D01*
X119008028Y-105652786D01*
X118887715Y-105818386D01*
X118794781Y-106000776D01*
X118731522Y-106195465D01*
X118699500Y-106397648D01*
X115000500Y-106397648D01*
X115000500Y-102897648D01*
X118699500Y-102897648D01*
X118699500Y-103102351D01*
X118731522Y-103304534D01*
X118794781Y-103499223D01*
X118808469Y-103526086D01*
X118873026Y-103652786D01*
X118887715Y-103681613D01*
X119008028Y-103847213D01*
X119152786Y-103991971D01*
X119299470Y-104098541D01*
X119318390Y-104112287D01*
X119434607Y-104171503D01*
X119500776Y-104205218D01*
X119500778Y-104205218D01*
X119500781Y-104205220D01*
X119605137Y-104239127D01*
X119695465Y-104268477D01*
X119796557Y-104284488D01*
X119897648Y-104300500D01*
X119897649Y-104300500D01*
X120102351Y-104300500D01*
X120102352Y-104300500D01*
X120304534Y-104268477D01*
X120499219Y-104205220D01*
X120681610Y-104112287D01*
X120774590Y-104044732D01*
X120847213Y-103991971D01*
X120847215Y-103991968D01*
X120847219Y-103991966D01*
X120991966Y-103847219D01*
X120991968Y-103847215D01*
X120991971Y-103847213D01*
X121092990Y-103708170D01*
X121112287Y-103681610D01*
X121205220Y-103499219D01*
X121268477Y-103304534D01*
X121300500Y-103102352D01*
X121300500Y-102897648D01*
X121268477Y-102695466D01*
X121205220Y-102500781D01*
X121205218Y-102500778D01*
X121205218Y-102500776D01*
X121164647Y-102421153D01*
X121112287Y-102318390D01*
X121104556Y-102307749D01*
X120991971Y-102152786D01*
X120847213Y-102008028D01*
X120681613Y-101887715D01*
X120681612Y-101887714D01*
X120681610Y-101887713D01*
X120624653Y-101858691D01*
X120499223Y-101794781D01*
X120304534Y-101731522D01*
X120129995Y-101703878D01*
X120102352Y-101699500D01*
X119897648Y-101699500D01*
X119873329Y-101703351D01*
X119695465Y-101731522D01*
X119500776Y-101794781D01*
X119318386Y-101887715D01*
X119152786Y-102008028D01*
X119008028Y-102152786D01*
X118887715Y-102318386D01*
X118794781Y-102500776D01*
X118731522Y-102695465D01*
X118699500Y-102897648D01*
X115000500Y-102897648D01*
X115000500Y-97897648D01*
X119699500Y-97897648D01*
X119699500Y-98102351D01*
X119731522Y-98304534D01*
X119794781Y-98499223D01*
X119845876Y-98599500D01*
X119886499Y-98679228D01*
X119887715Y-98681613D01*
X120008028Y-98847213D01*
X120152786Y-98991971D01*
X120295514Y-99095667D01*
X120318390Y-99112287D01*
X120397864Y-99152781D01*
X120500776Y-99205218D01*
X120500778Y-99205218D01*
X120500781Y-99205220D01*
X120580136Y-99231004D01*
X120695465Y-99268477D01*
X120796557Y-99284488D01*
X120897648Y-99300500D01*
X120897649Y-99300500D01*
X121102351Y-99300500D01*
X121102352Y-99300500D01*
X121304534Y-99268477D01*
X121499219Y-99205220D01*
X121681610Y-99112287D01*
X121794868Y-99030001D01*
X121847213Y-98991971D01*
X121847215Y-98991968D01*
X121847219Y-98991966D01*
X121991966Y-98847219D01*
X121991968Y-98847215D01*
X121991971Y-98847213D01*
X122099289Y-98699500D01*
X122112287Y-98681610D01*
X122205220Y-98499219D01*
X122268477Y-98304534D01*
X122300500Y-98102352D01*
X122300500Y-97897648D01*
X122268477Y-97695466D01*
X122205220Y-97500781D01*
X122205218Y-97500778D01*
X122205218Y-97500776D01*
X122171503Y-97434607D01*
X122112287Y-97318390D01*
X122104556Y-97307749D01*
X121991971Y-97152786D01*
X121847213Y-97008028D01*
X121681613Y-96887715D01*
X121681612Y-96887714D01*
X121681610Y-96887713D01*
X121598586Y-96845410D01*
X121499223Y-96794781D01*
X121304534Y-96731522D01*
X121129995Y-96703878D01*
X121102352Y-96699500D01*
X120897648Y-96699500D01*
X120873329Y-96703351D01*
X120695465Y-96731522D01*
X120500776Y-96794781D01*
X120318386Y-96887715D01*
X120152786Y-97008028D01*
X120008028Y-97152786D01*
X119887715Y-97318386D01*
X119794781Y-97500776D01*
X119731522Y-97695465D01*
X119699500Y-97897648D01*
X115000500Y-97897648D01*
X115000500Y-90952155D01*
X119500000Y-90952155D01*
X119500000Y-93047844D01*
X119506401Y-93107375D01*
X119515277Y-93131170D01*
X120517037Y-92129410D01*
X120534075Y-92192993D01*
X120599901Y-92307007D01*
X120692993Y-92400099D01*
X120807007Y-92465925D01*
X120870589Y-92482962D01*
X119868829Y-93484720D01*
X119868829Y-93484722D01*
X119892622Y-93493597D01*
X119892623Y-93493598D01*
X119952155Y-93499999D01*
X119952172Y-93500000D01*
X122047828Y-93500000D01*
X122047844Y-93499999D01*
X122107372Y-93493598D01*
X122131169Y-93484721D01*
X121129410Y-92482962D01*
X121192993Y-92465925D01*
X121307007Y-92400099D01*
X121400099Y-92307007D01*
X121465925Y-92192993D01*
X121482962Y-92129410D01*
X122484721Y-93131169D01*
X122493598Y-93107372D01*
X122499999Y-93047844D01*
X122500000Y-93047827D01*
X122500000Y-90952172D01*
X122499999Y-90952155D01*
X122493598Y-90892623D01*
X122493597Y-90892622D01*
X122484722Y-90868829D01*
X122484720Y-90868829D01*
X121482962Y-91870588D01*
X121465925Y-91807007D01*
X121400099Y-91692993D01*
X121307007Y-91599901D01*
X121192993Y-91534075D01*
X121129410Y-91517037D01*
X122131170Y-90515277D01*
X122131170Y-90515276D01*
X122107375Y-90506401D01*
X122047844Y-90500000D01*
X119952155Y-90500000D01*
X119892627Y-90506401D01*
X119892623Y-90506402D01*
X119868829Y-90515277D01*
X120870589Y-91517037D01*
X120807007Y-91534075D01*
X120692993Y-91599901D01*
X120599901Y-91692993D01*
X120534075Y-91807007D01*
X120517037Y-91870589D01*
X119515277Y-90868829D01*
X119506402Y-90892623D01*
X119506401Y-90892627D01*
X119500000Y-90952155D01*
X115000500Y-90952155D01*
X115000500Y-85285513D01*
X127299500Y-85285513D01*
X127299500Y-85474486D01*
X127329059Y-85661118D01*
X127387454Y-85840836D01*
X127426471Y-85917410D01*
X127473240Y-86009199D01*
X127584310Y-86162073D01*
X127717927Y-86295690D01*
X127870801Y-86406760D01*
X127950347Y-86447290D01*
X128039163Y-86492545D01*
X128039165Y-86492545D01*
X128039168Y-86492547D01*
X128086832Y-86508034D01*
X128160803Y-86532069D01*
X128218478Y-86571507D01*
X128245676Y-86635866D01*
X128233761Y-86704712D01*
X128186516Y-86756188D01*
X128160803Y-86767931D01*
X128039163Y-86807454D01*
X127870800Y-86893240D01*
X127783579Y-86956610D01*
X127717927Y-87004310D01*
X127717925Y-87004312D01*
X127717924Y-87004312D01*
X127584312Y-87137924D01*
X127584312Y-87137925D01*
X127584310Y-87137927D01*
X127542506Y-87195465D01*
X127473240Y-87290800D01*
X127387454Y-87459163D01*
X127329059Y-87638881D01*
X127299500Y-87825513D01*
X127299500Y-88014486D01*
X127329059Y-88201118D01*
X127387454Y-88380836D01*
X127444078Y-88491966D01*
X127473240Y-88549199D01*
X127584310Y-88702073D01*
X127717927Y-88835690D01*
X127870801Y-88946760D01*
X127950347Y-88987290D01*
X128039163Y-89032545D01*
X128039165Y-89032545D01*
X128039168Y-89032547D01*
X128128734Y-89061649D01*
X128160803Y-89072069D01*
X128218478Y-89111507D01*
X128245676Y-89175866D01*
X128233761Y-89244712D01*
X128186516Y-89296188D01*
X128160803Y-89307931D01*
X128039163Y-89347454D01*
X127870800Y-89433240D01*
X127783579Y-89496610D01*
X127717927Y-89544310D01*
X127717925Y-89544312D01*
X127717924Y-89544312D01*
X127584312Y-89677924D01*
X127584312Y-89677925D01*
X127584310Y-89677927D01*
X127536610Y-89743579D01*
X127473240Y-89830800D01*
X127387454Y-89999163D01*
X127329059Y-90178881D01*
X127299500Y-90365513D01*
X127299500Y-90554486D01*
X127329059Y-90741118D01*
X127387454Y-90920836D01*
X127403421Y-90952172D01*
X127473240Y-91089199D01*
X127584310Y-91242073D01*
X127717927Y-91375690D01*
X127870801Y-91486760D01*
X127950347Y-91527290D01*
X128039163Y-91572545D01*
X128039165Y-91572545D01*
X128039168Y-91572547D01*
X128123354Y-91599901D01*
X128160803Y-91612069D01*
X128218478Y-91651507D01*
X128245676Y-91715866D01*
X128233761Y-91784712D01*
X128186516Y-91836188D01*
X128160803Y-91847931D01*
X128039163Y-91887454D01*
X127870800Y-91973240D01*
X127833969Y-92000000D01*
X127717927Y-92084310D01*
X127717925Y-92084312D01*
X127717924Y-92084312D01*
X127584312Y-92217924D01*
X127584312Y-92217925D01*
X127584310Y-92217927D01*
X127536610Y-92283579D01*
X127473240Y-92370800D01*
X127387454Y-92539163D01*
X127329059Y-92718881D01*
X127299500Y-92905513D01*
X127299500Y-93094486D01*
X127329059Y-93281118D01*
X127387454Y-93460836D01*
X127473240Y-93629199D01*
X127584310Y-93782073D01*
X127717927Y-93915690D01*
X127870801Y-94026760D01*
X128024386Y-94105015D01*
X128075182Y-94152989D01*
X128091977Y-94220810D01*
X128069440Y-94286945D01*
X128014725Y-94330397D01*
X127968091Y-94339500D01*
X127555143Y-94339500D01*
X127555117Y-94339502D01*
X127530012Y-94342413D01*
X127530008Y-94342415D01*
X127427235Y-94387793D01*
X127347794Y-94467234D01*
X127302415Y-94570006D01*
X127302415Y-94570008D01*
X127299500Y-94595131D01*
X127299500Y-96484856D01*
X127299502Y-96484882D01*
X127302413Y-96509987D01*
X127302415Y-96509991D01*
X127347793Y-96612764D01*
X127347794Y-96612765D01*
X127427235Y-96692206D01*
X127530009Y-96737585D01*
X127555135Y-96740500D01*
X129444864Y-96740499D01*
X129444879Y-96740497D01*
X129444882Y-96740497D01*
X129469987Y-96737586D01*
X129469988Y-96737585D01*
X129469991Y-96737585D01*
X129572765Y-96692206D01*
X129652206Y-96612765D01*
X129697585Y-96509991D01*
X129700500Y-96484865D01*
X129700499Y-94595136D01*
X129700497Y-94595117D01*
X129697586Y-94570012D01*
X129697585Y-94570010D01*
X129697585Y-94570009D01*
X129652206Y-94467235D01*
X129572765Y-94387794D01*
X129572763Y-94387793D01*
X129469992Y-94342415D01*
X129444868Y-94339500D01*
X129031909Y-94339500D01*
X128964870Y-94319815D01*
X128919115Y-94267011D01*
X128909171Y-94197853D01*
X128938196Y-94134297D01*
X128975614Y-94105015D01*
X129129199Y-94026760D01*
X129282073Y-93915690D01*
X129415690Y-93782073D01*
X129526760Y-93629199D01*
X129612547Y-93460832D01*
X129670940Y-93281118D01*
X129700500Y-93094486D01*
X129700500Y-92905513D01*
X129670940Y-92718881D01*
X129612545Y-92539163D01*
X129526759Y-92370800D01*
X129415690Y-92217927D01*
X129282073Y-92084310D01*
X129129199Y-91973240D01*
X128960836Y-91887454D01*
X128886472Y-91863291D01*
X128839195Y-91847930D01*
X128781521Y-91808493D01*
X128754323Y-91744134D01*
X128766238Y-91675288D01*
X128813482Y-91623812D01*
X128839194Y-91612069D01*
X128960832Y-91572547D01*
X129129199Y-91486760D01*
X129282073Y-91375690D01*
X129415690Y-91242073D01*
X129526760Y-91089199D01*
X129612547Y-90920832D01*
X129670940Y-90741118D01*
X129700500Y-90554486D01*
X129700500Y-90365513D01*
X129670940Y-90178881D01*
X129612545Y-89999163D01*
X129526759Y-89830800D01*
X129415690Y-89677927D01*
X129282073Y-89544310D01*
X129129199Y-89433240D01*
X128960836Y-89347454D01*
X128886472Y-89323291D01*
X128839195Y-89307930D01*
X128781521Y-89268493D01*
X128754323Y-89204134D01*
X128766238Y-89135288D01*
X128813482Y-89083812D01*
X128839194Y-89072069D01*
X128960832Y-89032547D01*
X129129199Y-88946760D01*
X129282073Y-88835690D01*
X129415690Y-88702073D01*
X129526760Y-88549199D01*
X129612547Y-88380832D01*
X129670940Y-88201118D01*
X129686583Y-88102351D01*
X129700500Y-88014486D01*
X129700500Y-87825513D01*
X129670940Y-87638881D01*
X129626066Y-87500776D01*
X129612547Y-87459168D01*
X129612545Y-87459165D01*
X129612545Y-87459163D01*
X129540815Y-87318386D01*
X129526760Y-87290801D01*
X129415690Y-87137927D01*
X129282073Y-87004310D01*
X129129199Y-86893240D01*
X129088367Y-86872435D01*
X128960836Y-86807454D01*
X128886472Y-86783291D01*
X128839195Y-86767930D01*
X128781521Y-86728493D01*
X128754323Y-86664134D01*
X128766238Y-86595288D01*
X128813482Y-86543812D01*
X128839194Y-86532069D01*
X128960832Y-86492547D01*
X129129199Y-86406760D01*
X129282073Y-86295690D01*
X129415690Y-86162073D01*
X129526760Y-86009199D01*
X129612547Y-85840832D01*
X129670940Y-85661118D01*
X129688883Y-85547827D01*
X129700500Y-85474485D01*
X129700500Y-85285514D01*
X129684811Y-85186462D01*
X129684811Y-85186460D01*
X129675869Y-85130000D01*
X142122145Y-85130000D01*
X143038120Y-85130000D01*
X143010778Y-85177358D01*
X142975000Y-85310882D01*
X142975000Y-85449118D01*
X143010778Y-85582642D01*
X143038120Y-85630000D01*
X142122145Y-85630000D01*
X142134473Y-85707835D01*
X142134473Y-85707838D01*
X142202567Y-85917410D01*
X142302613Y-86113760D01*
X142432142Y-86292041D01*
X142587958Y-86447857D01*
X142766239Y-86577386D01*
X142911629Y-86651466D01*
X142962425Y-86699440D01*
X142979220Y-86767261D01*
X142956683Y-86833396D01*
X142911631Y-86872435D01*
X142881648Y-86887713D01*
X142870801Y-86893240D01*
X142717927Y-87004310D01*
X142717925Y-87004312D01*
X142717924Y-87004312D01*
X142584312Y-87137924D01*
X142584312Y-87137925D01*
X142584310Y-87137927D01*
X142542506Y-87195465D01*
X142473240Y-87290800D01*
X142387454Y-87459163D01*
X142329059Y-87638881D01*
X142299500Y-87825513D01*
X142299500Y-88014486D01*
X142329059Y-88201118D01*
X142387454Y-88380836D01*
X142444078Y-88491966D01*
X142473240Y-88549199D01*
X142584310Y-88702073D01*
X142717927Y-88835690D01*
X142870801Y-88946760D01*
X142950347Y-88987290D01*
X143039163Y-89032545D01*
X143039165Y-89032545D01*
X143039168Y-89032547D01*
X143128734Y-89061649D01*
X143160803Y-89072069D01*
X143218478Y-89111507D01*
X143245676Y-89175866D01*
X143233761Y-89244712D01*
X143186516Y-89296188D01*
X143160803Y-89307931D01*
X143039163Y-89347454D01*
X142870800Y-89433240D01*
X142783579Y-89496610D01*
X142717927Y-89544310D01*
X142717925Y-89544312D01*
X142717924Y-89544312D01*
X142584312Y-89677924D01*
X142584312Y-89677925D01*
X142584310Y-89677927D01*
X142536610Y-89743579D01*
X142473240Y-89830800D01*
X142387454Y-89999163D01*
X142329059Y-90178881D01*
X142299500Y-90365513D01*
X142299500Y-90554486D01*
X142329059Y-90741118D01*
X142387454Y-90920836D01*
X142403421Y-90952172D01*
X142473240Y-91089199D01*
X142584310Y-91242073D01*
X142717927Y-91375690D01*
X142870801Y-91486760D01*
X142950347Y-91527290D01*
X143039163Y-91572545D01*
X143039165Y-91572545D01*
X143039168Y-91572547D01*
X143123354Y-91599901D01*
X143160803Y-91612069D01*
X143218478Y-91651507D01*
X143245676Y-91715866D01*
X143233761Y-91784712D01*
X143186516Y-91836188D01*
X143160803Y-91847931D01*
X143039163Y-91887454D01*
X142870800Y-91973240D01*
X142833969Y-92000000D01*
X142717927Y-92084310D01*
X142717925Y-92084312D01*
X142717924Y-92084312D01*
X142584312Y-92217924D01*
X142584312Y-92217925D01*
X142584310Y-92217927D01*
X142536610Y-92283579D01*
X142473240Y-92370800D01*
X142387454Y-92539163D01*
X142329059Y-92718881D01*
X142299500Y-92905513D01*
X142299500Y-93094486D01*
X142329059Y-93281118D01*
X142387454Y-93460836D01*
X142473240Y-93629199D01*
X142584310Y-93782073D01*
X142717927Y-93915690D01*
X142870801Y-94026760D01*
X142950347Y-94067290D01*
X143039163Y-94112545D01*
X143039165Y-94112545D01*
X143039168Y-94112547D01*
X143135497Y-94143846D01*
X143218881Y-94170940D01*
X143405514Y-94200500D01*
X143405519Y-94200500D01*
X143594486Y-94200500D01*
X143781118Y-94170940D01*
X143960832Y-94112547D01*
X144129199Y-94026760D01*
X144282073Y-93915690D01*
X144415690Y-93782073D01*
X144526760Y-93629199D01*
X144608790Y-93468204D01*
X144656764Y-93417409D01*
X144719275Y-93400500D01*
X152182745Y-93400500D01*
X152249784Y-93420185D01*
X152270426Y-93436819D01*
X155963181Y-97129574D01*
X155996666Y-97190897D01*
X155999500Y-97217255D01*
X155999500Y-107759452D01*
X155979815Y-107826491D01*
X155957616Y-107851429D01*
X155957765Y-107851578D01*
X155955204Y-107854138D01*
X155954167Y-107855304D01*
X155953453Y-107855889D01*
X155855888Y-107953454D01*
X155855885Y-107953458D01*
X155779228Y-108068182D01*
X155779221Y-108068195D01*
X155726421Y-108195667D01*
X155726418Y-108195677D01*
X155699500Y-108331004D01*
X155699500Y-108331007D01*
X155699500Y-108468993D01*
X155699500Y-108468995D01*
X155699499Y-108468995D01*
X155726418Y-108604322D01*
X155726421Y-108604332D01*
X155779221Y-108731804D01*
X155779228Y-108731817D01*
X155855885Y-108846541D01*
X155855888Y-108846545D01*
X155953454Y-108944111D01*
X155953458Y-108944114D01*
X156068182Y-109020771D01*
X156068195Y-109020778D01*
X156195667Y-109073578D01*
X156195672Y-109073580D01*
X156195676Y-109073580D01*
X156195677Y-109073581D01*
X156331004Y-109100500D01*
X156331007Y-109100500D01*
X156468995Y-109100500D01*
X156560041Y-109082389D01*
X156604328Y-109073580D01*
X156731811Y-109020775D01*
X156834508Y-108952155D01*
X167500000Y-108952155D01*
X167500000Y-111047844D01*
X167506401Y-111107375D01*
X167515277Y-111131170D01*
X168517037Y-110129410D01*
X168534075Y-110192993D01*
X168599901Y-110307007D01*
X168692993Y-110400099D01*
X168807007Y-110465925D01*
X168870589Y-110482962D01*
X167868829Y-111484720D01*
X167868829Y-111484722D01*
X167892622Y-111493597D01*
X167892623Y-111493598D01*
X167952155Y-111499999D01*
X167952172Y-111500000D01*
X170047828Y-111500000D01*
X170047844Y-111499999D01*
X170107372Y-111493598D01*
X170131169Y-111484721D01*
X169129410Y-110482962D01*
X169192993Y-110465925D01*
X169307007Y-110400099D01*
X169400099Y-110307007D01*
X169465925Y-110192993D01*
X169482962Y-110129410D01*
X170484721Y-111131169D01*
X170493598Y-111107372D01*
X170499999Y-111047844D01*
X170500000Y-111047827D01*
X170500000Y-109905552D01*
X175800000Y-109905552D01*
X175800000Y-110094447D01*
X175829548Y-110281002D01*
X175887914Y-110460637D01*
X175973666Y-110628933D01*
X175992116Y-110654328D01*
X176600000Y-110046445D01*
X176600000Y-110052661D01*
X176627259Y-110154394D01*
X176679920Y-110245606D01*
X176754394Y-110320080D01*
X176845606Y-110372741D01*
X176947339Y-110400000D01*
X176953554Y-110400000D01*
X176390371Y-110963181D01*
X176329048Y-110996666D01*
X176302692Y-110999500D01*
X176255143Y-110999500D01*
X176255118Y-110999502D01*
X176230011Y-111002414D01*
X176230008Y-111002415D01*
X176127235Y-111047793D01*
X176047794Y-111127234D01*
X176002415Y-111230006D01*
X176002415Y-111230008D01*
X175999500Y-111255131D01*
X175999500Y-112744856D01*
X175999502Y-112744882D01*
X176002413Y-112769987D01*
X176002415Y-112769991D01*
X176047793Y-112872764D01*
X176047794Y-112872765D01*
X176127235Y-112952206D01*
X176230009Y-112997585D01*
X176255135Y-113000500D01*
X177744864Y-113000499D01*
X177744879Y-113000497D01*
X177744882Y-113000497D01*
X177769987Y-112997586D01*
X177769988Y-112997585D01*
X177769991Y-112997585D01*
X177872765Y-112952206D01*
X177952206Y-112872765D01*
X177997585Y-112769991D01*
X178000500Y-112744865D01*
X178000499Y-111255136D01*
X178000497Y-111255117D01*
X177997586Y-111230012D01*
X177997585Y-111230010D01*
X177997585Y-111230009D01*
X177952206Y-111127235D01*
X177872765Y-111047794D01*
X177872763Y-111047793D01*
X177769992Y-111002415D01*
X177744868Y-110999500D01*
X177697308Y-110999500D01*
X177630269Y-110979815D01*
X177609627Y-110963181D01*
X177046447Y-110400000D01*
X177052661Y-110400000D01*
X177154394Y-110372741D01*
X177245606Y-110320080D01*
X177320080Y-110245606D01*
X177372741Y-110154394D01*
X177400000Y-110052661D01*
X177400000Y-110046446D01*
X178007882Y-110654328D01*
X178007883Y-110654328D01*
X178026331Y-110628937D01*
X178112085Y-110460637D01*
X178170451Y-110281002D01*
X178200000Y-110094447D01*
X178200000Y-109905552D01*
X178170451Y-109718997D01*
X178112085Y-109539362D01*
X178026329Y-109371059D01*
X178007883Y-109345670D01*
X178007882Y-109345669D01*
X177400000Y-109953552D01*
X177400000Y-109947339D01*
X177372741Y-109845606D01*
X177320080Y-109754394D01*
X177245606Y-109679920D01*
X177154394Y-109627259D01*
X177052661Y-109600000D01*
X177046447Y-109600000D01*
X177654328Y-108992116D01*
X177654328Y-108992115D01*
X177636202Y-108978946D01*
X177593536Y-108923617D01*
X177587557Y-108854003D01*
X177620162Y-108792208D01*
X177633295Y-108781272D01*
X177633074Y-108781003D01*
X177637778Y-108777141D01*
X177637782Y-108777139D01*
X177777139Y-108637782D01*
X177886632Y-108473914D01*
X177962051Y-108291835D01*
X177995519Y-108123581D01*
X178000500Y-108098543D01*
X178000500Y-107901456D01*
X177962052Y-107708170D01*
X177962051Y-107708169D01*
X177962051Y-107708165D01*
X177939749Y-107654322D01*
X177886635Y-107526092D01*
X177886628Y-107526079D01*
X177777139Y-107362218D01*
X177777136Y-107362214D01*
X177637785Y-107222863D01*
X177637781Y-107222860D01*
X177473920Y-107113371D01*
X177468544Y-107110498D01*
X177469510Y-107108689D01*
X177422397Y-107070728D01*
X177400326Y-107004436D01*
X177417600Y-106936735D01*
X177468734Y-106889121D01*
X177472331Y-106887477D01*
X177473907Y-106886634D01*
X177473914Y-106886632D01*
X177637782Y-106777139D01*
X177777139Y-106637782D01*
X177886632Y-106473914D01*
X177962051Y-106291835D01*
X177981220Y-106195466D01*
X178000500Y-106098543D01*
X178000500Y-105901456D01*
X177962052Y-105708170D01*
X177962051Y-105708169D01*
X177962051Y-105708165D01*
X177939392Y-105653460D01*
X177886635Y-105526092D01*
X177886628Y-105526079D01*
X177777139Y-105362218D01*
X177777136Y-105362214D01*
X177637785Y-105222863D01*
X177637781Y-105222860D01*
X177473920Y-105113371D01*
X177468544Y-105110498D01*
X177469510Y-105108689D01*
X177422397Y-105070728D01*
X177400326Y-105004436D01*
X177417600Y-104936735D01*
X177468734Y-104889121D01*
X177472331Y-104887477D01*
X177473907Y-104886634D01*
X177473914Y-104886632D01*
X177637782Y-104777139D01*
X177777139Y-104637782D01*
X177886632Y-104473914D01*
X177962051Y-104291835D01*
X177981220Y-104195466D01*
X178000500Y-104098543D01*
X178000500Y-103901456D01*
X177962052Y-103708170D01*
X177962051Y-103708169D01*
X177962051Y-103708165D01*
X177951052Y-103681610D01*
X177886635Y-103526092D01*
X177886628Y-103526079D01*
X177777139Y-103362218D01*
X177777136Y-103362214D01*
X177637785Y-103222863D01*
X177637781Y-103222860D01*
X177473920Y-103113371D01*
X177473907Y-103113364D01*
X177291839Y-103037950D01*
X177291829Y-103037947D01*
X177098543Y-102999500D01*
X177098541Y-102999500D01*
X176901459Y-102999500D01*
X176901457Y-102999500D01*
X176708170Y-103037947D01*
X176708160Y-103037950D01*
X176526092Y-103113364D01*
X176526079Y-103113371D01*
X176362218Y-103222860D01*
X176362214Y-103222863D01*
X176222863Y-103362214D01*
X176222860Y-103362218D01*
X176113371Y-103526079D01*
X176113364Y-103526092D01*
X176037950Y-103708160D01*
X176037947Y-103708170D01*
X175999500Y-103901456D01*
X175999500Y-103901459D01*
X175999500Y-104098541D01*
X175999500Y-104098543D01*
X175999499Y-104098543D01*
X176037947Y-104291829D01*
X176037950Y-104291839D01*
X176113364Y-104473907D01*
X176113371Y-104473920D01*
X176222860Y-104637781D01*
X176222863Y-104637785D01*
X176362214Y-104777136D01*
X176362218Y-104777139D01*
X176526079Y-104886628D01*
X176531456Y-104889502D01*
X176530490Y-104891308D01*
X176577612Y-104929285D01*
X176599673Y-104995580D01*
X176582391Y-105063279D01*
X176531251Y-105110887D01*
X176527660Y-105112526D01*
X176526079Y-105113371D01*
X176362218Y-105222860D01*
X176362214Y-105222863D01*
X176222863Y-105362214D01*
X176222860Y-105362218D01*
X176113371Y-105526079D01*
X176113364Y-105526092D01*
X176037950Y-105708160D01*
X176037947Y-105708170D01*
X175999500Y-105901456D01*
X175999500Y-105901459D01*
X175999500Y-106098541D01*
X175999500Y-106098543D01*
X175999499Y-106098543D01*
X176037947Y-106291829D01*
X176037950Y-106291839D01*
X176113364Y-106473907D01*
X176113371Y-106473920D01*
X176222860Y-106637781D01*
X176222863Y-106637785D01*
X176362214Y-106777136D01*
X176362218Y-106777139D01*
X176526079Y-106886628D01*
X176531456Y-106889502D01*
X176530490Y-106891308D01*
X176577612Y-106929285D01*
X176599673Y-106995580D01*
X176582391Y-107063279D01*
X176531251Y-107110887D01*
X176527660Y-107112526D01*
X176526079Y-107113371D01*
X176362218Y-107222860D01*
X176362214Y-107222863D01*
X176222863Y-107362214D01*
X176222860Y-107362218D01*
X176113371Y-107526079D01*
X176113364Y-107526092D01*
X176037950Y-107708160D01*
X176037947Y-107708170D01*
X175999500Y-107901456D01*
X175999500Y-107901459D01*
X175999500Y-108098541D01*
X175999500Y-108098543D01*
X175999499Y-108098543D01*
X176037947Y-108291829D01*
X176037950Y-108291839D01*
X176113364Y-108473907D01*
X176113371Y-108473920D01*
X176222860Y-108637781D01*
X176222863Y-108637785D01*
X176362214Y-108777136D01*
X176366926Y-108781003D01*
X176365662Y-108782542D01*
X176404599Y-108829117D01*
X176413319Y-108898440D01*
X176383175Y-108961473D01*
X176363796Y-108978946D01*
X176345670Y-108992114D01*
X176345669Y-108992116D01*
X176953554Y-109600000D01*
X176947339Y-109600000D01*
X176845606Y-109627259D01*
X176754394Y-109679920D01*
X176679920Y-109754394D01*
X176627259Y-109845606D01*
X176600000Y-109947339D01*
X176600000Y-109953553D01*
X175992116Y-109345669D01*
X175992116Y-109345670D01*
X175973669Y-109371060D01*
X175887914Y-109539362D01*
X175829548Y-109718997D01*
X175800000Y-109905552D01*
X170500000Y-109905552D01*
X170500000Y-108952172D01*
X170499999Y-108952155D01*
X170493598Y-108892623D01*
X170493597Y-108892622D01*
X170484722Y-108868829D01*
X170484720Y-108868829D01*
X169482962Y-109870588D01*
X169465925Y-109807007D01*
X169400099Y-109692993D01*
X169307007Y-109599901D01*
X169192993Y-109534075D01*
X169129410Y-109517037D01*
X170131170Y-108515277D01*
X170131170Y-108515276D01*
X170107375Y-108506401D01*
X170047844Y-108500000D01*
X167952155Y-108500000D01*
X167892627Y-108506401D01*
X167892623Y-108506402D01*
X167868829Y-108515277D01*
X168870589Y-109517037D01*
X168807007Y-109534075D01*
X168692993Y-109599901D01*
X168599901Y-109692993D01*
X168534075Y-109807007D01*
X168517037Y-109870588D01*
X167515278Y-108868829D01*
X167515277Y-108868829D01*
X167506402Y-108892623D01*
X167506401Y-108892627D01*
X167500000Y-108952155D01*
X156834508Y-108952155D01*
X156846542Y-108944114D01*
X156867039Y-108923617D01*
X156929487Y-108861170D01*
X156944111Y-108846545D01*
X156944114Y-108846542D01*
X157020775Y-108731811D01*
X157073580Y-108604328D01*
X157089078Y-108526410D01*
X157100500Y-108468995D01*
X157100500Y-108331004D01*
X157073581Y-108195677D01*
X157073580Y-108195676D01*
X157073580Y-108195672D01*
X157034159Y-108100500D01*
X157020778Y-108068195D01*
X157020771Y-108068182D01*
X156944114Y-107953458D01*
X156944111Y-107953454D01*
X156846546Y-107855889D01*
X156845833Y-107855304D01*
X156845559Y-107854902D01*
X156842235Y-107851578D01*
X156842865Y-107850947D01*
X156806500Y-107797557D01*
X156800500Y-107759452D01*
X156800500Y-105766254D01*
X156820185Y-105699215D01*
X156872989Y-105653460D01*
X156942147Y-105643516D01*
X157005703Y-105672541D01*
X157012181Y-105678573D01*
X159279518Y-107945910D01*
X159279520Y-107945913D01*
X159354087Y-108020480D01*
X159387050Y-108039511D01*
X159445413Y-108073207D01*
X159547273Y-108100501D01*
X159547275Y-108100501D01*
X159660323Y-108100501D01*
X159660339Y-108100500D01*
X160352725Y-108100500D01*
X160352727Y-108100500D01*
X160454588Y-108073207D01*
X160545913Y-108020480D01*
X160679574Y-107886819D01*
X160740897Y-107853334D01*
X160767255Y-107850500D01*
X162059453Y-107850500D01*
X162126492Y-107870185D01*
X162151427Y-107892385D01*
X162151578Y-107892235D01*
X162154164Y-107894821D01*
X162155313Y-107895844D01*
X162155889Y-107896546D01*
X162253454Y-107994111D01*
X162253458Y-107994114D01*
X162368182Y-108070771D01*
X162368195Y-108070778D01*
X162439954Y-108100501D01*
X162495672Y-108123580D01*
X162495676Y-108123580D01*
X162495677Y-108123581D01*
X162631004Y-108150500D01*
X162631007Y-108150500D01*
X162768995Y-108150500D01*
X162860041Y-108132389D01*
X162904328Y-108123580D01*
X163031811Y-108070775D01*
X163146542Y-107994114D01*
X163244114Y-107896542D01*
X163320775Y-107781811D01*
X163373580Y-107654328D01*
X163399089Y-107526086D01*
X163400500Y-107518995D01*
X163400500Y-107381004D01*
X163373581Y-107245677D01*
X163373580Y-107245676D01*
X163373580Y-107245672D01*
X163364132Y-107222863D01*
X163320778Y-107118195D01*
X163320771Y-107118182D01*
X163244114Y-107003458D01*
X163244111Y-107003454D01*
X163146545Y-106905888D01*
X163146541Y-106905885D01*
X163031817Y-106829228D01*
X163031804Y-106829221D01*
X162904332Y-106776421D01*
X162904322Y-106776418D01*
X162768995Y-106749500D01*
X162768993Y-106749500D01*
X162631007Y-106749500D01*
X162631005Y-106749500D01*
X162495677Y-106776418D01*
X162495667Y-106776421D01*
X162368195Y-106829221D01*
X162368182Y-106829228D01*
X162253458Y-106905885D01*
X162253454Y-106905888D01*
X162155889Y-107003453D01*
X162155313Y-107004156D01*
X162154917Y-107004425D01*
X162151578Y-107007765D01*
X162150944Y-107007131D01*
X162097571Y-107043496D01*
X162059453Y-107049500D01*
X160497273Y-107049500D01*
X160395410Y-107076793D01*
X160390696Y-107079516D01*
X160390689Y-107079520D01*
X160304093Y-107129515D01*
X160304085Y-107129521D01*
X160170426Y-107263181D01*
X160109103Y-107296666D01*
X160082745Y-107299500D01*
X159817254Y-107299500D01*
X159750215Y-107279815D01*
X159729573Y-107263181D01*
X157336819Y-104870426D01*
X157303334Y-104809103D01*
X157300500Y-104782745D01*
X157300500Y-104397648D01*
X167699500Y-104397648D01*
X167699500Y-104602351D01*
X167731522Y-104804534D01*
X167794781Y-104999223D01*
X167887715Y-105181613D01*
X168008028Y-105347213D01*
X168152786Y-105491971D01*
X168307749Y-105604556D01*
X168318390Y-105612287D01*
X168434607Y-105671503D01*
X168500776Y-105705218D01*
X168500778Y-105705218D01*
X168500781Y-105705220D01*
X168605137Y-105739127D01*
X168695465Y-105768477D01*
X168796557Y-105784488D01*
X168897648Y-105800500D01*
X168897649Y-105800500D01*
X169102351Y-105800500D01*
X169102352Y-105800500D01*
X169304534Y-105768477D01*
X169499219Y-105705220D01*
X169681610Y-105612287D01*
X169774590Y-105544732D01*
X169847213Y-105491971D01*
X169847215Y-105491968D01*
X169847219Y-105491966D01*
X169991966Y-105347219D01*
X169991968Y-105347215D01*
X169991971Y-105347213D01*
X170082315Y-105222863D01*
X170112287Y-105181610D01*
X170205220Y-104999219D01*
X170268477Y-104804534D01*
X170300500Y-104602352D01*
X170300500Y-104397648D01*
X170268477Y-104195466D01*
X170205220Y-104000781D01*
X170205218Y-104000778D01*
X170205217Y-104000773D01*
X170180194Y-103951663D01*
X170180193Y-103951662D01*
X170154611Y-103901456D01*
X170112287Y-103818390D01*
X170104556Y-103807749D01*
X169991971Y-103652786D01*
X169847213Y-103508028D01*
X169681613Y-103387715D01*
X169681612Y-103387714D01*
X169681610Y-103387713D01*
X169624653Y-103358691D01*
X169499223Y-103294781D01*
X169304534Y-103231522D01*
X169129995Y-103203878D01*
X169102352Y-103199500D01*
X168897648Y-103199500D01*
X168873329Y-103203351D01*
X168695465Y-103231522D01*
X168500776Y-103294781D01*
X168318386Y-103387715D01*
X168152786Y-103508028D01*
X168008028Y-103652786D01*
X167887715Y-103818386D01*
X167794781Y-104000776D01*
X167731522Y-104195465D01*
X167699500Y-104397648D01*
X157300500Y-104397648D01*
X157300500Y-102421153D01*
X174099500Y-102421153D01*
X174099500Y-102578846D01*
X174130261Y-102733489D01*
X174130264Y-102733501D01*
X174190602Y-102879172D01*
X174190609Y-102879185D01*
X174278210Y-103010288D01*
X174278213Y-103010292D01*
X174389707Y-103121786D01*
X174389711Y-103121789D01*
X174520814Y-103209390D01*
X174520827Y-103209397D01*
X174666498Y-103269735D01*
X174666503Y-103269737D01*
X174792402Y-103294780D01*
X174821153Y-103300499D01*
X174821156Y-103300500D01*
X174821158Y-103300500D01*
X174978844Y-103300500D01*
X174978845Y-103300499D01*
X175133497Y-103269737D01*
X175279179Y-103209394D01*
X175410289Y-103121789D01*
X175521789Y-103010289D01*
X175609394Y-102879179D01*
X175669737Y-102733497D01*
X175700500Y-102578842D01*
X175700500Y-102421158D01*
X175700500Y-102421155D01*
X175700499Y-102421153D01*
X175669738Y-102266510D01*
X175669737Y-102266503D01*
X175669735Y-102266498D01*
X175609397Y-102120827D01*
X175609390Y-102120814D01*
X175521789Y-101989711D01*
X175521786Y-101989707D01*
X175410292Y-101878213D01*
X175410288Y-101878210D01*
X175279185Y-101790609D01*
X175279172Y-101790602D01*
X175133501Y-101730264D01*
X175133489Y-101730261D01*
X174978845Y-101699500D01*
X174978842Y-101699500D01*
X174821158Y-101699500D01*
X174821155Y-101699500D01*
X174666510Y-101730261D01*
X174666498Y-101730264D01*
X174520827Y-101790602D01*
X174520814Y-101790609D01*
X174389711Y-101878210D01*
X174389707Y-101878213D01*
X174278213Y-101989707D01*
X174278210Y-101989711D01*
X174190609Y-102120814D01*
X174190602Y-102120827D01*
X174130264Y-102266498D01*
X174130261Y-102266510D01*
X174099500Y-102421153D01*
X157300500Y-102421153D01*
X157300500Y-100115888D01*
X157320185Y-100048849D01*
X157372989Y-100003094D01*
X157400309Y-99994271D01*
X157425071Y-99989345D01*
X157504328Y-99973580D01*
X157631811Y-99920775D01*
X157746542Y-99844114D01*
X157844114Y-99746542D01*
X157920775Y-99631811D01*
X157973580Y-99504328D01*
X157992877Y-99407316D01*
X158000500Y-99368995D01*
X158000500Y-99231004D01*
X157973581Y-99095677D01*
X157973580Y-99095676D01*
X157973580Y-99095672D01*
X157973578Y-99095667D01*
X157920778Y-98968195D01*
X157920771Y-98968182D01*
X157844114Y-98853458D01*
X157844111Y-98853454D01*
X157746545Y-98755888D01*
X157746541Y-98755885D01*
X157631817Y-98679228D01*
X157631804Y-98679221D01*
X157504332Y-98626421D01*
X157504322Y-98626418D01*
X157368995Y-98599500D01*
X157368993Y-98599500D01*
X157231007Y-98599500D01*
X157231005Y-98599500D01*
X157095677Y-98626418D01*
X157095667Y-98626421D01*
X156971952Y-98677665D01*
X156902482Y-98685134D01*
X156840003Y-98653858D01*
X156804352Y-98593769D01*
X156800500Y-98563104D01*
X156800500Y-96947272D01*
X156800304Y-96946541D01*
X156800299Y-96946523D01*
X156798715Y-96940612D01*
X156773207Y-96845412D01*
X156720480Y-96754087D01*
X155635388Y-95668995D01*
X160699499Y-95668995D01*
X160726418Y-95804322D01*
X160726421Y-95804332D01*
X160779221Y-95931804D01*
X160779231Y-95931822D01*
X160812164Y-95981110D01*
X160833042Y-96047787D01*
X160814557Y-96115167D01*
X160812164Y-96118890D01*
X160779231Y-96168177D01*
X160779221Y-96168195D01*
X160726421Y-96295667D01*
X160726418Y-96295677D01*
X160699500Y-96431004D01*
X160699500Y-96431007D01*
X160699500Y-96568993D01*
X160699500Y-96568995D01*
X160699499Y-96568995D01*
X160726418Y-96704322D01*
X160726421Y-96704332D01*
X160779221Y-96831804D01*
X160779228Y-96831817D01*
X160855885Y-96946541D01*
X160863177Y-96953833D01*
X160896665Y-97015155D01*
X160899500Y-97041518D01*
X160899500Y-98965891D01*
X160900041Y-98967910D01*
X160900041Y-98969998D01*
X160900561Y-98973948D01*
X160900041Y-98974016D01*
X160900041Y-99025983D01*
X160900561Y-99026052D01*
X160900041Y-99030001D01*
X160900041Y-99032090D01*
X160899500Y-99034108D01*
X160899500Y-99165891D01*
X160933608Y-99293187D01*
X160966554Y-99350250D01*
X160999500Y-99407314D01*
X160999502Y-99407316D01*
X162263181Y-100670995D01*
X162296666Y-100732318D01*
X162299500Y-100758676D01*
X162299500Y-100768993D01*
X162299500Y-100768995D01*
X162299499Y-100768995D01*
X162326418Y-100904322D01*
X162326421Y-100904332D01*
X162379221Y-101031804D01*
X162379228Y-101031817D01*
X162455885Y-101146541D01*
X162455888Y-101146545D01*
X162553454Y-101244111D01*
X162553458Y-101244114D01*
X162668182Y-101320771D01*
X162668195Y-101320778D01*
X162795667Y-101373578D01*
X162795672Y-101373580D01*
X162795676Y-101373580D01*
X162795677Y-101373581D01*
X162931004Y-101400500D01*
X162931007Y-101400500D01*
X163068995Y-101400500D01*
X163160041Y-101382389D01*
X163204328Y-101373580D01*
X163331811Y-101320775D01*
X163446542Y-101244114D01*
X163544114Y-101146542D01*
X163620775Y-101031811D01*
X163673580Y-100904328D01*
X163700500Y-100768993D01*
X163700500Y-100631007D01*
X163700500Y-100631004D01*
X163673581Y-100495677D01*
X163673580Y-100495676D01*
X163673580Y-100495672D01*
X163673578Y-100495667D01*
X163620778Y-100368195D01*
X163620771Y-100368182D01*
X163544114Y-100253458D01*
X163544111Y-100253454D01*
X163446545Y-100155888D01*
X163446541Y-100155885D01*
X163331817Y-100079228D01*
X163331804Y-100079221D01*
X163204332Y-100026421D01*
X163204322Y-100026418D01*
X163146294Y-100014875D01*
X163146263Y-100014870D01*
X163068993Y-99999500D01*
X163048943Y-99999500D01*
X163039331Y-99997982D01*
X163016192Y-99987025D01*
X162991637Y-99979815D01*
X162978344Y-99969103D01*
X162976183Y-99968080D01*
X162975283Y-99966636D01*
X162970995Y-99963181D01*
X162905462Y-99897648D01*
X167699500Y-99897648D01*
X167699500Y-100102351D01*
X167731522Y-100304534D01*
X167794781Y-100499223D01*
X167858691Y-100624653D01*
X167882304Y-100670995D01*
X167887715Y-100681613D01*
X168008028Y-100847213D01*
X168152786Y-100991971D01*
X168307749Y-101104556D01*
X168318390Y-101112287D01*
X168434607Y-101171503D01*
X168500776Y-101205218D01*
X168500778Y-101205218D01*
X168500781Y-101205220D01*
X168605137Y-101239127D01*
X168695465Y-101268477D01*
X168796557Y-101284488D01*
X168897648Y-101300500D01*
X168897649Y-101300500D01*
X169102351Y-101300500D01*
X169102352Y-101300500D01*
X169304534Y-101268477D01*
X169499219Y-101205220D01*
X169681610Y-101112287D01*
X169774590Y-101044732D01*
X169847213Y-100991971D01*
X169847215Y-100991968D01*
X169847219Y-100991966D01*
X169991966Y-100847219D01*
X169991968Y-100847215D01*
X169991971Y-100847213D01*
X170056296Y-100758676D01*
X170112287Y-100681610D01*
X170205220Y-100499219D01*
X170268477Y-100304534D01*
X170300500Y-100102352D01*
X170300500Y-99897648D01*
X170268477Y-99695466D01*
X170205220Y-99500781D01*
X170205218Y-99500778D01*
X170205218Y-99500776D01*
X170157596Y-99407314D01*
X170112287Y-99318390D01*
X170093976Y-99293187D01*
X169991971Y-99152786D01*
X169847213Y-99008028D01*
X169681613Y-98887715D01*
X169681612Y-98887714D01*
X169681610Y-98887713D01*
X169614373Y-98853454D01*
X169499223Y-98794781D01*
X169304534Y-98731522D01*
X169129995Y-98703878D01*
X169102352Y-98699500D01*
X168897648Y-98699500D01*
X168873329Y-98703351D01*
X168695465Y-98731522D01*
X168500776Y-98794781D01*
X168318386Y-98887715D01*
X168152786Y-99008028D01*
X168008028Y-99152786D01*
X167887715Y-99318386D01*
X167794781Y-99500776D01*
X167731522Y-99695465D01*
X167699500Y-99897648D01*
X162905462Y-99897648D01*
X161936819Y-98929005D01*
X161903334Y-98867682D01*
X161900500Y-98841324D01*
X161900500Y-97041518D01*
X161920185Y-96974479D01*
X161936823Y-96953833D01*
X161944114Y-96946542D01*
X162020775Y-96831811D01*
X162073580Y-96704328D01*
X162091793Y-96612765D01*
X162100500Y-96568995D01*
X162100500Y-96431007D01*
X162100181Y-96429404D01*
X162100257Y-96428545D01*
X162099903Y-96424942D01*
X162100586Y-96424874D01*
X162106405Y-96359812D01*
X162149265Y-96304632D01*
X162215153Y-96281384D01*
X162245989Y-96283589D01*
X162331004Y-96300500D01*
X162331007Y-96300500D01*
X162468995Y-96300500D01*
X162565095Y-96281384D01*
X162604328Y-96273580D01*
X162731811Y-96220775D01*
X162846542Y-96144114D01*
X162944114Y-96046542D01*
X163020775Y-95931811D01*
X163073580Y-95804328D01*
X163100500Y-95668993D01*
X163100500Y-95531007D01*
X163100500Y-95531004D01*
X163073581Y-95395677D01*
X163073580Y-95395676D01*
X163073580Y-95395672D01*
X163073578Y-95395667D01*
X163020778Y-95268195D01*
X163020771Y-95268182D01*
X162944114Y-95153458D01*
X162944111Y-95153454D01*
X162846545Y-95055888D01*
X162846541Y-95055885D01*
X162731817Y-94979228D01*
X162731804Y-94979221D01*
X162604332Y-94926421D01*
X162604322Y-94926418D01*
X162468995Y-94899500D01*
X162468993Y-94899500D01*
X162331007Y-94899500D01*
X162331005Y-94899500D01*
X162195677Y-94926418D01*
X162195667Y-94926421D01*
X162068195Y-94979221D01*
X162068183Y-94979228D01*
X161994291Y-95028602D01*
X161976244Y-95034252D01*
X161960335Y-95044477D01*
X161929375Y-95048928D01*
X161927614Y-95049480D01*
X161925400Y-95049500D01*
X161874600Y-95049500D01*
X161807561Y-95029815D01*
X161805709Y-95028602D01*
X161731816Y-94979228D01*
X161731804Y-94979221D01*
X161604332Y-94926421D01*
X161604322Y-94926418D01*
X161468995Y-94899500D01*
X161468993Y-94899500D01*
X161331007Y-94899500D01*
X161331005Y-94899500D01*
X161195677Y-94926418D01*
X161195667Y-94926421D01*
X161068195Y-94979221D01*
X161068182Y-94979228D01*
X160953458Y-95055885D01*
X160953454Y-95055888D01*
X160855888Y-95153454D01*
X160855885Y-95153458D01*
X160779228Y-95268182D01*
X160779221Y-95268195D01*
X160726421Y-95395667D01*
X160726418Y-95395677D01*
X160699500Y-95531004D01*
X160699500Y-95531007D01*
X160699500Y-95668993D01*
X160699500Y-95668995D01*
X160699499Y-95668995D01*
X155635388Y-95668995D01*
X152645913Y-92679520D01*
X152600250Y-92653156D01*
X152554589Y-92626793D01*
X152503657Y-92613146D01*
X152452727Y-92599500D01*
X152452726Y-92599500D01*
X144719275Y-92599500D01*
X144652236Y-92579815D01*
X144608790Y-92531795D01*
X144526759Y-92370800D01*
X144415690Y-92217927D01*
X144282073Y-92084310D01*
X144129199Y-91973240D01*
X143960836Y-91887454D01*
X143886472Y-91863291D01*
X143839195Y-91847930D01*
X143781521Y-91808493D01*
X143754323Y-91744134D01*
X143766238Y-91675288D01*
X143813482Y-91623812D01*
X143839194Y-91612069D01*
X143960832Y-91572547D01*
X144129199Y-91486760D01*
X144282073Y-91375690D01*
X144415690Y-91242073D01*
X144526760Y-91089199D01*
X144612547Y-90920832D01*
X144670940Y-90741118D01*
X144700500Y-90554486D01*
X144700500Y-90365513D01*
X144670940Y-90178881D01*
X144612545Y-89999163D01*
X144526759Y-89830800D01*
X144415690Y-89677927D01*
X144282073Y-89544310D01*
X144129199Y-89433240D01*
X143960836Y-89347454D01*
X143886472Y-89323291D01*
X143839195Y-89307930D01*
X143781521Y-89268493D01*
X143754323Y-89204134D01*
X143766238Y-89135288D01*
X143813482Y-89083812D01*
X143839194Y-89072069D01*
X143960832Y-89032547D01*
X144129199Y-88946760D01*
X144282073Y-88835690D01*
X144415690Y-88702073D01*
X144526760Y-88549199D01*
X144612547Y-88380832D01*
X144670940Y-88201118D01*
X144686583Y-88102351D01*
X144700500Y-88014486D01*
X144700500Y-87897648D01*
X157699500Y-87897648D01*
X157699500Y-88102351D01*
X157731522Y-88304534D01*
X157794781Y-88499223D01*
X157887715Y-88681613D01*
X158008028Y-88847213D01*
X158152786Y-88991971D01*
X158263034Y-89072069D01*
X158318390Y-89112287D01*
X158434607Y-89171503D01*
X158500776Y-89205218D01*
X158500778Y-89205218D01*
X158500781Y-89205220D01*
X158605137Y-89239127D01*
X158695465Y-89268477D01*
X158796557Y-89284488D01*
X158897648Y-89300500D01*
X158897649Y-89300500D01*
X159102351Y-89300500D01*
X159102352Y-89300500D01*
X159304534Y-89268477D01*
X159499219Y-89205220D01*
X159681610Y-89112287D01*
X159791364Y-89032547D01*
X159847213Y-88991971D01*
X159847215Y-88991968D01*
X159847219Y-88991966D01*
X159991966Y-88847219D01*
X159991968Y-88847215D01*
X159991971Y-88847213D01*
X160095133Y-88705220D01*
X160112287Y-88681610D01*
X160205220Y-88499219D01*
X160268477Y-88304534D01*
X160300500Y-88102352D01*
X160300500Y-87897648D01*
X160268477Y-87695466D01*
X160205220Y-87500781D01*
X160205217Y-87500777D01*
X160205217Y-87500774D01*
X160178873Y-87449072D01*
X160178872Y-87449071D01*
X160152671Y-87397648D01*
X179199500Y-87397648D01*
X179199500Y-87602351D01*
X179231522Y-87804534D01*
X179294781Y-87999223D01*
X179387715Y-88181613D01*
X179508028Y-88347213D01*
X179652786Y-88491971D01*
X179807749Y-88604556D01*
X179818390Y-88612287D01*
X179934607Y-88671503D01*
X180000776Y-88705218D01*
X180000778Y-88705218D01*
X180000781Y-88705220D01*
X180105137Y-88739127D01*
X180195465Y-88768477D01*
X180296557Y-88784488D01*
X180397648Y-88800500D01*
X180397649Y-88800500D01*
X180602351Y-88800500D01*
X180602352Y-88800500D01*
X180804534Y-88768477D01*
X180999219Y-88705220D01*
X181181610Y-88612287D01*
X181337231Y-88499223D01*
X181347213Y-88491971D01*
X181347215Y-88491968D01*
X181347219Y-88491966D01*
X181491966Y-88347219D01*
X181491968Y-88347215D01*
X181491971Y-88347213D01*
X181544732Y-88274590D01*
X181612287Y-88181610D01*
X181705220Y-87999219D01*
X181768477Y-87804534D01*
X181800500Y-87602352D01*
X181800500Y-87397648D01*
X181768477Y-87195466D01*
X181754609Y-87152786D01*
X181739127Y-87105137D01*
X181705220Y-87000781D01*
X181705218Y-87000778D01*
X181705218Y-87000776D01*
X181647610Y-86887715D01*
X181612287Y-86818390D01*
X181595134Y-86794781D01*
X181491971Y-86652786D01*
X181347213Y-86508028D01*
X181181613Y-86387715D01*
X181181612Y-86387714D01*
X181181610Y-86387713D01*
X181124653Y-86358691D01*
X180999223Y-86294781D01*
X180804534Y-86231522D01*
X180629995Y-86203878D01*
X180602352Y-86199500D01*
X180397648Y-86199500D01*
X180373329Y-86203351D01*
X180195465Y-86231522D01*
X180000776Y-86294781D01*
X179818386Y-86387715D01*
X179652786Y-86508028D01*
X179508028Y-86652786D01*
X179387715Y-86818386D01*
X179294781Y-87000776D01*
X179231522Y-87195465D01*
X179199500Y-87397648D01*
X160152671Y-87397648D01*
X160112284Y-87318385D01*
X159991971Y-87152786D01*
X159847213Y-87008028D01*
X159681613Y-86887715D01*
X159681612Y-86887714D01*
X159681610Y-86887713D01*
X159624653Y-86858691D01*
X159499223Y-86794781D01*
X159304534Y-86731522D01*
X159129995Y-86703878D01*
X159102352Y-86699500D01*
X158897648Y-86699500D01*
X158873329Y-86703351D01*
X158695465Y-86731522D01*
X158500776Y-86794781D01*
X158318386Y-86887715D01*
X158152786Y-87008028D01*
X158008028Y-87152786D01*
X157887715Y-87318386D01*
X157794781Y-87500776D01*
X157731522Y-87695465D01*
X157699500Y-87897648D01*
X144700500Y-87897648D01*
X144700500Y-87825513D01*
X144670940Y-87638881D01*
X144626066Y-87500776D01*
X144612547Y-87459168D01*
X144612545Y-87459165D01*
X144612545Y-87459163D01*
X144540815Y-87318386D01*
X144526760Y-87290801D01*
X144415690Y-87137927D01*
X144282073Y-87004310D01*
X144129199Y-86893240D01*
X144129198Y-86893239D01*
X144129196Y-86893238D01*
X144088369Y-86872435D01*
X144037573Y-86824460D01*
X144020779Y-86756639D01*
X144043317Y-86690504D01*
X144088371Y-86651466D01*
X144233758Y-86577388D01*
X144412041Y-86447857D01*
X144567857Y-86292041D01*
X144697386Y-86113760D01*
X144797431Y-85917412D01*
X144800944Y-85906601D01*
X144800945Y-85906599D01*
X144865526Y-85707838D01*
X144865526Y-85707835D01*
X144877855Y-85630000D01*
X143961880Y-85630000D01*
X143989222Y-85582642D01*
X144025000Y-85449118D01*
X144025000Y-85310882D01*
X143989222Y-85177358D01*
X143961880Y-85130000D01*
X144877855Y-85130000D01*
X144865526Y-85052164D01*
X144865526Y-85052161D01*
X144797432Y-84842589D01*
X144697386Y-84646239D01*
X144567857Y-84467958D01*
X144412041Y-84312142D01*
X144233760Y-84182613D01*
X144037410Y-84082567D01*
X143827836Y-84014473D01*
X143750000Y-84002144D01*
X143750000Y-84918120D01*
X143702642Y-84890778D01*
X143569118Y-84855000D01*
X143430882Y-84855000D01*
X143297358Y-84890778D01*
X143250000Y-84918120D01*
X143250000Y-84002144D01*
X143172164Y-84014473D01*
X143172161Y-84014473D01*
X142962589Y-84082567D01*
X142766239Y-84182613D01*
X142587958Y-84312142D01*
X142432142Y-84467958D01*
X142302613Y-84646239D01*
X142202567Y-84842589D01*
X142134473Y-85052161D01*
X142134473Y-85052164D01*
X142122145Y-85130000D01*
X129675869Y-85130000D01*
X129670940Y-85098882D01*
X129670940Y-85098881D01*
X129612545Y-84919163D01*
X129526759Y-84750800D01*
X129415690Y-84597927D01*
X129282073Y-84464310D01*
X129129199Y-84353240D01*
X129125288Y-84351247D01*
X128960836Y-84267454D01*
X128781118Y-84209059D01*
X128594486Y-84179500D01*
X128594481Y-84179500D01*
X128405519Y-84179500D01*
X128405514Y-84179500D01*
X128218881Y-84209059D01*
X128039163Y-84267454D01*
X127870800Y-84353240D01*
X127806305Y-84400099D01*
X127717927Y-84464310D01*
X127717925Y-84464312D01*
X127717924Y-84464312D01*
X127584312Y-84597924D01*
X127584312Y-84597925D01*
X127584310Y-84597927D01*
X127549209Y-84646239D01*
X127473240Y-84750800D01*
X127387454Y-84919163D01*
X127329059Y-85098881D01*
X127299500Y-85285513D01*
X115000500Y-85285513D01*
X115000500Y-83452155D01*
X157500000Y-83452155D01*
X157500000Y-85547844D01*
X157506401Y-85607375D01*
X157515277Y-85631170D01*
X158517037Y-84629410D01*
X158534075Y-84692993D01*
X158599901Y-84807007D01*
X158692993Y-84900099D01*
X158807007Y-84965925D01*
X158870589Y-84982962D01*
X157868829Y-85984720D01*
X157868829Y-85984722D01*
X157892622Y-85993597D01*
X157892623Y-85993598D01*
X157952155Y-85999999D01*
X157952172Y-86000000D01*
X160047828Y-86000000D01*
X160047844Y-85999999D01*
X160107372Y-85993598D01*
X160131169Y-85984721D01*
X159129410Y-84982962D01*
X159192993Y-84965925D01*
X159307007Y-84900099D01*
X159400099Y-84807007D01*
X159465925Y-84692993D01*
X159482962Y-84629410D01*
X160484721Y-85631169D01*
X160493598Y-85607372D01*
X160499999Y-85547844D01*
X160500000Y-85547827D01*
X160500000Y-83881947D01*
X175500000Y-83881947D01*
X175500000Y-84118052D01*
X175536934Y-84351247D01*
X175609897Y-84575802D01*
X175717087Y-84786174D01*
X175777338Y-84869104D01*
X175777340Y-84869105D01*
X176517037Y-84129408D01*
X176534075Y-84192993D01*
X176599901Y-84307007D01*
X176692993Y-84400099D01*
X176807007Y-84465925D01*
X176870590Y-84482962D01*
X176130893Y-85222658D01*
X176213828Y-85282914D01*
X176424197Y-85390102D01*
X176648752Y-85463065D01*
X176648751Y-85463065D01*
X176881948Y-85500000D01*
X177118052Y-85500000D01*
X177351247Y-85463065D01*
X177575802Y-85390102D01*
X177786163Y-85282918D01*
X177786169Y-85282914D01*
X177869104Y-85222658D01*
X177869105Y-85222658D01*
X177129408Y-84482962D01*
X177192993Y-84465925D01*
X177307007Y-84400099D01*
X177400099Y-84307007D01*
X177465925Y-84192993D01*
X177482962Y-84129408D01*
X178222658Y-84869105D01*
X178222658Y-84869104D01*
X178282914Y-84786169D01*
X178282918Y-84786163D01*
X178390102Y-84575802D01*
X178463065Y-84351247D01*
X178500000Y-84118052D01*
X178500000Y-83881947D01*
X178463065Y-83648752D01*
X178390102Y-83424197D01*
X178282914Y-83213828D01*
X178222658Y-83130894D01*
X178222658Y-83130893D01*
X177482962Y-83870590D01*
X177465925Y-83807007D01*
X177400099Y-83692993D01*
X177307007Y-83599901D01*
X177192993Y-83534075D01*
X177129409Y-83517037D01*
X177869105Y-82777340D01*
X177869104Y-82777338D01*
X177786174Y-82717087D01*
X177575802Y-82609897D01*
X177351247Y-82536934D01*
X177351248Y-82536934D01*
X177118052Y-82500000D01*
X176881948Y-82500000D01*
X176648752Y-82536934D01*
X176424197Y-82609897D01*
X176213830Y-82717084D01*
X176130894Y-82777340D01*
X176870591Y-83517037D01*
X176807007Y-83534075D01*
X176692993Y-83599901D01*
X176599901Y-83692993D01*
X176534075Y-83807007D01*
X176517037Y-83870591D01*
X175777340Y-83130894D01*
X175717084Y-83213830D01*
X175609897Y-83424197D01*
X175536934Y-83648752D01*
X175500000Y-83881947D01*
X160500000Y-83881947D01*
X160500000Y-83452172D01*
X160499999Y-83452155D01*
X160493598Y-83392623D01*
X160493597Y-83392622D01*
X160484722Y-83368829D01*
X160484720Y-83368829D01*
X159482962Y-84370588D01*
X159465925Y-84307007D01*
X159400099Y-84192993D01*
X159307007Y-84099901D01*
X159192993Y-84034075D01*
X159129410Y-84017037D01*
X160131170Y-83015277D01*
X160131170Y-83015276D01*
X160107375Y-83006401D01*
X160047844Y-83000000D01*
X157952155Y-83000000D01*
X157892627Y-83006401D01*
X157892623Y-83006402D01*
X157868829Y-83015277D01*
X158870589Y-84017037D01*
X158807007Y-84034075D01*
X158692993Y-84099901D01*
X158599901Y-84192993D01*
X158534075Y-84307007D01*
X158517037Y-84370589D01*
X157515277Y-83368829D01*
X157506402Y-83392623D01*
X157506401Y-83392627D01*
X157500000Y-83452155D01*
X115000500Y-83452155D01*
X115000500Y-80124500D01*
X115020185Y-80057461D01*
X115072989Y-80011706D01*
X115124500Y-80000500D01*
X184875500Y-80000500D01*
X184942539Y-80020185D01*
G37*
%TD.AperFunction*%
%TD*%
M02*
