%TF.GenerationSoftware,KiCad,Pcbnew,9.0.0-rc3-13-g9b184afb43*%
%TF.CreationDate,2025-02-16T14:58:27-08:00*%
%TF.ProjectId,Carrier_Board,43617272-6965-4725-9f42-6f6172642e6b,rev?*%
%TF.SameCoordinates,Original*%
%TF.FileFunction,Legend,Bot*%
%TF.FilePolarity,Positive*%
%FSLAX46Y46*%
G04 Gerber Fmt 4.6, Leading zero omitted, Abs format (unit mm)*
G04 Created by KiCad (PCBNEW 9.0.0-rc3-13-g9b184afb43) date 2025-02-16 14:58:27*
%MOMM*%
%LPD*%
G01*
G04 APERTURE LIST*
%ADD10C,0.100000*%
%ADD11C,0.180000*%
%ADD12C,0.200000*%
G04 APERTURE END LIST*
D10*
X139250000Y-96381250D02*
X142250000Y-96381250D01*
X142250000Y-101143750D01*
X139250000Y-101143750D01*
X139250000Y-96381250D01*
G36*
X139250000Y-96381250D02*
G01*
X142250000Y-96381250D01*
X142250000Y-101143750D01*
X139250000Y-101143750D01*
X139250000Y-96381250D01*
G37*
X134250000Y-84525000D02*
X137250000Y-84525000D01*
X137250000Y-105000000D01*
X134250000Y-105000000D01*
X134250000Y-84525000D01*
G36*
X134250000Y-84525000D02*
G01*
X137250000Y-84525000D01*
X137250000Y-105000000D01*
X134250000Y-105000000D01*
X134250000Y-84525000D01*
G37*
D11*
X140572074Y-102415507D02*
X140572074Y-101844079D01*
X140229217Y-102529793D02*
X141429217Y-102129793D01*
X141429217Y-102129793D02*
X140229217Y-101729793D01*
G36*
X136579550Y-107376340D02*
G01*
X134932884Y-107376340D01*
X134932884Y-106695864D01*
X135066217Y-106695864D01*
X135066217Y-106981579D01*
X135067091Y-106990462D01*
X135066923Y-106992836D01*
X135067632Y-106995956D01*
X135067946Y-106999137D01*
X135068855Y-107001332D01*
X135070836Y-107010040D01*
X135127979Y-107181468D01*
X135135171Y-107197578D01*
X135158180Y-107224106D01*
X135189589Y-107239811D01*
X135224617Y-107242300D01*
X135257931Y-107231196D01*
X135284459Y-107208187D01*
X135300164Y-107176778D01*
X135302654Y-107141750D01*
X135298741Y-107124546D01*
X135246217Y-106966974D01*
X135246217Y-106717110D01*
X135287326Y-106634891D01*
X135323815Y-106598401D01*
X135406034Y-106557293D01*
X135477829Y-106557293D01*
X135560048Y-106598403D01*
X135596534Y-106634890D01*
X135642728Y-106727276D01*
X135697475Y-106946265D01*
X135697938Y-106947560D01*
X135697984Y-106948208D01*
X135700774Y-106955498D01*
X135703411Y-106962879D01*
X135703798Y-106963402D01*
X135704290Y-106964686D01*
X135761433Y-107078971D01*
X135766189Y-107086526D01*
X135767099Y-107088723D01*
X135769128Y-107091196D01*
X135770832Y-107093902D01*
X135772625Y-107095457D01*
X135778291Y-107102361D01*
X135835434Y-107159503D01*
X135842336Y-107165167D01*
X135843894Y-107166964D01*
X135846600Y-107168667D01*
X135849072Y-107170696D01*
X135851268Y-107171605D01*
X135858825Y-107176362D01*
X135973111Y-107233506D01*
X135989589Y-107239811D01*
X135992813Y-107240040D01*
X135995802Y-107241278D01*
X136013360Y-107243007D01*
X136127645Y-107243007D01*
X136145203Y-107241278D01*
X136148191Y-107240040D01*
X136151417Y-107239811D01*
X136167894Y-107233505D01*
X136282181Y-107176362D01*
X136289739Y-107171604D01*
X136291933Y-107170696D01*
X136294402Y-107168669D01*
X136297112Y-107166964D01*
X136298670Y-107165166D01*
X136305571Y-107159504D01*
X136362713Y-107102361D01*
X136368375Y-107095461D01*
X136370174Y-107093902D01*
X136371880Y-107091191D01*
X136373906Y-107088723D01*
X136374814Y-107086529D01*
X136379572Y-107078971D01*
X136436715Y-106964685D01*
X136443021Y-106948208D01*
X136443250Y-106944982D01*
X136444488Y-106941994D01*
X136446217Y-106924436D01*
X136446217Y-106638721D01*
X136445342Y-106629837D01*
X136445511Y-106627464D01*
X136444801Y-106624343D01*
X136444488Y-106621163D01*
X136443578Y-106618967D01*
X136441598Y-106610260D01*
X136384455Y-106438832D01*
X136377263Y-106422722D01*
X136354254Y-106396194D01*
X136322845Y-106380489D01*
X136287817Y-106377999D01*
X136254503Y-106389104D01*
X136227975Y-106412113D01*
X136212270Y-106443522D01*
X136209780Y-106478550D01*
X136213693Y-106495754D01*
X136266217Y-106653325D01*
X136266217Y-106903189D01*
X136225107Y-106985408D01*
X136188618Y-107021897D01*
X136106400Y-107063007D01*
X136034606Y-107063007D01*
X135952387Y-107021898D01*
X135915896Y-106985406D01*
X135869705Y-106893024D01*
X135814958Y-106674036D01*
X135814495Y-106672740D01*
X135814449Y-106672092D01*
X135811658Y-106664801D01*
X135809022Y-106657421D01*
X135808633Y-106656896D01*
X135808143Y-106655615D01*
X135751000Y-106541329D01*
X135746244Y-106533773D01*
X135745335Y-106531578D01*
X135743307Y-106529107D01*
X135741602Y-106526398D01*
X135739803Y-106524838D01*
X135734142Y-106517940D01*
X135677000Y-106460797D01*
X135670100Y-106455134D01*
X135668541Y-106453336D01*
X135665830Y-106451629D01*
X135663362Y-106449604D01*
X135661168Y-106448695D01*
X135653610Y-106443938D01*
X135539323Y-106386795D01*
X135522846Y-106380489D01*
X135519620Y-106380259D01*
X135516632Y-106379022D01*
X135499074Y-106377293D01*
X135384788Y-106377293D01*
X135367230Y-106379022D01*
X135364241Y-106380259D01*
X135361017Y-106380489D01*
X135344539Y-106386794D01*
X135230253Y-106443938D01*
X135222696Y-106448694D01*
X135220500Y-106449604D01*
X135218028Y-106451632D01*
X135215322Y-106453336D01*
X135213764Y-106455132D01*
X135206862Y-106460797D01*
X135149720Y-106517940D01*
X135144056Y-106524841D01*
X135142261Y-106526398D01*
X135140557Y-106529103D01*
X135138527Y-106531578D01*
X135137616Y-106533775D01*
X135132862Y-106541329D01*
X135075719Y-106655614D01*
X135069413Y-106672092D01*
X135069183Y-106675317D01*
X135067946Y-106678306D01*
X135066217Y-106695864D01*
X134932884Y-106695864D01*
X134932884Y-105273579D01*
X135066437Y-105273579D01*
X135067946Y-105279111D01*
X135067946Y-105284851D01*
X135072528Y-105295913D01*
X135075677Y-105307458D01*
X135079189Y-105311993D01*
X135081385Y-105317294D01*
X135089848Y-105325757D01*
X135097178Y-105335222D01*
X135104536Y-105340445D01*
X135106216Y-105342125D01*
X135107863Y-105342807D01*
X135111565Y-105345435D01*
X136017316Y-105863007D01*
X135156217Y-105863007D01*
X135138659Y-105864736D01*
X135106216Y-105878175D01*
X135081385Y-105903006D01*
X135067946Y-105935449D01*
X135067946Y-105970565D01*
X135081385Y-106003008D01*
X135106216Y-106027839D01*
X135138659Y-106041278D01*
X135156217Y-106043007D01*
X136356217Y-106043007D01*
X136360734Y-106042562D01*
X136362503Y-106042787D01*
X136364792Y-106042162D01*
X136373775Y-106041278D01*
X136384837Y-106036695D01*
X136396382Y-106033547D01*
X136400917Y-106030034D01*
X136406218Y-106027839D01*
X136414681Y-106019375D01*
X136424146Y-106012046D01*
X136426992Y-106007064D01*
X136431049Y-106003008D01*
X136435628Y-105991951D01*
X136441569Y-105981557D01*
X136442292Y-105975865D01*
X136444488Y-105970565D01*
X136444488Y-105958592D01*
X136445997Y-105946721D01*
X136444488Y-105941188D01*
X136444488Y-105935449D01*
X136439905Y-105924386D01*
X136436757Y-105912842D01*
X136433244Y-105908306D01*
X136431049Y-105903006D01*
X136422587Y-105894544D01*
X136415256Y-105885077D01*
X136407895Y-105879852D01*
X136406218Y-105878175D01*
X136404571Y-105877492D01*
X136400869Y-105874865D01*
X135495118Y-105357293D01*
X136356217Y-105357293D01*
X136373775Y-105355564D01*
X136406218Y-105342125D01*
X136431049Y-105317294D01*
X136444488Y-105284851D01*
X136444488Y-105249735D01*
X136431049Y-105217292D01*
X136406218Y-105192461D01*
X136373775Y-105179022D01*
X136356217Y-105177293D01*
X135156217Y-105177293D01*
X135151699Y-105177737D01*
X135149931Y-105177513D01*
X135147641Y-105178137D01*
X135138659Y-105179022D01*
X135127596Y-105183604D01*
X135116052Y-105186753D01*
X135111516Y-105190265D01*
X135106216Y-105192461D01*
X135097752Y-105200924D01*
X135088288Y-105208254D01*
X135085441Y-105213235D01*
X135081385Y-105217292D01*
X135076805Y-105228348D01*
X135070865Y-105238743D01*
X135070141Y-105244434D01*
X135067946Y-105249735D01*
X135067946Y-105261707D01*
X135066437Y-105273579D01*
X134932884Y-105273579D01*
X134932884Y-105043960D01*
X136579550Y-105043960D01*
X136579550Y-107376340D01*
G37*
G36*
X141236618Y-106803759D02*
G01*
X141273107Y-106840248D01*
X141314217Y-106922467D01*
X141314217Y-107268364D01*
X140865645Y-107268364D01*
X140865645Y-106922467D01*
X140906753Y-106840250D01*
X140943244Y-106803758D01*
X141025463Y-106762650D01*
X141154400Y-106762650D01*
X141236618Y-106803759D01*
G37*
G36*
X141627550Y-107581697D02*
G01*
X139980884Y-107581697D01*
X139980884Y-106670699D01*
X140114239Y-106670699D01*
X140120341Y-106705281D01*
X140139213Y-106734896D01*
X140152605Y-106746381D01*
X140685645Y-107119509D01*
X140685645Y-107268364D01*
X140204217Y-107268364D01*
X140186659Y-107270093D01*
X140154216Y-107283532D01*
X140129385Y-107308363D01*
X140115946Y-107340806D01*
X140115946Y-107375922D01*
X140129385Y-107408365D01*
X140154216Y-107433196D01*
X140186659Y-107446635D01*
X140204217Y-107448364D01*
X141404217Y-107448364D01*
X141421775Y-107446635D01*
X141454218Y-107433196D01*
X141479049Y-107408365D01*
X141492488Y-107375922D01*
X141494217Y-107358364D01*
X141494217Y-106901221D01*
X141492488Y-106883663D01*
X141491250Y-106880674D01*
X141491021Y-106877449D01*
X141484715Y-106860972D01*
X141427572Y-106746686D01*
X141422814Y-106739127D01*
X141421906Y-106736934D01*
X141419880Y-106734465D01*
X141418174Y-106731755D01*
X141416375Y-106730195D01*
X141410713Y-106723296D01*
X141353571Y-106666153D01*
X141346670Y-106660490D01*
X141345112Y-106658693D01*
X141342402Y-106656987D01*
X141339933Y-106654961D01*
X141337739Y-106654052D01*
X141330181Y-106649295D01*
X141215894Y-106592152D01*
X141199417Y-106585846D01*
X141196191Y-106585616D01*
X141193203Y-106584379D01*
X141175645Y-106582650D01*
X141004217Y-106582650D01*
X140986659Y-106584379D01*
X140983670Y-106585616D01*
X140980446Y-106585846D01*
X140963968Y-106592151D01*
X140849682Y-106649295D01*
X140842125Y-106654051D01*
X140839929Y-106654961D01*
X140837457Y-106656989D01*
X140834751Y-106658693D01*
X140833193Y-106660489D01*
X140826291Y-106666154D01*
X140769148Y-106723296D01*
X140763482Y-106730199D01*
X140761689Y-106731755D01*
X140759985Y-106734460D01*
X140757956Y-106736934D01*
X140757046Y-106739130D01*
X140752290Y-106746686D01*
X140695147Y-106860971D01*
X140688841Y-106877449D01*
X140688611Y-106880674D01*
X140687374Y-106883663D01*
X140685776Y-106899882D01*
X140255829Y-106598919D01*
X140240453Y-106590267D01*
X140206168Y-106582672D01*
X140171586Y-106588774D01*
X140141971Y-106607646D01*
X140121834Y-106636414D01*
X140114239Y-106670699D01*
X139980884Y-106670699D01*
X139980884Y-105586936D01*
X140114217Y-105586936D01*
X140114217Y-106158364D01*
X140115946Y-106175922D01*
X140129385Y-106208365D01*
X140154216Y-106233196D01*
X140186659Y-106246635D01*
X140204217Y-106248364D01*
X141404217Y-106248364D01*
X141421775Y-106246635D01*
X141454218Y-106233196D01*
X141479049Y-106208365D01*
X141492488Y-106175922D01*
X141494217Y-106158364D01*
X141494217Y-105586936D01*
X141492488Y-105569378D01*
X141479049Y-105536935D01*
X141454218Y-105512104D01*
X141421775Y-105498665D01*
X141386659Y-105498665D01*
X141354216Y-105512104D01*
X141329385Y-105536935D01*
X141315946Y-105569378D01*
X141314217Y-105586936D01*
X141314217Y-106068364D01*
X140922788Y-106068364D01*
X140922788Y-105758364D01*
X140921059Y-105740806D01*
X140907620Y-105708363D01*
X140882789Y-105683532D01*
X140850346Y-105670093D01*
X140815230Y-105670093D01*
X140782787Y-105683532D01*
X140757956Y-105708363D01*
X140744517Y-105740806D01*
X140742788Y-105758364D01*
X140742788Y-106068364D01*
X140294217Y-106068364D01*
X140294217Y-105586936D01*
X140292488Y-105569378D01*
X140279049Y-105536935D01*
X140254218Y-105512104D01*
X140221775Y-105498665D01*
X140186659Y-105498665D01*
X140154216Y-105512104D01*
X140129385Y-105536935D01*
X140115946Y-105569378D01*
X140114217Y-105586936D01*
X139980884Y-105586936D01*
X139980884Y-104832822D01*
X140114923Y-104832822D01*
X140115723Y-104844079D01*
X140114923Y-104855336D01*
X140116957Y-104861438D01*
X140117413Y-104867850D01*
X140122457Y-104877938D01*
X140126028Y-104888650D01*
X140130243Y-104893510D01*
X140133118Y-104899259D01*
X140141642Y-104906653D01*
X140149037Y-104915178D01*
X140154785Y-104918052D01*
X140159646Y-104922268D01*
X140175757Y-104929460D01*
X141375756Y-105329460D01*
X141392960Y-105333373D01*
X141427988Y-105330883D01*
X141459397Y-105315178D01*
X141482406Y-105288650D01*
X141493510Y-105255336D01*
X141491021Y-105220308D01*
X141475316Y-105188899D01*
X141448788Y-105165890D01*
X141432677Y-105158697D01*
X140488820Y-104844079D01*
X141432677Y-104529461D01*
X141448788Y-104522268D01*
X141475316Y-104499259D01*
X141491021Y-104467850D01*
X141493510Y-104432822D01*
X141482406Y-104399508D01*
X141459397Y-104372980D01*
X141427988Y-104357275D01*
X141392960Y-104354785D01*
X141375756Y-104358698D01*
X140175757Y-104758698D01*
X140159646Y-104765890D01*
X140154785Y-104770105D01*
X140149037Y-104772980D01*
X140141642Y-104781504D01*
X140133118Y-104788899D01*
X140130243Y-104794647D01*
X140126028Y-104799508D01*
X140122457Y-104810219D01*
X140117413Y-104820308D01*
X140116957Y-104826719D01*
X140114923Y-104832822D01*
X139980884Y-104832822D01*
X139980884Y-104221452D01*
X141627550Y-104221452D01*
X141627550Y-107581697D01*
G37*
D12*
X180511279Y-93391112D02*
X180511279Y-91891112D01*
X180511279Y-91891112D02*
X180011279Y-92962541D01*
X180011279Y-92962541D02*
X179511279Y-91891112D01*
X179511279Y-91891112D02*
X179511279Y-93391112D01*
X178796993Y-93391112D02*
X178796993Y-91891112D01*
X178296992Y-91891112D02*
X177439850Y-91891112D01*
X177868421Y-93391112D02*
X177868421Y-91891112D01*
X177011278Y-93319684D02*
X176796993Y-93391112D01*
X176796993Y-93391112D02*
X176439850Y-93391112D01*
X176439850Y-93391112D02*
X176296993Y-93319684D01*
X176296993Y-93319684D02*
X176225564Y-93248255D01*
X176225564Y-93248255D02*
X176154135Y-93105398D01*
X176154135Y-93105398D02*
X176154135Y-92962541D01*
X176154135Y-92962541D02*
X176225564Y-92819684D01*
X176225564Y-92819684D02*
X176296993Y-92748255D01*
X176296993Y-92748255D02*
X176439850Y-92676826D01*
X176439850Y-92676826D02*
X176725564Y-92605398D01*
X176725564Y-92605398D02*
X176868421Y-92533969D01*
X176868421Y-92533969D02*
X176939850Y-92462541D01*
X176939850Y-92462541D02*
X177011278Y-92319684D01*
X177011278Y-92319684D02*
X177011278Y-92176826D01*
X177011278Y-92176826D02*
X176939850Y-92033969D01*
X176939850Y-92033969D02*
X176868421Y-91962541D01*
X176868421Y-91962541D02*
X176725564Y-91891112D01*
X176725564Y-91891112D02*
X176368421Y-91891112D01*
X176368421Y-91891112D02*
X176154135Y-91962541D01*
X175511279Y-91891112D02*
X175511279Y-93105398D01*
X175511279Y-93105398D02*
X175439850Y-93248255D01*
X175439850Y-93248255D02*
X175368422Y-93319684D01*
X175368422Y-93319684D02*
X175225564Y-93391112D01*
X175225564Y-93391112D02*
X174939850Y-93391112D01*
X174939850Y-93391112D02*
X174796993Y-93319684D01*
X174796993Y-93319684D02*
X174725564Y-93248255D01*
X174725564Y-93248255D02*
X174654136Y-93105398D01*
X174654136Y-93105398D02*
X174654136Y-91891112D01*
X173439850Y-92605398D02*
X173225564Y-92676826D01*
X173225564Y-92676826D02*
X173154135Y-92748255D01*
X173154135Y-92748255D02*
X173082707Y-92891112D01*
X173082707Y-92891112D02*
X173082707Y-93105398D01*
X173082707Y-93105398D02*
X173154135Y-93248255D01*
X173154135Y-93248255D02*
X173225564Y-93319684D01*
X173225564Y-93319684D02*
X173368421Y-93391112D01*
X173368421Y-93391112D02*
X173939850Y-93391112D01*
X173939850Y-93391112D02*
X173939850Y-91891112D01*
X173939850Y-91891112D02*
X173439850Y-91891112D01*
X173439850Y-91891112D02*
X173296993Y-91962541D01*
X173296993Y-91962541D02*
X173225564Y-92033969D01*
X173225564Y-92033969D02*
X173154135Y-92176826D01*
X173154135Y-92176826D02*
X173154135Y-92319684D01*
X173154135Y-92319684D02*
X173225564Y-92462541D01*
X173225564Y-92462541D02*
X173296993Y-92533969D01*
X173296993Y-92533969D02*
X173439850Y-92605398D01*
X173439850Y-92605398D02*
X173939850Y-92605398D01*
X172439850Y-93391112D02*
X172439850Y-91891112D01*
X171796992Y-93319684D02*
X171582707Y-93391112D01*
X171582707Y-93391112D02*
X171225564Y-93391112D01*
X171225564Y-93391112D02*
X171082707Y-93319684D01*
X171082707Y-93319684D02*
X171011278Y-93248255D01*
X171011278Y-93248255D02*
X170939849Y-93105398D01*
X170939849Y-93105398D02*
X170939849Y-92962541D01*
X170939849Y-92962541D02*
X171011278Y-92819684D01*
X171011278Y-92819684D02*
X171082707Y-92748255D01*
X171082707Y-92748255D02*
X171225564Y-92676826D01*
X171225564Y-92676826D02*
X171511278Y-92605398D01*
X171511278Y-92605398D02*
X171654135Y-92533969D01*
X171654135Y-92533969D02*
X171725564Y-92462541D01*
X171725564Y-92462541D02*
X171796992Y-92319684D01*
X171796992Y-92319684D02*
X171796992Y-92176826D01*
X171796992Y-92176826D02*
X171725564Y-92033969D01*
X171725564Y-92033969D02*
X171654135Y-91962541D01*
X171654135Y-91962541D02*
X171511278Y-91891112D01*
X171511278Y-91891112D02*
X171154135Y-91891112D01*
X171154135Y-91891112D02*
X170939849Y-91962541D01*
X170296993Y-93391112D02*
X170296993Y-91891112D01*
X170296993Y-92605398D02*
X169439850Y-92605398D01*
X169439850Y-93391112D02*
X169439850Y-91891112D01*
X168725564Y-93391112D02*
X168725564Y-91891112D01*
X179654136Y-95663171D02*
X179725564Y-95734600D01*
X179725564Y-95734600D02*
X179939850Y-95806028D01*
X179939850Y-95806028D02*
X180082707Y-95806028D01*
X180082707Y-95806028D02*
X180296993Y-95734600D01*
X180296993Y-95734600D02*
X180439850Y-95591742D01*
X180439850Y-95591742D02*
X180511279Y-95448885D01*
X180511279Y-95448885D02*
X180582707Y-95163171D01*
X180582707Y-95163171D02*
X180582707Y-94948885D01*
X180582707Y-94948885D02*
X180511279Y-94663171D01*
X180511279Y-94663171D02*
X180439850Y-94520314D01*
X180439850Y-94520314D02*
X180296993Y-94377457D01*
X180296993Y-94377457D02*
X180082707Y-94306028D01*
X180082707Y-94306028D02*
X179939850Y-94306028D01*
X179939850Y-94306028D02*
X179725564Y-94377457D01*
X179725564Y-94377457D02*
X179654136Y-94448885D01*
X179011279Y-95806028D02*
X179011279Y-94306028D01*
X179011279Y-94306028D02*
X178154136Y-95806028D01*
X178154136Y-95806028D02*
X178154136Y-94306028D01*
X176654135Y-95806028D02*
X177511278Y-95806028D01*
X177082707Y-95806028D02*
X177082707Y-94306028D01*
X177082707Y-94306028D02*
X177225564Y-94520314D01*
X177225564Y-94520314D02*
X177368421Y-94663171D01*
X177368421Y-94663171D02*
X177511278Y-94734600D01*
X175725564Y-94306028D02*
X175582707Y-94306028D01*
X175582707Y-94306028D02*
X175439850Y-94377457D01*
X175439850Y-94377457D02*
X175368422Y-94448885D01*
X175368422Y-94448885D02*
X175296993Y-94591742D01*
X175296993Y-94591742D02*
X175225564Y-94877457D01*
X175225564Y-94877457D02*
X175225564Y-95234600D01*
X175225564Y-95234600D02*
X175296993Y-95520314D01*
X175296993Y-95520314D02*
X175368422Y-95663171D01*
X175368422Y-95663171D02*
X175439850Y-95734600D01*
X175439850Y-95734600D02*
X175582707Y-95806028D01*
X175582707Y-95806028D02*
X175725564Y-95806028D01*
X175725564Y-95806028D02*
X175868422Y-95734600D01*
X175868422Y-95734600D02*
X175939850Y-95663171D01*
X175939850Y-95663171D02*
X176011279Y-95520314D01*
X176011279Y-95520314D02*
X176082707Y-95234600D01*
X176082707Y-95234600D02*
X176082707Y-94877457D01*
X176082707Y-94877457D02*
X176011279Y-94591742D01*
X176011279Y-94591742D02*
X175939850Y-94448885D01*
X175939850Y-94448885D02*
X175868422Y-94377457D01*
X175868422Y-94377457D02*
X175725564Y-94306028D01*
X173868422Y-94306028D02*
X174582708Y-94306028D01*
X174582708Y-94306028D02*
X174654136Y-95020314D01*
X174654136Y-95020314D02*
X174582708Y-94948885D01*
X174582708Y-94948885D02*
X174439851Y-94877457D01*
X174439851Y-94877457D02*
X174082708Y-94877457D01*
X174082708Y-94877457D02*
X173939851Y-94948885D01*
X173939851Y-94948885D02*
X173868422Y-95020314D01*
X173868422Y-95020314D02*
X173796993Y-95163171D01*
X173796993Y-95163171D02*
X173796993Y-95520314D01*
X173796993Y-95520314D02*
X173868422Y-95663171D01*
X173868422Y-95663171D02*
X173939851Y-95734600D01*
X173939851Y-95734600D02*
X174082708Y-95806028D01*
X174082708Y-95806028D02*
X174439851Y-95806028D01*
X174439851Y-95806028D02*
X174582708Y-95734600D01*
X174582708Y-95734600D02*
X174654136Y-95663171D01*
X172011280Y-95806028D02*
X172011280Y-94306028D01*
X171296994Y-95806028D02*
X171296994Y-94306028D01*
X171296994Y-94306028D02*
X170439851Y-95806028D01*
X170439851Y-95806028D02*
X170439851Y-94306028D01*
X169939850Y-94306028D02*
X169082708Y-94306028D01*
X169511279Y-95806028D02*
X169511279Y-94306028D01*
X168582708Y-95020314D02*
X168082708Y-95020314D01*
X167868422Y-95806028D02*
X168582708Y-95806028D01*
X168582708Y-95806028D02*
X168582708Y-94306028D01*
X168582708Y-94306028D02*
X167868422Y-94306028D01*
X166368422Y-95806028D02*
X166868422Y-95091742D01*
X167225565Y-95806028D02*
X167225565Y-94306028D01*
X167225565Y-94306028D02*
X166654136Y-94306028D01*
X166654136Y-94306028D02*
X166511279Y-94377457D01*
X166511279Y-94377457D02*
X166439850Y-94448885D01*
X166439850Y-94448885D02*
X166368422Y-94591742D01*
X166368422Y-94591742D02*
X166368422Y-94806028D01*
X166368422Y-94806028D02*
X166439850Y-94948885D01*
X166439850Y-94948885D02*
X166511279Y-95020314D01*
X166511279Y-95020314D02*
X166654136Y-95091742D01*
X166654136Y-95091742D02*
X167225565Y-95091742D01*
X165225565Y-95020314D02*
X165725565Y-95020314D01*
X165725565Y-95806028D02*
X165725565Y-94306028D01*
X165725565Y-94306028D02*
X165011279Y-94306028D01*
X164511279Y-95377457D02*
X163796994Y-95377457D01*
X164654136Y-95806028D02*
X164154136Y-94306028D01*
X164154136Y-94306028D02*
X163654136Y-95806028D01*
X162296994Y-95663171D02*
X162368422Y-95734600D01*
X162368422Y-95734600D02*
X162582708Y-95806028D01*
X162582708Y-95806028D02*
X162725565Y-95806028D01*
X162725565Y-95806028D02*
X162939851Y-95734600D01*
X162939851Y-95734600D02*
X163082708Y-95591742D01*
X163082708Y-95591742D02*
X163154137Y-95448885D01*
X163154137Y-95448885D02*
X163225565Y-95163171D01*
X163225565Y-95163171D02*
X163225565Y-94948885D01*
X163225565Y-94948885D02*
X163154137Y-94663171D01*
X163154137Y-94663171D02*
X163082708Y-94520314D01*
X163082708Y-94520314D02*
X162939851Y-94377457D01*
X162939851Y-94377457D02*
X162725565Y-94306028D01*
X162725565Y-94306028D02*
X162582708Y-94306028D01*
X162582708Y-94306028D02*
X162368422Y-94377457D01*
X162368422Y-94377457D02*
X162296994Y-94448885D01*
X161654137Y-95020314D02*
X161154137Y-95020314D01*
X160939851Y-95806028D02*
X161654137Y-95806028D01*
X161654137Y-95806028D02*
X161654137Y-94306028D01*
X161654137Y-94306028D02*
X160939851Y-94306028D01*
X159154137Y-95806028D02*
X159154137Y-94306028D01*
X159154137Y-94306028D02*
X158654137Y-95377457D01*
X158654137Y-95377457D02*
X158154137Y-94306028D01*
X158154137Y-94306028D02*
X158154137Y-95806028D01*
X157154136Y-94306028D02*
X156868422Y-94306028D01*
X156868422Y-94306028D02*
X156725565Y-94377457D01*
X156725565Y-94377457D02*
X156582708Y-94520314D01*
X156582708Y-94520314D02*
X156511279Y-94806028D01*
X156511279Y-94806028D02*
X156511279Y-95306028D01*
X156511279Y-95306028D02*
X156582708Y-95591742D01*
X156582708Y-95591742D02*
X156725565Y-95734600D01*
X156725565Y-95734600D02*
X156868422Y-95806028D01*
X156868422Y-95806028D02*
X157154136Y-95806028D01*
X157154136Y-95806028D02*
X157296994Y-95734600D01*
X157296994Y-95734600D02*
X157439851Y-95591742D01*
X157439851Y-95591742D02*
X157511279Y-95306028D01*
X157511279Y-95306028D02*
X157511279Y-94806028D01*
X157511279Y-94806028D02*
X157439851Y-94520314D01*
X157439851Y-94520314D02*
X157296994Y-94377457D01*
X157296994Y-94377457D02*
X157154136Y-94306028D01*
X155868422Y-95806028D02*
X155868422Y-94306028D01*
X155868422Y-94306028D02*
X155511279Y-94306028D01*
X155511279Y-94306028D02*
X155296993Y-94377457D01*
X155296993Y-94377457D02*
X155154136Y-94520314D01*
X155154136Y-94520314D02*
X155082707Y-94663171D01*
X155082707Y-94663171D02*
X155011279Y-94948885D01*
X155011279Y-94948885D02*
X155011279Y-95163171D01*
X155011279Y-95163171D02*
X155082707Y-95448885D01*
X155082707Y-95448885D02*
X155154136Y-95591742D01*
X155154136Y-95591742D02*
X155296993Y-95734600D01*
X155296993Y-95734600D02*
X155511279Y-95806028D01*
X155511279Y-95806028D02*
X155868422Y-95806028D01*
X154368422Y-94306028D02*
X154368422Y-95520314D01*
X154368422Y-95520314D02*
X154296993Y-95663171D01*
X154296993Y-95663171D02*
X154225565Y-95734600D01*
X154225565Y-95734600D02*
X154082707Y-95806028D01*
X154082707Y-95806028D02*
X153796993Y-95806028D01*
X153796993Y-95806028D02*
X153654136Y-95734600D01*
X153654136Y-95734600D02*
X153582707Y-95663171D01*
X153582707Y-95663171D02*
X153511279Y-95520314D01*
X153511279Y-95520314D02*
X153511279Y-94306028D01*
X152082707Y-95806028D02*
X152796993Y-95806028D01*
X152796993Y-95806028D02*
X152796993Y-94306028D01*
X151582707Y-95020314D02*
X151082707Y-95020314D01*
X150868421Y-95806028D02*
X151582707Y-95806028D01*
X151582707Y-95806028D02*
X151582707Y-94306028D01*
X151582707Y-94306028D02*
X150868421Y-94306028D01*
D11*
X125967293Y-93539931D02*
X126024436Y-93597074D01*
X126024436Y-93597074D02*
X126138722Y-93654217D01*
X126138722Y-93654217D02*
X126424436Y-93654217D01*
X126424436Y-93654217D02*
X126538722Y-93597074D01*
X126538722Y-93597074D02*
X126595864Y-93539931D01*
X126595864Y-93539931D02*
X126653007Y-93425645D01*
X126653007Y-93425645D02*
X126653007Y-93311360D01*
X126653007Y-93311360D02*
X126595864Y-93139931D01*
X126595864Y-93139931D02*
X125910150Y-92454217D01*
X125910150Y-92454217D02*
X126653007Y-92454217D01*
X131532706Y-91057074D02*
X131418421Y-91114217D01*
X131418421Y-91114217D02*
X131246992Y-91114217D01*
X131246992Y-91114217D02*
X131075563Y-91057074D01*
X131075563Y-91057074D02*
X130961278Y-90942788D01*
X130961278Y-90942788D02*
X130904135Y-90828502D01*
X130904135Y-90828502D02*
X130846992Y-90599931D01*
X130846992Y-90599931D02*
X130846992Y-90428502D01*
X130846992Y-90428502D02*
X130904135Y-90199931D01*
X130904135Y-90199931D02*
X130961278Y-90085645D01*
X130961278Y-90085645D02*
X131075563Y-89971360D01*
X131075563Y-89971360D02*
X131246992Y-89914217D01*
X131246992Y-89914217D02*
X131361278Y-89914217D01*
X131361278Y-89914217D02*
X131532706Y-89971360D01*
X131532706Y-89971360D02*
X131589849Y-90028502D01*
X131589849Y-90028502D02*
X131589849Y-90428502D01*
X131589849Y-90428502D02*
X131361278Y-90428502D01*
X132618421Y-91114217D02*
X132389849Y-91114217D01*
X132389849Y-91114217D02*
X132275563Y-91057074D01*
X132275563Y-91057074D02*
X132218421Y-90999931D01*
X132218421Y-90999931D02*
X132104135Y-90828502D01*
X132104135Y-90828502D02*
X132046992Y-90599931D01*
X132046992Y-90599931D02*
X132046992Y-90142788D01*
X132046992Y-90142788D02*
X132104135Y-90028502D01*
X132104135Y-90028502D02*
X132161278Y-89971360D01*
X132161278Y-89971360D02*
X132275563Y-89914217D01*
X132275563Y-89914217D02*
X132504135Y-89914217D01*
X132504135Y-89914217D02*
X132618421Y-89971360D01*
X132618421Y-89971360D02*
X132675563Y-90028502D01*
X132675563Y-90028502D02*
X132732706Y-90142788D01*
X132732706Y-90142788D02*
X132732706Y-90428502D01*
X132732706Y-90428502D02*
X132675563Y-90542788D01*
X132675563Y-90542788D02*
X132618421Y-90599931D01*
X132618421Y-90599931D02*
X132504135Y-90657074D01*
X132504135Y-90657074D02*
X132275563Y-90657074D01*
X132275563Y-90657074D02*
X132161278Y-90599931D01*
X132161278Y-90599931D02*
X132104135Y-90542788D01*
X132104135Y-90542788D02*
X132046992Y-90428502D01*
X131532706Y-85977074D02*
X131418421Y-86034217D01*
X131418421Y-86034217D02*
X131246992Y-86034217D01*
X131246992Y-86034217D02*
X131075563Y-85977074D01*
X131075563Y-85977074D02*
X130961278Y-85862788D01*
X130961278Y-85862788D02*
X130904135Y-85748502D01*
X130904135Y-85748502D02*
X130846992Y-85519931D01*
X130846992Y-85519931D02*
X130846992Y-85348502D01*
X130846992Y-85348502D02*
X130904135Y-85119931D01*
X130904135Y-85119931D02*
X130961278Y-85005645D01*
X130961278Y-85005645D02*
X131075563Y-84891360D01*
X131075563Y-84891360D02*
X131246992Y-84834217D01*
X131246992Y-84834217D02*
X131361278Y-84834217D01*
X131361278Y-84834217D02*
X131532706Y-84891360D01*
X131532706Y-84891360D02*
X131589849Y-84948502D01*
X131589849Y-84948502D02*
X131589849Y-85348502D01*
X131589849Y-85348502D02*
X131361278Y-85348502D01*
X132275563Y-85519931D02*
X132161278Y-85577074D01*
X132161278Y-85577074D02*
X132104135Y-85634217D01*
X132104135Y-85634217D02*
X132046992Y-85748502D01*
X132046992Y-85748502D02*
X132046992Y-85805645D01*
X132046992Y-85805645D02*
X132104135Y-85919931D01*
X132104135Y-85919931D02*
X132161278Y-85977074D01*
X132161278Y-85977074D02*
X132275563Y-86034217D01*
X132275563Y-86034217D02*
X132504135Y-86034217D01*
X132504135Y-86034217D02*
X132618421Y-85977074D01*
X132618421Y-85977074D02*
X132675563Y-85919931D01*
X132675563Y-85919931D02*
X132732706Y-85805645D01*
X132732706Y-85805645D02*
X132732706Y-85748502D01*
X132732706Y-85748502D02*
X132675563Y-85634217D01*
X132675563Y-85634217D02*
X132618421Y-85577074D01*
X132618421Y-85577074D02*
X132504135Y-85519931D01*
X132504135Y-85519931D02*
X132275563Y-85519931D01*
X132275563Y-85519931D02*
X132161278Y-85462788D01*
X132161278Y-85462788D02*
X132104135Y-85405645D01*
X132104135Y-85405645D02*
X132046992Y-85291360D01*
X132046992Y-85291360D02*
X132046992Y-85062788D01*
X132046992Y-85062788D02*
X132104135Y-84948502D01*
X132104135Y-84948502D02*
X132161278Y-84891360D01*
X132161278Y-84891360D02*
X132275563Y-84834217D01*
X132275563Y-84834217D02*
X132504135Y-84834217D01*
X132504135Y-84834217D02*
X132618421Y-84891360D01*
X132618421Y-84891360D02*
X132675563Y-84948502D01*
X132675563Y-84948502D02*
X132732706Y-85062788D01*
X132732706Y-85062788D02*
X132732706Y-85291360D01*
X132732706Y-85291360D02*
X132675563Y-85405645D01*
X132675563Y-85405645D02*
X132618421Y-85462788D01*
X132618421Y-85462788D02*
X132504135Y-85519931D01*
X138638721Y-85977074D02*
X138524436Y-86034217D01*
X138524436Y-86034217D02*
X138353007Y-86034217D01*
X138353007Y-86034217D02*
X138181578Y-85977074D01*
X138181578Y-85977074D02*
X138067293Y-85862788D01*
X138067293Y-85862788D02*
X138010150Y-85748502D01*
X138010150Y-85748502D02*
X137953007Y-85519931D01*
X137953007Y-85519931D02*
X137953007Y-85348502D01*
X137953007Y-85348502D02*
X138010150Y-85119931D01*
X138010150Y-85119931D02*
X138067293Y-85005645D01*
X138067293Y-85005645D02*
X138181578Y-84891360D01*
X138181578Y-84891360D02*
X138353007Y-84834217D01*
X138353007Y-84834217D02*
X138467293Y-84834217D01*
X138467293Y-84834217D02*
X138638721Y-84891360D01*
X138638721Y-84891360D02*
X138695864Y-84948502D01*
X138695864Y-84948502D02*
X138695864Y-85348502D01*
X138695864Y-85348502D02*
X138467293Y-85348502D01*
X139210150Y-84834217D02*
X139210150Y-86034217D01*
X139210150Y-86034217D02*
X139895864Y-84834217D01*
X139895864Y-84834217D02*
X139895864Y-86034217D01*
X140467293Y-84834217D02*
X140467293Y-86034217D01*
X140467293Y-86034217D02*
X140753007Y-86034217D01*
X140753007Y-86034217D02*
X140924436Y-85977074D01*
X140924436Y-85977074D02*
X141038721Y-85862788D01*
X141038721Y-85862788D02*
X141095864Y-85748502D01*
X141095864Y-85748502D02*
X141153007Y-85519931D01*
X141153007Y-85519931D02*
X141153007Y-85348502D01*
X141153007Y-85348502D02*
X141095864Y-85119931D01*
X141095864Y-85119931D02*
X141038721Y-85005645D01*
X141038721Y-85005645D02*
X140924436Y-84891360D01*
X140924436Y-84891360D02*
X140753007Y-84834217D01*
X140753007Y-84834217D02*
X140467293Y-84834217D01*
X138810150Y-91057074D02*
X138695865Y-91114217D01*
X138695865Y-91114217D02*
X138524436Y-91114217D01*
X138524436Y-91114217D02*
X138353007Y-91057074D01*
X138353007Y-91057074D02*
X138238722Y-90942788D01*
X138238722Y-90942788D02*
X138181579Y-90828502D01*
X138181579Y-90828502D02*
X138124436Y-90599931D01*
X138124436Y-90599931D02*
X138124436Y-90428502D01*
X138124436Y-90428502D02*
X138181579Y-90199931D01*
X138181579Y-90199931D02*
X138238722Y-90085645D01*
X138238722Y-90085645D02*
X138353007Y-89971360D01*
X138353007Y-89971360D02*
X138524436Y-89914217D01*
X138524436Y-89914217D02*
X138638722Y-89914217D01*
X138638722Y-89914217D02*
X138810150Y-89971360D01*
X138810150Y-89971360D02*
X138867293Y-90028502D01*
X138867293Y-90028502D02*
X138867293Y-90428502D01*
X138867293Y-90428502D02*
X138638722Y-90428502D01*
X139267293Y-91114217D02*
X140010150Y-91114217D01*
X140010150Y-91114217D02*
X139610150Y-90657074D01*
X139610150Y-90657074D02*
X139781579Y-90657074D01*
X139781579Y-90657074D02*
X139895865Y-90599931D01*
X139895865Y-90599931D02*
X139953007Y-90542788D01*
X139953007Y-90542788D02*
X140010150Y-90428502D01*
X140010150Y-90428502D02*
X140010150Y-90142788D01*
X140010150Y-90142788D02*
X139953007Y-90028502D01*
X139953007Y-90028502D02*
X139895865Y-89971360D01*
X139895865Y-89971360D02*
X139781579Y-89914217D01*
X139781579Y-89914217D02*
X139438722Y-89914217D01*
X139438722Y-89914217D02*
X139324436Y-89971360D01*
X139324436Y-89971360D02*
X139267293Y-90028502D01*
X140695864Y-90599931D02*
X140581579Y-90657074D01*
X140581579Y-90657074D02*
X140524436Y-90714217D01*
X140524436Y-90714217D02*
X140467293Y-90828502D01*
X140467293Y-90828502D02*
X140467293Y-90885645D01*
X140467293Y-90885645D02*
X140524436Y-90999931D01*
X140524436Y-90999931D02*
X140581579Y-91057074D01*
X140581579Y-91057074D02*
X140695864Y-91114217D01*
X140695864Y-91114217D02*
X140924436Y-91114217D01*
X140924436Y-91114217D02*
X141038722Y-91057074D01*
X141038722Y-91057074D02*
X141095864Y-90999931D01*
X141095864Y-90999931D02*
X141153007Y-90885645D01*
X141153007Y-90885645D02*
X141153007Y-90828502D01*
X141153007Y-90828502D02*
X141095864Y-90714217D01*
X141095864Y-90714217D02*
X141038722Y-90657074D01*
X141038722Y-90657074D02*
X140924436Y-90599931D01*
X140924436Y-90599931D02*
X140695864Y-90599931D01*
X140695864Y-90599931D02*
X140581579Y-90542788D01*
X140581579Y-90542788D02*
X140524436Y-90485645D01*
X140524436Y-90485645D02*
X140467293Y-90371360D01*
X140467293Y-90371360D02*
X140467293Y-90142788D01*
X140467293Y-90142788D02*
X140524436Y-90028502D01*
X140524436Y-90028502D02*
X140581579Y-89971360D01*
X140581579Y-89971360D02*
X140695864Y-89914217D01*
X140695864Y-89914217D02*
X140924436Y-89914217D01*
X140924436Y-89914217D02*
X141038722Y-89971360D01*
X141038722Y-89971360D02*
X141095864Y-90028502D01*
X141095864Y-90028502D02*
X141153007Y-90142788D01*
X141153007Y-90142788D02*
X141153007Y-90371360D01*
X141153007Y-90371360D02*
X141095864Y-90485645D01*
X141095864Y-90485645D02*
X141038722Y-90542788D01*
X141038722Y-90542788D02*
X140924436Y-90599931D01*
X130789849Y-96194217D02*
X131532706Y-96194217D01*
X131532706Y-96194217D02*
X131132706Y-95737074D01*
X131132706Y-95737074D02*
X131304135Y-95737074D01*
X131304135Y-95737074D02*
X131418421Y-95679931D01*
X131418421Y-95679931D02*
X131475563Y-95622788D01*
X131475563Y-95622788D02*
X131532706Y-95508502D01*
X131532706Y-95508502D02*
X131532706Y-95222788D01*
X131532706Y-95222788D02*
X131475563Y-95108502D01*
X131475563Y-95108502D02*
X131418421Y-95051360D01*
X131418421Y-95051360D02*
X131304135Y-94994217D01*
X131304135Y-94994217D02*
X130961278Y-94994217D01*
X130961278Y-94994217D02*
X130846992Y-95051360D01*
X130846992Y-95051360D02*
X130789849Y-95108502D01*
X131875563Y-96194217D02*
X132275563Y-94994217D01*
X132275563Y-94994217D02*
X132675563Y-96194217D01*
X132961277Y-96194217D02*
X133704134Y-96194217D01*
X133704134Y-96194217D02*
X133304134Y-95737074D01*
X133304134Y-95737074D02*
X133475563Y-95737074D01*
X133475563Y-95737074D02*
X133589849Y-95679931D01*
X133589849Y-95679931D02*
X133646991Y-95622788D01*
X133646991Y-95622788D02*
X133704134Y-95508502D01*
X133704134Y-95508502D02*
X133704134Y-95222788D01*
X133704134Y-95222788D02*
X133646991Y-95108502D01*
X133646991Y-95108502D02*
X133589849Y-95051360D01*
X133589849Y-95051360D02*
X133475563Y-94994217D01*
X133475563Y-94994217D02*
X133132706Y-94994217D01*
X133132706Y-94994217D02*
X133018420Y-95051360D01*
X133018420Y-95051360D02*
X132961277Y-95108502D01*
X126595864Y-86034217D02*
X126024436Y-86034217D01*
X126024436Y-86034217D02*
X125967293Y-85462788D01*
X125967293Y-85462788D02*
X126024436Y-85519931D01*
X126024436Y-85519931D02*
X126138722Y-85577074D01*
X126138722Y-85577074D02*
X126424436Y-85577074D01*
X126424436Y-85577074D02*
X126538722Y-85519931D01*
X126538722Y-85519931D02*
X126595864Y-85462788D01*
X126595864Y-85462788D02*
X126653007Y-85348502D01*
X126653007Y-85348502D02*
X126653007Y-85062788D01*
X126653007Y-85062788D02*
X126595864Y-84948502D01*
X126595864Y-84948502D02*
X126538722Y-84891360D01*
X126538722Y-84891360D02*
X126424436Y-84834217D01*
X126424436Y-84834217D02*
X126138722Y-84834217D01*
X126138722Y-84834217D02*
X126024436Y-84891360D01*
X126024436Y-84891360D02*
X125967293Y-84948502D01*
X145461278Y-92454217D02*
X145689849Y-92454217D01*
X145689849Y-92454217D02*
X145804135Y-92511360D01*
X145804135Y-92511360D02*
X145861278Y-92568502D01*
X145861278Y-92568502D02*
X145975563Y-92739931D01*
X145975563Y-92739931D02*
X146032706Y-92968502D01*
X146032706Y-92968502D02*
X146032706Y-93425645D01*
X146032706Y-93425645D02*
X145975563Y-93539931D01*
X145975563Y-93539931D02*
X145918421Y-93597074D01*
X145918421Y-93597074D02*
X145804135Y-93654217D01*
X145804135Y-93654217D02*
X145575563Y-93654217D01*
X145575563Y-93654217D02*
X145461278Y-93597074D01*
X145461278Y-93597074D02*
X145404135Y-93539931D01*
X145404135Y-93539931D02*
X145346992Y-93425645D01*
X145346992Y-93425645D02*
X145346992Y-93139931D01*
X145346992Y-93139931D02*
X145404135Y-93025645D01*
X145404135Y-93025645D02*
X145461278Y-92968502D01*
X145461278Y-92968502D02*
X145575563Y-92911360D01*
X145575563Y-92911360D02*
X145804135Y-92911360D01*
X145804135Y-92911360D02*
X145918421Y-92968502D01*
X145918421Y-92968502D02*
X145975563Y-93025645D01*
X145975563Y-93025645D02*
X146032706Y-93139931D01*
X126653007Y-94994217D02*
X125967293Y-94994217D01*
X126310150Y-94994217D02*
X126310150Y-96194217D01*
X126310150Y-96194217D02*
X126195864Y-96022788D01*
X126195864Y-96022788D02*
X126081579Y-95908502D01*
X126081579Y-95908502D02*
X125967293Y-95851360D01*
X131532706Y-93597074D02*
X131418421Y-93654217D01*
X131418421Y-93654217D02*
X131246992Y-93654217D01*
X131246992Y-93654217D02*
X131075563Y-93597074D01*
X131075563Y-93597074D02*
X130961278Y-93482788D01*
X130961278Y-93482788D02*
X130904135Y-93368502D01*
X130904135Y-93368502D02*
X130846992Y-93139931D01*
X130846992Y-93139931D02*
X130846992Y-92968502D01*
X130846992Y-92968502D02*
X130904135Y-92739931D01*
X130904135Y-92739931D02*
X130961278Y-92625645D01*
X130961278Y-92625645D02*
X131075563Y-92511360D01*
X131075563Y-92511360D02*
X131246992Y-92454217D01*
X131246992Y-92454217D02*
X131361278Y-92454217D01*
X131361278Y-92454217D02*
X131532706Y-92511360D01*
X131532706Y-92511360D02*
X131589849Y-92568502D01*
X131589849Y-92568502D02*
X131589849Y-92968502D01*
X131589849Y-92968502D02*
X131361278Y-92968502D01*
X132675563Y-93654217D02*
X132104135Y-93654217D01*
X132104135Y-93654217D02*
X132046992Y-93082788D01*
X132046992Y-93082788D02*
X132104135Y-93139931D01*
X132104135Y-93139931D02*
X132218421Y-93197074D01*
X132218421Y-93197074D02*
X132504135Y-93197074D01*
X132504135Y-93197074D02*
X132618421Y-93139931D01*
X132618421Y-93139931D02*
X132675563Y-93082788D01*
X132675563Y-93082788D02*
X132732706Y-92968502D01*
X132732706Y-92968502D02*
X132732706Y-92682788D01*
X132732706Y-92682788D02*
X132675563Y-92568502D01*
X132675563Y-92568502D02*
X132618421Y-92511360D01*
X132618421Y-92511360D02*
X132504135Y-92454217D01*
X132504135Y-92454217D02*
X132218421Y-92454217D01*
X132218421Y-92454217D02*
X132104135Y-92511360D01*
X132104135Y-92511360D02*
X132046992Y-92568502D01*
X145289849Y-88574217D02*
X146089849Y-88574217D01*
X146089849Y-88574217D02*
X145575563Y-87374217D01*
X125910150Y-91114217D02*
X126653007Y-91114217D01*
X126653007Y-91114217D02*
X126253007Y-90657074D01*
X126253007Y-90657074D02*
X126424436Y-90657074D01*
X126424436Y-90657074D02*
X126538722Y-90599931D01*
X126538722Y-90599931D02*
X126595864Y-90542788D01*
X126595864Y-90542788D02*
X126653007Y-90428502D01*
X126653007Y-90428502D02*
X126653007Y-90142788D01*
X126653007Y-90142788D02*
X126595864Y-90028502D01*
X126595864Y-90028502D02*
X126538722Y-89971360D01*
X126538722Y-89971360D02*
X126424436Y-89914217D01*
X126424436Y-89914217D02*
X126081579Y-89914217D01*
X126081579Y-89914217D02*
X125967293Y-89971360D01*
X125967293Y-89971360D02*
X125910150Y-90028502D01*
X131532706Y-88517074D02*
X131418421Y-88574217D01*
X131418421Y-88574217D02*
X131246992Y-88574217D01*
X131246992Y-88574217D02*
X131075563Y-88517074D01*
X131075563Y-88517074D02*
X130961278Y-88402788D01*
X130961278Y-88402788D02*
X130904135Y-88288502D01*
X130904135Y-88288502D02*
X130846992Y-88059931D01*
X130846992Y-88059931D02*
X130846992Y-87888502D01*
X130846992Y-87888502D02*
X130904135Y-87659931D01*
X130904135Y-87659931D02*
X130961278Y-87545645D01*
X130961278Y-87545645D02*
X131075563Y-87431360D01*
X131075563Y-87431360D02*
X131246992Y-87374217D01*
X131246992Y-87374217D02*
X131361278Y-87374217D01*
X131361278Y-87374217D02*
X131532706Y-87431360D01*
X131532706Y-87431360D02*
X131589849Y-87488502D01*
X131589849Y-87488502D02*
X131589849Y-87888502D01*
X131589849Y-87888502D02*
X131361278Y-87888502D01*
X131989849Y-88574217D02*
X132789849Y-88574217D01*
X132789849Y-88574217D02*
X132275563Y-87374217D01*
X140067293Y-88574217D02*
X139495865Y-88574217D01*
X139495865Y-88574217D02*
X139438722Y-88002788D01*
X139438722Y-88002788D02*
X139495865Y-88059931D01*
X139495865Y-88059931D02*
X139610151Y-88117074D01*
X139610151Y-88117074D02*
X139895865Y-88117074D01*
X139895865Y-88117074D02*
X140010151Y-88059931D01*
X140010151Y-88059931D02*
X140067293Y-88002788D01*
X140067293Y-88002788D02*
X140124436Y-87888502D01*
X140124436Y-87888502D02*
X140124436Y-87602788D01*
X140124436Y-87602788D02*
X140067293Y-87488502D01*
X140067293Y-87488502D02*
X140010151Y-87431360D01*
X140010151Y-87431360D02*
X139895865Y-87374217D01*
X139895865Y-87374217D02*
X139610151Y-87374217D01*
X139610151Y-87374217D02*
X139495865Y-87431360D01*
X139495865Y-87431360D02*
X139438722Y-87488502D01*
X140467293Y-88574217D02*
X140867293Y-87374217D01*
X140867293Y-87374217D02*
X141267293Y-88574217D01*
X126538722Y-88174217D02*
X126538722Y-87374217D01*
X126253007Y-88631360D02*
X125967293Y-87774217D01*
X125967293Y-87774217D02*
X126710150Y-87774217D01*
X145575563Y-90599931D02*
X145461278Y-90657074D01*
X145461278Y-90657074D02*
X145404135Y-90714217D01*
X145404135Y-90714217D02*
X145346992Y-90828502D01*
X145346992Y-90828502D02*
X145346992Y-90885645D01*
X145346992Y-90885645D02*
X145404135Y-90999931D01*
X145404135Y-90999931D02*
X145461278Y-91057074D01*
X145461278Y-91057074D02*
X145575563Y-91114217D01*
X145575563Y-91114217D02*
X145804135Y-91114217D01*
X145804135Y-91114217D02*
X145918421Y-91057074D01*
X145918421Y-91057074D02*
X145975563Y-90999931D01*
X145975563Y-90999931D02*
X146032706Y-90885645D01*
X146032706Y-90885645D02*
X146032706Y-90828502D01*
X146032706Y-90828502D02*
X145975563Y-90714217D01*
X145975563Y-90714217D02*
X145918421Y-90657074D01*
X145918421Y-90657074D02*
X145804135Y-90599931D01*
X145804135Y-90599931D02*
X145575563Y-90599931D01*
X145575563Y-90599931D02*
X145461278Y-90542788D01*
X145461278Y-90542788D02*
X145404135Y-90485645D01*
X145404135Y-90485645D02*
X145346992Y-90371360D01*
X145346992Y-90371360D02*
X145346992Y-90142788D01*
X145346992Y-90142788D02*
X145404135Y-90028502D01*
X145404135Y-90028502D02*
X145461278Y-89971360D01*
X145461278Y-89971360D02*
X145575563Y-89914217D01*
X145575563Y-89914217D02*
X145804135Y-89914217D01*
X145804135Y-89914217D02*
X145918421Y-89971360D01*
X145918421Y-89971360D02*
X145975563Y-90028502D01*
X145975563Y-90028502D02*
X146032706Y-90142788D01*
X146032706Y-90142788D02*
X146032706Y-90371360D01*
X146032706Y-90371360D02*
X145975563Y-90485645D01*
X145975563Y-90485645D02*
X145918421Y-90542788D01*
X145918421Y-90542788D02*
X145804135Y-90599931D01*
X145918421Y-86034217D02*
X145689849Y-86034217D01*
X145689849Y-86034217D02*
X145575563Y-85977074D01*
X145575563Y-85977074D02*
X145518421Y-85919931D01*
X145518421Y-85919931D02*
X145404135Y-85748502D01*
X145404135Y-85748502D02*
X145346992Y-85519931D01*
X145346992Y-85519931D02*
X145346992Y-85062788D01*
X145346992Y-85062788D02*
X145404135Y-84948502D01*
X145404135Y-84948502D02*
X145461278Y-84891360D01*
X145461278Y-84891360D02*
X145575563Y-84834217D01*
X145575563Y-84834217D02*
X145804135Y-84834217D01*
X145804135Y-84834217D02*
X145918421Y-84891360D01*
X145918421Y-84891360D02*
X145975563Y-84948502D01*
X145975563Y-84948502D02*
X146032706Y-85062788D01*
X146032706Y-85062788D02*
X146032706Y-85348502D01*
X146032706Y-85348502D02*
X145975563Y-85462788D01*
X145975563Y-85462788D02*
X145918421Y-85519931D01*
X145918421Y-85519931D02*
X145804135Y-85577074D01*
X145804135Y-85577074D02*
X145575563Y-85577074D01*
X145575563Y-85577074D02*
X145461278Y-85519931D01*
X145461278Y-85519931D02*
X145404135Y-85462788D01*
X145404135Y-85462788D02*
X145346992Y-85348502D01*
X138810150Y-93597074D02*
X138695865Y-93654217D01*
X138695865Y-93654217D02*
X138524436Y-93654217D01*
X138524436Y-93654217D02*
X138353007Y-93597074D01*
X138353007Y-93597074D02*
X138238722Y-93482788D01*
X138238722Y-93482788D02*
X138181579Y-93368502D01*
X138181579Y-93368502D02*
X138124436Y-93139931D01*
X138124436Y-93139931D02*
X138124436Y-92968502D01*
X138124436Y-92968502D02*
X138181579Y-92739931D01*
X138181579Y-92739931D02*
X138238722Y-92625645D01*
X138238722Y-92625645D02*
X138353007Y-92511360D01*
X138353007Y-92511360D02*
X138524436Y-92454217D01*
X138524436Y-92454217D02*
X138638722Y-92454217D01*
X138638722Y-92454217D02*
X138810150Y-92511360D01*
X138810150Y-92511360D02*
X138867293Y-92568502D01*
X138867293Y-92568502D02*
X138867293Y-92968502D01*
X138867293Y-92968502D02*
X138638722Y-92968502D01*
X139267293Y-93654217D02*
X140010150Y-93654217D01*
X140010150Y-93654217D02*
X139610150Y-93197074D01*
X139610150Y-93197074D02*
X139781579Y-93197074D01*
X139781579Y-93197074D02*
X139895865Y-93139931D01*
X139895865Y-93139931D02*
X139953007Y-93082788D01*
X139953007Y-93082788D02*
X140010150Y-92968502D01*
X140010150Y-92968502D02*
X140010150Y-92682788D01*
X140010150Y-92682788D02*
X139953007Y-92568502D01*
X139953007Y-92568502D02*
X139895865Y-92511360D01*
X139895865Y-92511360D02*
X139781579Y-92454217D01*
X139781579Y-92454217D02*
X139438722Y-92454217D01*
X139438722Y-92454217D02*
X139324436Y-92511360D01*
X139324436Y-92511360D02*
X139267293Y-92568502D01*
X140581579Y-92454217D02*
X140810150Y-92454217D01*
X140810150Y-92454217D02*
X140924436Y-92511360D01*
X140924436Y-92511360D02*
X140981579Y-92568502D01*
X140981579Y-92568502D02*
X141095864Y-92739931D01*
X141095864Y-92739931D02*
X141153007Y-92968502D01*
X141153007Y-92968502D02*
X141153007Y-93425645D01*
X141153007Y-93425645D02*
X141095864Y-93539931D01*
X141095864Y-93539931D02*
X141038722Y-93597074D01*
X141038722Y-93597074D02*
X140924436Y-93654217D01*
X140924436Y-93654217D02*
X140695864Y-93654217D01*
X140695864Y-93654217D02*
X140581579Y-93597074D01*
X140581579Y-93597074D02*
X140524436Y-93539931D01*
X140524436Y-93539931D02*
X140467293Y-93425645D01*
X140467293Y-93425645D02*
X140467293Y-93139931D01*
X140467293Y-93139931D02*
X140524436Y-93025645D01*
X140524436Y-93025645D02*
X140581579Y-92968502D01*
X140581579Y-92968502D02*
X140695864Y-92911360D01*
X140695864Y-92911360D02*
X140924436Y-92911360D01*
X140924436Y-92911360D02*
X141038722Y-92968502D01*
X141038722Y-92968502D02*
X141095864Y-93025645D01*
X141095864Y-93025645D02*
X141153007Y-93139931D01*
X125014285Y-102345782D02*
X124328571Y-102345782D01*
X124671428Y-103545782D02*
X124671428Y-102345782D01*
X123928570Y-103545782D02*
X123928570Y-102345782D01*
X123928570Y-102345782D02*
X123471427Y-102345782D01*
X123471427Y-102345782D02*
X123357142Y-102402925D01*
X123357142Y-102402925D02*
X123299999Y-102460068D01*
X123299999Y-102460068D02*
X123242856Y-102574354D01*
X123242856Y-102574354D02*
X123242856Y-102745782D01*
X123242856Y-102745782D02*
X123299999Y-102860068D01*
X123299999Y-102860068D02*
X123357142Y-102917211D01*
X123357142Y-102917211D02*
X123471427Y-102974354D01*
X123471427Y-102974354D02*
X123928570Y-102974354D01*
X122214285Y-102345782D02*
X122442856Y-102345782D01*
X122442856Y-102345782D02*
X122557142Y-102402925D01*
X122557142Y-102402925D02*
X122614285Y-102460068D01*
X122614285Y-102460068D02*
X122728570Y-102631497D01*
X122728570Y-102631497D02*
X122785713Y-102860068D01*
X122785713Y-102860068D02*
X122785713Y-103317211D01*
X122785713Y-103317211D02*
X122728570Y-103431497D01*
X122728570Y-103431497D02*
X122671427Y-103488640D01*
X122671427Y-103488640D02*
X122557142Y-103545782D01*
X122557142Y-103545782D02*
X122328570Y-103545782D01*
X122328570Y-103545782D02*
X122214285Y-103488640D01*
X122214285Y-103488640D02*
X122157142Y-103431497D01*
X122157142Y-103431497D02*
X122099999Y-103317211D01*
X122099999Y-103317211D02*
X122099999Y-103031497D01*
X122099999Y-103031497D02*
X122157142Y-102917211D01*
X122157142Y-102917211D02*
X122214285Y-102860068D01*
X122214285Y-102860068D02*
X122328570Y-102802925D01*
X122328570Y-102802925D02*
X122557142Y-102802925D01*
X122557142Y-102802925D02*
X122671427Y-102860068D01*
X122671427Y-102860068D02*
X122728570Y-102917211D01*
X122728570Y-102917211D02*
X122785713Y-103031497D01*
X142514285Y-108845782D02*
X141828571Y-108845782D01*
X142171428Y-110045782D02*
X142171428Y-108845782D01*
X141428570Y-110045782D02*
X141428570Y-108845782D01*
X141428570Y-108845782D02*
X140971427Y-108845782D01*
X140971427Y-108845782D02*
X140857142Y-108902925D01*
X140857142Y-108902925D02*
X140799999Y-108960068D01*
X140799999Y-108960068D02*
X140742856Y-109074354D01*
X140742856Y-109074354D02*
X140742856Y-109245782D01*
X140742856Y-109245782D02*
X140799999Y-109360068D01*
X140799999Y-109360068D02*
X140857142Y-109417211D01*
X140857142Y-109417211D02*
X140971427Y-109474354D01*
X140971427Y-109474354D02*
X141428570Y-109474354D01*
X139714285Y-109245782D02*
X139714285Y-110045782D01*
X139999999Y-108788640D02*
X140285713Y-109645782D01*
X140285713Y-109645782D02*
X139542856Y-109645782D01*
X153514285Y-108845782D02*
X152828571Y-108845782D01*
X153171428Y-110045782D02*
X153171428Y-108845782D01*
X152428570Y-110045782D02*
X152428570Y-108845782D01*
X152428570Y-108845782D02*
X151971427Y-108845782D01*
X151971427Y-108845782D02*
X151857142Y-108902925D01*
X151857142Y-108902925D02*
X151799999Y-108960068D01*
X151799999Y-108960068D02*
X151742856Y-109074354D01*
X151742856Y-109074354D02*
X151742856Y-109245782D01*
X151742856Y-109245782D02*
X151799999Y-109360068D01*
X151799999Y-109360068D02*
X151857142Y-109417211D01*
X151857142Y-109417211D02*
X151971427Y-109474354D01*
X151971427Y-109474354D02*
X152428570Y-109474354D01*
X151285713Y-108960068D02*
X151228570Y-108902925D01*
X151228570Y-108902925D02*
X151114285Y-108845782D01*
X151114285Y-108845782D02*
X150828570Y-108845782D01*
X150828570Y-108845782D02*
X150714285Y-108902925D01*
X150714285Y-108902925D02*
X150657142Y-108960068D01*
X150657142Y-108960068D02*
X150599999Y-109074354D01*
X150599999Y-109074354D02*
X150599999Y-109188640D01*
X150599999Y-109188640D02*
X150657142Y-109360068D01*
X150657142Y-109360068D02*
X151342856Y-110045782D01*
X151342856Y-110045782D02*
X150599999Y-110045782D01*
X175085714Y-109345782D02*
X174400000Y-109345782D01*
X174742857Y-110545782D02*
X174742857Y-109345782D01*
X173999999Y-110545782D02*
X173999999Y-109345782D01*
X173999999Y-109345782D02*
X173542856Y-109345782D01*
X173542856Y-109345782D02*
X173428571Y-109402925D01*
X173428571Y-109402925D02*
X173371428Y-109460068D01*
X173371428Y-109460068D02*
X173314285Y-109574354D01*
X173314285Y-109574354D02*
X173314285Y-109745782D01*
X173314285Y-109745782D02*
X173371428Y-109860068D01*
X173371428Y-109860068D02*
X173428571Y-109917211D01*
X173428571Y-109917211D02*
X173542856Y-109974354D01*
X173542856Y-109974354D02*
X173999999Y-109974354D01*
X172171428Y-110545782D02*
X172857142Y-110545782D01*
X172514285Y-110545782D02*
X172514285Y-109345782D01*
X172514285Y-109345782D02*
X172628571Y-109517211D01*
X172628571Y-109517211D02*
X172742856Y-109631497D01*
X172742856Y-109631497D02*
X172857142Y-109688640D01*
X171142857Y-109345782D02*
X171371428Y-109345782D01*
X171371428Y-109345782D02*
X171485714Y-109402925D01*
X171485714Y-109402925D02*
X171542857Y-109460068D01*
X171542857Y-109460068D02*
X171657142Y-109631497D01*
X171657142Y-109631497D02*
X171714285Y-109860068D01*
X171714285Y-109860068D02*
X171714285Y-110317211D01*
X171714285Y-110317211D02*
X171657142Y-110431497D01*
X171657142Y-110431497D02*
X171599999Y-110488640D01*
X171599999Y-110488640D02*
X171485714Y-110545782D01*
X171485714Y-110545782D02*
X171257142Y-110545782D01*
X171257142Y-110545782D02*
X171142857Y-110488640D01*
X171142857Y-110488640D02*
X171085714Y-110431497D01*
X171085714Y-110431497D02*
X171028571Y-110317211D01*
X171028571Y-110317211D02*
X171028571Y-110031497D01*
X171028571Y-110031497D02*
X171085714Y-109917211D01*
X171085714Y-109917211D02*
X171142857Y-109860068D01*
X171142857Y-109860068D02*
X171257142Y-109802925D01*
X171257142Y-109802925D02*
X171485714Y-109802925D01*
X171485714Y-109802925D02*
X171599999Y-109860068D01*
X171599999Y-109860068D02*
X171657142Y-109917211D01*
X171657142Y-109917211D02*
X171714285Y-110031497D01*
X175085714Y-83385782D02*
X174400000Y-83385782D01*
X174742857Y-84585782D02*
X174742857Y-83385782D01*
X173999999Y-84585782D02*
X173999999Y-83385782D01*
X173999999Y-83385782D02*
X173542856Y-83385782D01*
X173542856Y-83385782D02*
X173428571Y-83442925D01*
X173428571Y-83442925D02*
X173371428Y-83500068D01*
X173371428Y-83500068D02*
X173314285Y-83614354D01*
X173314285Y-83614354D02*
X173314285Y-83785782D01*
X173314285Y-83785782D02*
X173371428Y-83900068D01*
X173371428Y-83900068D02*
X173428571Y-83957211D01*
X173428571Y-83957211D02*
X173542856Y-84014354D01*
X173542856Y-84014354D02*
X173999999Y-84014354D01*
X172171428Y-84585782D02*
X172857142Y-84585782D01*
X172514285Y-84585782D02*
X172514285Y-83385782D01*
X172514285Y-83385782D02*
X172628571Y-83557211D01*
X172628571Y-83557211D02*
X172742856Y-83671497D01*
X172742856Y-83671497D02*
X172857142Y-83728640D01*
X171028571Y-84585782D02*
X171714285Y-84585782D01*
X171371428Y-84585782D02*
X171371428Y-83385782D01*
X171371428Y-83385782D02*
X171485714Y-83557211D01*
X171485714Y-83557211D02*
X171599999Y-83671497D01*
X171599999Y-83671497D02*
X171714285Y-83728640D01*
X120345782Y-86985714D02*
X120345782Y-87671429D01*
X121545782Y-87328571D02*
X120345782Y-87328571D01*
X121545782Y-88071429D02*
X120345782Y-88071429D01*
X120345782Y-88071429D02*
X120345782Y-88528572D01*
X120345782Y-88528572D02*
X120402925Y-88642857D01*
X120402925Y-88642857D02*
X120460068Y-88700000D01*
X120460068Y-88700000D02*
X120574354Y-88757143D01*
X120574354Y-88757143D02*
X120745782Y-88757143D01*
X120745782Y-88757143D02*
X120860068Y-88700000D01*
X120860068Y-88700000D02*
X120917211Y-88642857D01*
X120917211Y-88642857D02*
X120974354Y-88528572D01*
X120974354Y-88528572D02*
X120974354Y-88071429D01*
X120345782Y-89157143D02*
X120345782Y-89900000D01*
X120345782Y-89900000D02*
X120802925Y-89500000D01*
X120802925Y-89500000D02*
X120802925Y-89671429D01*
X120802925Y-89671429D02*
X120860068Y-89785715D01*
X120860068Y-89785715D02*
X120917211Y-89842857D01*
X120917211Y-89842857D02*
X121031497Y-89900000D01*
X121031497Y-89900000D02*
X121317211Y-89900000D01*
X121317211Y-89900000D02*
X121431497Y-89842857D01*
X121431497Y-89842857D02*
X121488640Y-89785715D01*
X121488640Y-89785715D02*
X121545782Y-89671429D01*
X121545782Y-89671429D02*
X121545782Y-89328572D01*
X121545782Y-89328572D02*
X121488640Y-89214286D01*
X121488640Y-89214286D02*
X121431497Y-89157143D01*
X164114285Y-83870782D02*
X163428571Y-83870782D01*
X163771428Y-85070782D02*
X163771428Y-83870782D01*
X163028570Y-85070782D02*
X163028570Y-83870782D01*
X163028570Y-83870782D02*
X162571427Y-83870782D01*
X162571427Y-83870782D02*
X162457142Y-83927925D01*
X162457142Y-83927925D02*
X162399999Y-83985068D01*
X162399999Y-83985068D02*
X162342856Y-84099354D01*
X162342856Y-84099354D02*
X162342856Y-84270782D01*
X162342856Y-84270782D02*
X162399999Y-84385068D01*
X162399999Y-84385068D02*
X162457142Y-84442211D01*
X162457142Y-84442211D02*
X162571427Y-84499354D01*
X162571427Y-84499354D02*
X163028570Y-84499354D01*
X161771427Y-85070782D02*
X161542856Y-85070782D01*
X161542856Y-85070782D02*
X161428570Y-85013640D01*
X161428570Y-85013640D02*
X161371427Y-84956497D01*
X161371427Y-84956497D02*
X161257142Y-84785068D01*
X161257142Y-84785068D02*
X161199999Y-84556497D01*
X161199999Y-84556497D02*
X161199999Y-84099354D01*
X161199999Y-84099354D02*
X161257142Y-83985068D01*
X161257142Y-83985068D02*
X161314285Y-83927925D01*
X161314285Y-83927925D02*
X161428570Y-83870782D01*
X161428570Y-83870782D02*
X161657142Y-83870782D01*
X161657142Y-83870782D02*
X161771427Y-83927925D01*
X161771427Y-83927925D02*
X161828570Y-83985068D01*
X161828570Y-83985068D02*
X161885713Y-84099354D01*
X161885713Y-84099354D02*
X161885713Y-84385068D01*
X161885713Y-84385068D02*
X161828570Y-84499354D01*
X161828570Y-84499354D02*
X161771427Y-84556497D01*
X161771427Y-84556497D02*
X161657142Y-84613640D01*
X161657142Y-84613640D02*
X161428570Y-84613640D01*
X161428570Y-84613640D02*
X161314285Y-84556497D01*
X161314285Y-84556497D02*
X161257142Y-84499354D01*
X161257142Y-84499354D02*
X161199999Y-84385068D01*
X125014285Y-105845782D02*
X124328571Y-105845782D01*
X124671428Y-107045782D02*
X124671428Y-105845782D01*
X123928570Y-107045782D02*
X123928570Y-105845782D01*
X123928570Y-105845782D02*
X123471427Y-105845782D01*
X123471427Y-105845782D02*
X123357142Y-105902925D01*
X123357142Y-105902925D02*
X123299999Y-105960068D01*
X123299999Y-105960068D02*
X123242856Y-106074354D01*
X123242856Y-106074354D02*
X123242856Y-106245782D01*
X123242856Y-106245782D02*
X123299999Y-106360068D01*
X123299999Y-106360068D02*
X123357142Y-106417211D01*
X123357142Y-106417211D02*
X123471427Y-106474354D01*
X123471427Y-106474354D02*
X123928570Y-106474354D01*
X122842856Y-105845782D02*
X122042856Y-105845782D01*
X122042856Y-105845782D02*
X122557142Y-107045782D01*
X164264285Y-87345782D02*
X163578571Y-87345782D01*
X163921428Y-88545782D02*
X163921428Y-87345782D01*
X163178570Y-88545782D02*
X163178570Y-87345782D01*
X163178570Y-87345782D02*
X162721427Y-87345782D01*
X162721427Y-87345782D02*
X162607142Y-87402925D01*
X162607142Y-87402925D02*
X162549999Y-87460068D01*
X162549999Y-87460068D02*
X162492856Y-87574354D01*
X162492856Y-87574354D02*
X162492856Y-87745782D01*
X162492856Y-87745782D02*
X162549999Y-87860068D01*
X162549999Y-87860068D02*
X162607142Y-87917211D01*
X162607142Y-87917211D02*
X162721427Y-87974354D01*
X162721427Y-87974354D02*
X163178570Y-87974354D01*
X161807142Y-87860068D02*
X161921427Y-87802925D01*
X161921427Y-87802925D02*
X161978570Y-87745782D01*
X161978570Y-87745782D02*
X162035713Y-87631497D01*
X162035713Y-87631497D02*
X162035713Y-87574354D01*
X162035713Y-87574354D02*
X161978570Y-87460068D01*
X161978570Y-87460068D02*
X161921427Y-87402925D01*
X161921427Y-87402925D02*
X161807142Y-87345782D01*
X161807142Y-87345782D02*
X161578570Y-87345782D01*
X161578570Y-87345782D02*
X161464285Y-87402925D01*
X161464285Y-87402925D02*
X161407142Y-87460068D01*
X161407142Y-87460068D02*
X161349999Y-87574354D01*
X161349999Y-87574354D02*
X161349999Y-87631497D01*
X161349999Y-87631497D02*
X161407142Y-87745782D01*
X161407142Y-87745782D02*
X161464285Y-87802925D01*
X161464285Y-87802925D02*
X161578570Y-87860068D01*
X161578570Y-87860068D02*
X161807142Y-87860068D01*
X161807142Y-87860068D02*
X161921427Y-87917211D01*
X161921427Y-87917211D02*
X161978570Y-87974354D01*
X161978570Y-87974354D02*
X162035713Y-88088640D01*
X162035713Y-88088640D02*
X162035713Y-88317211D01*
X162035713Y-88317211D02*
X161978570Y-88431497D01*
X161978570Y-88431497D02*
X161921427Y-88488640D01*
X161921427Y-88488640D02*
X161807142Y-88545782D01*
X161807142Y-88545782D02*
X161578570Y-88545782D01*
X161578570Y-88545782D02*
X161464285Y-88488640D01*
X161464285Y-88488640D02*
X161407142Y-88431497D01*
X161407142Y-88431497D02*
X161349999Y-88317211D01*
X161349999Y-88317211D02*
X161349999Y-88088640D01*
X161349999Y-88088640D02*
X161407142Y-87974354D01*
X161407142Y-87974354D02*
X161464285Y-87917211D01*
X161464285Y-87917211D02*
X161578570Y-87860068D01*
X178585714Y-86845782D02*
X177900000Y-86845782D01*
X178242857Y-88045782D02*
X178242857Y-86845782D01*
X177499999Y-88045782D02*
X177499999Y-86845782D01*
X177499999Y-86845782D02*
X177042856Y-86845782D01*
X177042856Y-86845782D02*
X176928571Y-86902925D01*
X176928571Y-86902925D02*
X176871428Y-86960068D01*
X176871428Y-86960068D02*
X176814285Y-87074354D01*
X176814285Y-87074354D02*
X176814285Y-87245782D01*
X176814285Y-87245782D02*
X176871428Y-87360068D01*
X176871428Y-87360068D02*
X176928571Y-87417211D01*
X176928571Y-87417211D02*
X177042856Y-87474354D01*
X177042856Y-87474354D02*
X177499999Y-87474354D01*
X175671428Y-88045782D02*
X176357142Y-88045782D01*
X176014285Y-88045782D02*
X176014285Y-86845782D01*
X176014285Y-86845782D02*
X176128571Y-87017211D01*
X176128571Y-87017211D02*
X176242856Y-87131497D01*
X176242856Y-87131497D02*
X176357142Y-87188640D01*
X174928571Y-86845782D02*
X174814285Y-86845782D01*
X174814285Y-86845782D02*
X174699999Y-86902925D01*
X174699999Y-86902925D02*
X174642857Y-86960068D01*
X174642857Y-86960068D02*
X174585714Y-87074354D01*
X174585714Y-87074354D02*
X174528571Y-87302925D01*
X174528571Y-87302925D02*
X174528571Y-87588640D01*
X174528571Y-87588640D02*
X174585714Y-87817211D01*
X174585714Y-87817211D02*
X174642857Y-87931497D01*
X174642857Y-87931497D02*
X174699999Y-87988640D01*
X174699999Y-87988640D02*
X174814285Y-88045782D01*
X174814285Y-88045782D02*
X174928571Y-88045782D01*
X174928571Y-88045782D02*
X175042857Y-87988640D01*
X175042857Y-87988640D02*
X175099999Y-87931497D01*
X175099999Y-87931497D02*
X175157142Y-87817211D01*
X175157142Y-87817211D02*
X175214285Y-87588640D01*
X175214285Y-87588640D02*
X175214285Y-87302925D01*
X175214285Y-87302925D02*
X175157142Y-87074354D01*
X175157142Y-87074354D02*
X175099999Y-86960068D01*
X175099999Y-86960068D02*
X175042857Y-86902925D01*
X175042857Y-86902925D02*
X174928571Y-86845782D01*
X126014285Y-97845782D02*
X125328571Y-97845782D01*
X125671428Y-99045782D02*
X125671428Y-97845782D01*
X124928570Y-99045782D02*
X124928570Y-97845782D01*
X124928570Y-97845782D02*
X124471427Y-97845782D01*
X124471427Y-97845782D02*
X124357142Y-97902925D01*
X124357142Y-97902925D02*
X124299999Y-97960068D01*
X124299999Y-97960068D02*
X124242856Y-98074354D01*
X124242856Y-98074354D02*
X124242856Y-98245782D01*
X124242856Y-98245782D02*
X124299999Y-98360068D01*
X124299999Y-98360068D02*
X124357142Y-98417211D01*
X124357142Y-98417211D02*
X124471427Y-98474354D01*
X124471427Y-98474354D02*
X124928570Y-98474354D01*
X123099999Y-99045782D02*
X123785713Y-99045782D01*
X123442856Y-99045782D02*
X123442856Y-97845782D01*
X123442856Y-97845782D02*
X123557142Y-98017211D01*
X123557142Y-98017211D02*
X123671427Y-98131497D01*
X123671427Y-98131497D02*
X123785713Y-98188640D01*
X173585714Y-114345782D02*
X172900000Y-114345782D01*
X173242857Y-115545782D02*
X173242857Y-114345782D01*
X172499999Y-115545782D02*
X172499999Y-114345782D01*
X172499999Y-114345782D02*
X172042856Y-114345782D01*
X172042856Y-114345782D02*
X171928571Y-114402925D01*
X171928571Y-114402925D02*
X171871428Y-114460068D01*
X171871428Y-114460068D02*
X171814285Y-114574354D01*
X171814285Y-114574354D02*
X171814285Y-114745782D01*
X171814285Y-114745782D02*
X171871428Y-114860068D01*
X171871428Y-114860068D02*
X171928571Y-114917211D01*
X171928571Y-114917211D02*
X172042856Y-114974354D01*
X172042856Y-114974354D02*
X172499999Y-114974354D01*
X170671428Y-115545782D02*
X171357142Y-115545782D01*
X171014285Y-115545782D02*
X171014285Y-114345782D01*
X171014285Y-114345782D02*
X171128571Y-114517211D01*
X171128571Y-114517211D02*
X171242856Y-114631497D01*
X171242856Y-114631497D02*
X171357142Y-114688640D01*
X170214285Y-114460068D02*
X170157142Y-114402925D01*
X170157142Y-114402925D02*
X170042857Y-114345782D01*
X170042857Y-114345782D02*
X169757142Y-114345782D01*
X169757142Y-114345782D02*
X169642857Y-114402925D01*
X169642857Y-114402925D02*
X169585714Y-114460068D01*
X169585714Y-114460068D02*
X169528571Y-114574354D01*
X169528571Y-114574354D02*
X169528571Y-114688640D01*
X169528571Y-114688640D02*
X169585714Y-114860068D01*
X169585714Y-114860068D02*
X170271428Y-115545782D01*
X170271428Y-115545782D02*
X169528571Y-115545782D01*
X161585714Y-114345782D02*
X160900000Y-114345782D01*
X161242857Y-115545782D02*
X161242857Y-114345782D01*
X160499999Y-115545782D02*
X160499999Y-114345782D01*
X160499999Y-114345782D02*
X160042856Y-114345782D01*
X160042856Y-114345782D02*
X159928571Y-114402925D01*
X159928571Y-114402925D02*
X159871428Y-114460068D01*
X159871428Y-114460068D02*
X159814285Y-114574354D01*
X159814285Y-114574354D02*
X159814285Y-114745782D01*
X159814285Y-114745782D02*
X159871428Y-114860068D01*
X159871428Y-114860068D02*
X159928571Y-114917211D01*
X159928571Y-114917211D02*
X160042856Y-114974354D01*
X160042856Y-114974354D02*
X160499999Y-114974354D01*
X158671428Y-115545782D02*
X159357142Y-115545782D01*
X159014285Y-115545782D02*
X159014285Y-114345782D01*
X159014285Y-114345782D02*
X159128571Y-114517211D01*
X159128571Y-114517211D02*
X159242856Y-114631497D01*
X159242856Y-114631497D02*
X159357142Y-114688640D01*
X158271428Y-114345782D02*
X157528571Y-114345782D01*
X157528571Y-114345782D02*
X157928571Y-114802925D01*
X157928571Y-114802925D02*
X157757142Y-114802925D01*
X157757142Y-114802925D02*
X157642857Y-114860068D01*
X157642857Y-114860068D02*
X157585714Y-114917211D01*
X157585714Y-114917211D02*
X157528571Y-115031497D01*
X157528571Y-115031497D02*
X157528571Y-115317211D01*
X157528571Y-115317211D02*
X157585714Y-115431497D01*
X157585714Y-115431497D02*
X157642857Y-115488640D01*
X157642857Y-115488640D02*
X157757142Y-115545782D01*
X157757142Y-115545782D02*
X158099999Y-115545782D01*
X158099999Y-115545782D02*
X158214285Y-115488640D01*
X158214285Y-115488640D02*
X158271428Y-115431497D01*
X175356217Y-103714285D02*
X175356217Y-104285713D01*
X175356217Y-104285713D02*
X174784788Y-104342856D01*
X174784788Y-104342856D02*
X174841931Y-104285713D01*
X174841931Y-104285713D02*
X174899074Y-104171428D01*
X174899074Y-104171428D02*
X174899074Y-103885713D01*
X174899074Y-103885713D02*
X174841931Y-103771428D01*
X174841931Y-103771428D02*
X174784788Y-103714285D01*
X174784788Y-103714285D02*
X174670502Y-103657142D01*
X174670502Y-103657142D02*
X174384788Y-103657142D01*
X174384788Y-103657142D02*
X174270502Y-103714285D01*
X174270502Y-103714285D02*
X174213360Y-103771428D01*
X174213360Y-103771428D02*
X174156217Y-103885713D01*
X174156217Y-103885713D02*
X174156217Y-104171428D01*
X174156217Y-104171428D02*
X174213360Y-104285713D01*
X174213360Y-104285713D02*
X174270502Y-104342856D01*
X174156217Y-111657142D02*
X174156217Y-112342856D01*
X174156217Y-111999999D02*
X175356217Y-111999999D01*
X175356217Y-111999999D02*
X175184788Y-112114285D01*
X175184788Y-112114285D02*
X175070502Y-112228570D01*
X175070502Y-112228570D02*
X175013360Y-112342856D01*
X175085714Y-99345782D02*
X174400000Y-99345782D01*
X174742857Y-100545782D02*
X174742857Y-99345782D01*
X173999999Y-100545782D02*
X173999999Y-99345782D01*
X173999999Y-99345782D02*
X173542856Y-99345782D01*
X173542856Y-99345782D02*
X173428571Y-99402925D01*
X173428571Y-99402925D02*
X173371428Y-99460068D01*
X173371428Y-99460068D02*
X173314285Y-99574354D01*
X173314285Y-99574354D02*
X173314285Y-99745782D01*
X173314285Y-99745782D02*
X173371428Y-99860068D01*
X173371428Y-99860068D02*
X173428571Y-99917211D01*
X173428571Y-99917211D02*
X173542856Y-99974354D01*
X173542856Y-99974354D02*
X173999999Y-99974354D01*
X172171428Y-100545782D02*
X172857142Y-100545782D01*
X172514285Y-100545782D02*
X172514285Y-99345782D01*
X172514285Y-99345782D02*
X172628571Y-99517211D01*
X172628571Y-99517211D02*
X172742856Y-99631497D01*
X172742856Y-99631497D02*
X172857142Y-99688640D01*
X171142857Y-99745782D02*
X171142857Y-100545782D01*
X171428571Y-99288640D02*
X171714285Y-100145782D01*
X171714285Y-100145782D02*
X170971428Y-100145782D01*
X167085714Y-103845782D02*
X166400000Y-103845782D01*
X166742857Y-105045782D02*
X166742857Y-103845782D01*
X165999999Y-105045782D02*
X165999999Y-103845782D01*
X165999999Y-103845782D02*
X165542856Y-103845782D01*
X165542856Y-103845782D02*
X165428571Y-103902925D01*
X165428571Y-103902925D02*
X165371428Y-103960068D01*
X165371428Y-103960068D02*
X165314285Y-104074354D01*
X165314285Y-104074354D02*
X165314285Y-104245782D01*
X165314285Y-104245782D02*
X165371428Y-104360068D01*
X165371428Y-104360068D02*
X165428571Y-104417211D01*
X165428571Y-104417211D02*
X165542856Y-104474354D01*
X165542856Y-104474354D02*
X165999999Y-104474354D01*
X164171428Y-105045782D02*
X164857142Y-105045782D01*
X164514285Y-105045782D02*
X164514285Y-103845782D01*
X164514285Y-103845782D02*
X164628571Y-104017211D01*
X164628571Y-104017211D02*
X164742856Y-104131497D01*
X164742856Y-104131497D02*
X164857142Y-104188640D01*
X163085714Y-103845782D02*
X163657142Y-103845782D01*
X163657142Y-103845782D02*
X163714285Y-104417211D01*
X163714285Y-104417211D02*
X163657142Y-104360068D01*
X163657142Y-104360068D02*
X163542857Y-104302925D01*
X163542857Y-104302925D02*
X163257142Y-104302925D01*
X163257142Y-104302925D02*
X163142857Y-104360068D01*
X163142857Y-104360068D02*
X163085714Y-104417211D01*
X163085714Y-104417211D02*
X163028571Y-104531497D01*
X163028571Y-104531497D02*
X163028571Y-104817211D01*
X163028571Y-104817211D02*
X163085714Y-104931497D01*
X163085714Y-104931497D02*
X163142857Y-104988640D01*
X163142857Y-104988640D02*
X163257142Y-105045782D01*
X163257142Y-105045782D02*
X163542857Y-105045782D01*
X163542857Y-105045782D02*
X163657142Y-104988640D01*
X163657142Y-104988640D02*
X163714285Y-104931497D01*
X125014285Y-109345782D02*
X124328571Y-109345782D01*
X124671428Y-110545782D02*
X124671428Y-109345782D01*
X123928570Y-110545782D02*
X123928570Y-109345782D01*
X123928570Y-109345782D02*
X123471427Y-109345782D01*
X123471427Y-109345782D02*
X123357142Y-109402925D01*
X123357142Y-109402925D02*
X123299999Y-109460068D01*
X123299999Y-109460068D02*
X123242856Y-109574354D01*
X123242856Y-109574354D02*
X123242856Y-109745782D01*
X123242856Y-109745782D02*
X123299999Y-109860068D01*
X123299999Y-109860068D02*
X123357142Y-109917211D01*
X123357142Y-109917211D02*
X123471427Y-109974354D01*
X123471427Y-109974354D02*
X123928570Y-109974354D01*
X122157142Y-109345782D02*
X122728570Y-109345782D01*
X122728570Y-109345782D02*
X122785713Y-109917211D01*
X122785713Y-109917211D02*
X122728570Y-109860068D01*
X122728570Y-109860068D02*
X122614285Y-109802925D01*
X122614285Y-109802925D02*
X122328570Y-109802925D01*
X122328570Y-109802925D02*
X122214285Y-109860068D01*
X122214285Y-109860068D02*
X122157142Y-109917211D01*
X122157142Y-109917211D02*
X122099999Y-110031497D01*
X122099999Y-110031497D02*
X122099999Y-110317211D01*
X122099999Y-110317211D02*
X122157142Y-110431497D01*
X122157142Y-110431497D02*
X122214285Y-110488640D01*
X122214285Y-110488640D02*
X122328570Y-110545782D01*
X122328570Y-110545782D02*
X122614285Y-110545782D01*
X122614285Y-110545782D02*
X122728570Y-110488640D01*
X122728570Y-110488640D02*
X122785713Y-110431497D01*
M02*
