M48
; DRILL file {KiCad 9.0.0-rc3-13-g9b184afb43} date 2025-02-16T14:58:36-0800
; FORMAT={-:-/ absolute / metric / decimal}
; #@! TF.CreationDate,2025-02-16T14:58:36-08:00
; #@! TF.GenerationSoftware,Kicad,Pcbnew,9.0.0-rc3-13-g9b184afb43
; #@! TF.FileFunction,Plated,1,2,PTH
FMAT,2
METRIC
; #@! TA.AperFunction,Plated,PTH,ViaDrill
T1C0.300
; #@! TA.AperFunction,Plated,PTH,ComponentDrill
T2C0.800
; #@! TA.AperFunction,Plated,PTH,ComponentDrill
T3C1.000
; #@! TA.AperFunction,Plated,PTH,ComponentDrill
T4C1.050
; #@! TA.AperFunction,Plated,PTH,ViaDrill
T5C3.175
%
G90
G05
T1
X116.0Y-81.0
X116.0Y-83.0
X116.0Y-85.0
X116.0Y-87.0
X116.0Y-89.0
X116.0Y-91.0
X116.0Y-93.0
X116.0Y-95.0
X116.0Y-97.0
X116.0Y-99.0
X116.0Y-101.0
X116.0Y-103.0
X116.0Y-105.0
X116.0Y-107.0
X116.0Y-109.0
X116.0Y-111.0
X116.0Y-113.0
X116.0Y-115.0
X116.0Y-117.0
X116.0Y-119.0
X118.0Y-81.0
X118.0Y-85.0
X118.0Y-115.0
X118.0Y-119.0
X120.0Y-81.0
X120.0Y-83.0
X120.0Y-85.0
X120.0Y-115.0
X120.0Y-117.0
X120.0Y-119.0
X122.0Y-81.0
X122.0Y-119.0
X124.0Y-81.0
X124.0Y-119.0
X126.0Y-81.0
X126.0Y-119.0
X126.15Y-112.65
X128.0Y-81.0
X128.0Y-119.0
X130.0Y-81.0
X130.0Y-119.0
X132.0Y-81.0
X132.0Y-119.0
X133.862Y-111.65
X134.0Y-81.0
X134.0Y-119.0
X136.0Y-81.0
X136.0Y-119.0
X137.0Y-115.5
X138.0Y-81.0
X138.0Y-119.0
X140.0Y-81.0
X140.0Y-119.0
X142.0Y-81.0
X142.0Y-119.0
X144.0Y-81.0
X144.0Y-119.0
X145.2Y-92.2
X145.2Y-93.8
X146.0Y-81.0
X146.0Y-119.0
X146.7Y-92.2
X146.7Y-93.8
X148.0Y-81.0
X148.0Y-119.0
X148.2Y-92.2
X148.2Y-93.8
X149.7Y-92.2
X149.7Y-93.8
X150.0Y-81.0
X150.0Y-108.037
X150.0Y-119.0
X151.0Y-86.138
X151.3Y-92.2
X151.3Y-93.8
X152.0Y-81.0
X152.0Y-119.0
X152.3Y-94.2
X152.963Y-108.037
X153.4Y-95.2
X153.412Y-99.5
X153.5Y-93.0
X153.594Y-85.962
X154.0Y-81.0
X154.0Y-119.0
X154.6Y-94.0
X154.75Y-96.5
X155.4Y-107.5
X155.5Y-97.75
X155.5Y-103.4
X155.975Y-95.275
X156.0Y-81.0
X156.0Y-119.0
X156.4Y-108.4
X157.25Y-97.75
X157.3Y-99.3
X157.316Y-107.451
X157.6Y-103.4
X158.0Y-81.0
X158.0Y-119.0
X160.0Y-81.0
X160.0Y-99.225
X160.0Y-100.775
X160.0Y-102.225
X160.0Y-104.5
X160.0Y-105.95
X160.0Y-107.0
X160.0Y-119.0
X160.45Y-97.4
X161.4Y-95.6
X161.4Y-96.5
X162.0Y-81.0
X162.0Y-119.0
X162.2Y-97.4
X162.4Y-95.6
X162.7Y-107.45
X162.85Y-99.275
X163.0Y-100.7
X164.0Y-81.0
X164.0Y-119.0
X166.0Y-81.0
X166.0Y-119.0
X168.0Y-81.0
X168.0Y-119.0
X170.0Y-81.0
X170.0Y-84.5
X170.0Y-119.0
X172.0Y-81.0
X172.0Y-119.0
X173.3Y-94.25
X173.5Y-97.0
X174.0Y-81.0
X174.0Y-119.0
X176.0Y-81.0
X176.0Y-119.0
X178.0Y-81.0
X178.0Y-119.0
X178.1Y-100.0
X180.0Y-81.0
X180.0Y-83.0
X180.0Y-85.0
X180.0Y-115.0
X180.0Y-117.0
X180.0Y-119.0
X182.0Y-81.0
X182.0Y-85.0
X182.0Y-115.0
X182.0Y-119.0
X184.0Y-81.0
X184.0Y-83.0
X184.0Y-85.0
X184.0Y-87.0
X184.0Y-99.0
X184.0Y-101.0
X184.0Y-103.0
X184.0Y-105.0
X184.0Y-107.0
X184.0Y-109.0
X184.0Y-111.0
X184.0Y-113.0
X184.0Y-115.0
X184.0Y-117.0
X184.0Y-119.0
T2
X177.0Y-104.0
X177.0Y-106.0
X177.0Y-108.0
X177.0Y-110.0
X177.0Y-112.0
T3
X120.0Y-103.0
X120.0Y-106.5
X120.0Y-110.0
X121.0Y-92.0
X121.0Y-98.0
X144.5Y-109.5
X148.0Y-109.5
X159.0Y-84.5
X159.0Y-88.0
X163.5Y-115.0
X167.5Y-115.0
X169.0Y-100.0
X169.0Y-104.5
X169.0Y-110.0
X177.0Y-84.0
X180.5Y-87.5
T4
X128.5Y-85.38
X128.5Y-87.92
X128.5Y-90.46
X128.5Y-93.0
X128.5Y-95.54
X143.5Y-85.38
X143.5Y-87.92
X143.5Y-90.46
X143.5Y-93.0
T5
X118.0Y-83.0
X118.0Y-117.0
X182.0Y-83.0
X182.0Y-117.0
M30
