%TF.GenerationSoftware,KiCad,Pcbnew,9.0.0-rc3-13-g9b184afb43*%
%TF.CreationDate,2025-02-16T14:58:27-08:00*%
%TF.ProjectId,Carrier_Board,43617272-6965-4725-9f42-6f6172642e6b,rev?*%
%TF.SameCoordinates,Original*%
%TF.FileFunction,Copper,L1,Top*%
%TF.FilePolarity,Positive*%
%FSLAX46Y46*%
G04 Gerber Fmt 4.6, Leading zero omitted, Abs format (unit mm)*
G04 Created by KiCad (PCBNEW 9.0.0-rc3-13-g9b184afb43) date 2025-02-16 14:58:27*
%MOMM*%
%LPD*%
G01*
G04 APERTURE LIST*
G04 Aperture macros list*
%AMRoundRect*
0 Rectangle with rounded corners*
0 $1 Rounding radius*
0 $2 $3 $4 $5 $6 $7 $8 $9 X,Y pos of 4 corners*
0 Add a 4 corners polygon primitive as box body*
4,1,4,$2,$3,$4,$5,$6,$7,$8,$9,$2,$3,0*
0 Add four circle primitives for the rounded corners*
1,1,$1+$1,$2,$3*
1,1,$1+$1,$4,$5*
1,1,$1+$1,$6,$7*
1,1,$1+$1,$8,$9*
0 Add four rect primitives between the rounded corners*
20,1,$1+$1,$2,$3,$4,$5,0*
20,1,$1+$1,$4,$5,$6,$7,0*
20,1,$1+$1,$6,$7,$8,$9,0*
20,1,$1+$1,$8,$9,$2,$3,0*%
G04 Aperture macros list end*
%TA.AperFunction,Conductor*%
%ADD10C,0.050000*%
%TD*%
%TA.AperFunction,Conductor*%
%ADD11C,0.200000*%
%TD*%
%ADD12C,0.150000*%
%TA.AperFunction,NonConductor*%
%ADD13C,0.150000*%
%TD*%
%TA.AperFunction,ComponentPad*%
%ADD14R,1.800000X1.800000*%
%TD*%
%TA.AperFunction,ComponentPad*%
%ADD15C,1.800000*%
%TD*%
%TA.AperFunction,ComponentPad*%
%ADD16C,2.000000*%
%TD*%
%TA.AperFunction,SMDPad,CuDef*%
%ADD17RoundRect,0.237500X-0.300000X-0.237500X0.300000X-0.237500X0.300000X0.237500X-0.300000X0.237500X0*%
%TD*%
%TA.AperFunction,SMDPad,CuDef*%
%ADD18RoundRect,0.162500X0.617500X0.162500X-0.617500X0.162500X-0.617500X-0.162500X0.617500X-0.162500X0*%
%TD*%
%TA.AperFunction,SMDPad,CuDef*%
%ADD19RoundRect,0.250000X0.475000X-0.337500X0.475000X0.337500X-0.475000X0.337500X-0.475000X-0.337500X0*%
%TD*%
%TA.AperFunction,SMDPad,CuDef*%
%ADD20RoundRect,0.237500X0.300000X0.237500X-0.300000X0.237500X-0.300000X-0.237500X0.300000X-0.237500X0*%
%TD*%
%TA.AperFunction,SMDPad,CuDef*%
%ADD21RoundRect,0.250000X-0.475000X0.337500X-0.475000X-0.337500X0.475000X-0.337500X0.475000X0.337500X0*%
%TD*%
%TA.AperFunction,SMDPad,CuDef*%
%ADD22RoundRect,0.237500X0.237500X-0.287500X0.237500X0.287500X-0.237500X0.287500X-0.237500X-0.287500X0*%
%TD*%
%TA.AperFunction,ComponentPad*%
%ADD23R,2.000000X2.000000*%
%TD*%
%TA.AperFunction,SMDPad,CuDef*%
%ADD24RoundRect,0.237500X-0.250000X-0.237500X0.250000X-0.237500X0.250000X0.237500X-0.250000X0.237500X0*%
%TD*%
%TA.AperFunction,SMDPad,CuDef*%
%ADD25RoundRect,0.162500X-0.617500X-0.162500X0.617500X-0.162500X0.617500X0.162500X-0.617500X0.162500X0*%
%TD*%
%TA.AperFunction,SMDPad,CuDef*%
%ADD26RoundRect,0.250000X-1.000000X-0.650000X1.000000X-0.650000X1.000000X0.650000X-1.000000X0.650000X0*%
%TD*%
%TA.AperFunction,SMDPad,CuDef*%
%ADD27RoundRect,0.237500X0.237500X-0.250000X0.237500X0.250000X-0.237500X0.250000X-0.237500X-0.250000X0*%
%TD*%
%TA.AperFunction,SMDPad,CuDef*%
%ADD28RoundRect,0.237500X0.287500X0.237500X-0.287500X0.237500X-0.287500X-0.237500X0.287500X-0.237500X0*%
%TD*%
%TA.AperFunction,SMDPad,CuDef*%
%ADD29RoundRect,0.237500X-0.237500X0.250000X-0.237500X-0.250000X0.237500X-0.250000X0.237500X0.250000X0*%
%TD*%
%TA.AperFunction,SMDPad,CuDef*%
%ADD30RoundRect,0.250001X-0.624999X0.462499X-0.624999X-0.462499X0.624999X-0.462499X0.624999X0.462499X0*%
%TD*%
%TA.AperFunction,SMDPad,CuDef*%
%ADD31RoundRect,0.237500X-0.237500X0.300000X-0.237500X-0.300000X0.237500X-0.300000X0.237500X0.300000X0*%
%TD*%
%TA.AperFunction,SMDPad,CuDef*%
%ADD32RoundRect,0.237500X0.250000X0.237500X-0.250000X0.237500X-0.250000X-0.237500X0.250000X-0.237500X0*%
%TD*%
%TA.AperFunction,SMDPad,CuDef*%
%ADD33RoundRect,0.100000X-0.200000X-0.100000X0.200000X-0.100000X0.200000X0.100000X-0.200000X0.100000X0*%
%TD*%
%TA.AperFunction,SMDPad,CuDef*%
%ADD34R,1.500000X2.400000*%
%TD*%
%TA.AperFunction,ComponentPad*%
%ADD35R,1.400000X1.400000*%
%TD*%
%TA.AperFunction,ComponentPad*%
%ADD36C,1.400000*%
%TD*%
%TA.AperFunction,ViaPad*%
%ADD37C,0.800000*%
%TD*%
%TA.AperFunction,ViaPad*%
%ADD38C,0.700000*%
%TD*%
%TA.AperFunction,ViaPad*%
%ADD39C,5.000000*%
%TD*%
%TA.AperFunction,Conductor*%
%ADD40C,0.750000*%
%TD*%
%TA.AperFunction,Conductor*%
%ADD41C,0.300000*%
%TD*%
%TA.AperFunction,Conductor*%
%ADD42C,0.500000*%
%TD*%
%TA.AperFunction,Conductor*%
%ADD43C,0.400000*%
%TD*%
%TA.AperFunction,Conductor*%
%ADD44C,0.350000*%
%TD*%
%TA.AperFunction,Conductor*%
%ADD45C,0.250000*%
%TD*%
G04 APERTURE END LIST*
%TO.N,GND*%
D10*
X115000000Y-80000000D02*
X121000000Y-80000000D01*
X121000000Y-86000000D01*
X115000000Y-86000000D01*
X115000000Y-80000000D01*
%TA.AperFunction,Conductor*%
G36*
X115000000Y-80000000D02*
G01*
X121000000Y-80000000D01*
X121000000Y-86000000D01*
X115000000Y-86000000D01*
X115000000Y-80000000D01*
G37*
%TD.AperFunction*%
D11*
X115000000Y-118000000D02*
X185000000Y-118000000D01*
X185000000Y-120000000D01*
X115000000Y-120000000D01*
X115000000Y-118000000D01*
%TA.AperFunction,Conductor*%
G36*
X115000000Y-118000000D02*
G01*
X185000000Y-118000000D01*
X185000000Y-120000000D01*
X115000000Y-120000000D01*
X115000000Y-118000000D01*
G37*
%TD.AperFunction*%
D10*
X179000000Y-114000000D02*
X185000000Y-114000000D01*
X185000000Y-120000000D01*
X179000000Y-120000000D01*
X179000000Y-114000000D01*
%TA.AperFunction,Conductor*%
G36*
X179000000Y-114000000D02*
G01*
X185000000Y-114000000D01*
X185000000Y-120000000D01*
X179000000Y-120000000D01*
X179000000Y-114000000D01*
G37*
%TD.AperFunction*%
X179000000Y-80000000D02*
X185000000Y-80000000D01*
X185000000Y-86000000D01*
X179000000Y-86000000D01*
X179000000Y-80000000D01*
%TA.AperFunction,Conductor*%
G36*
X179000000Y-80000000D02*
G01*
X185000000Y-80000000D01*
X185000000Y-86000000D01*
X179000000Y-86000000D01*
X179000000Y-80000000D01*
G37*
%TD.AperFunction*%
D11*
X185000000Y-89000000D02*
X183000000Y-89000000D01*
X183000000Y-80000000D01*
X185000000Y-80000000D01*
X185000000Y-89000000D01*
%TA.AperFunction,Conductor*%
G36*
X185000000Y-89000000D02*
G01*
X183000000Y-89000000D01*
X183000000Y-80000000D01*
X185000000Y-80000000D01*
X185000000Y-89000000D01*
G37*
%TD.AperFunction*%
D10*
X121000000Y-120000000D02*
X115000000Y-120000000D01*
X115000000Y-114000000D01*
X121000000Y-114000000D01*
X121000000Y-120000000D01*
%TA.AperFunction,Conductor*%
G36*
X121000000Y-120000000D02*
G01*
X115000000Y-120000000D01*
X115000000Y-114000000D01*
X121000000Y-114000000D01*
X121000000Y-120000000D01*
G37*
%TD.AperFunction*%
D11*
X117000000Y-120000000D02*
X115000000Y-120000000D01*
X115000000Y-80000000D01*
X117000000Y-80000000D01*
X117000000Y-120000000D01*
%TA.AperFunction,Conductor*%
G36*
X117000000Y-120000000D02*
G01*
X115000000Y-120000000D01*
X115000000Y-80000000D01*
X117000000Y-80000000D01*
X117000000Y-120000000D01*
G37*
%TD.AperFunction*%
X185000000Y-120000000D02*
X183000000Y-120000000D01*
X183000000Y-98500000D01*
X185000000Y-98500000D01*
X185000000Y-120000000D01*
%TA.AperFunction,Conductor*%
G36*
X185000000Y-120000000D02*
G01*
X183000000Y-120000000D01*
X183000000Y-98500000D01*
X185000000Y-98500000D01*
X185000000Y-120000000D01*
G37*
%TD.AperFunction*%
X115000000Y-80000000D02*
X185000000Y-80000000D01*
X185000000Y-82000000D01*
X115000000Y-82000000D01*
X115000000Y-80000000D01*
%TA.AperFunction,Conductor*%
G36*
X115000000Y-80000000D02*
G01*
X185000000Y-80000000D01*
X185000000Y-82000000D01*
X115000000Y-82000000D01*
X115000000Y-80000000D01*
G37*
%TD.AperFunction*%
D12*
D13*
X183545180Y-90408207D02*
X184021371Y-90074874D01*
X183545180Y-89836779D02*
X184545180Y-89836779D01*
X184545180Y-89836779D02*
X184545180Y-90217731D01*
X184545180Y-90217731D02*
X184497561Y-90312969D01*
X184497561Y-90312969D02*
X184449942Y-90360588D01*
X184449942Y-90360588D02*
X184354704Y-90408207D01*
X184354704Y-90408207D02*
X184211847Y-90408207D01*
X184211847Y-90408207D02*
X184116609Y-90360588D01*
X184116609Y-90360588D02*
X184068990Y-90312969D01*
X184068990Y-90312969D02*
X184021371Y-90217731D01*
X184021371Y-90217731D02*
X184021371Y-89836779D01*
X184068990Y-90836779D02*
X184068990Y-91170112D01*
X183545180Y-91312969D02*
X183545180Y-90836779D01*
X183545180Y-90836779D02*
X184545180Y-90836779D01*
X184545180Y-90836779D02*
X184545180Y-91312969D01*
X184545180Y-91598684D02*
X183545180Y-91932017D01*
X183545180Y-91932017D02*
X184545180Y-92265350D01*
X183830895Y-93312970D02*
X183830895Y-93789160D01*
X183545180Y-93217732D02*
X184545180Y-93551065D01*
X184545180Y-93551065D02*
X183545180Y-93884398D01*
X184545180Y-94836780D02*
X184545180Y-95408208D01*
X183545180Y-95122494D02*
X184545180Y-95122494D01*
X184545180Y-95932018D02*
X184545180Y-96122494D01*
X184545180Y-96122494D02*
X184497561Y-96217732D01*
X184497561Y-96217732D02*
X184402323Y-96312970D01*
X184402323Y-96312970D02*
X184211847Y-96360589D01*
X184211847Y-96360589D02*
X183878514Y-96360589D01*
X183878514Y-96360589D02*
X183688038Y-96312970D01*
X183688038Y-96312970D02*
X183592800Y-96217732D01*
X183592800Y-96217732D02*
X183545180Y-96122494D01*
X183545180Y-96122494D02*
X183545180Y-95932018D01*
X183545180Y-95932018D02*
X183592800Y-95836780D01*
X183592800Y-95836780D02*
X183688038Y-95741542D01*
X183688038Y-95741542D02*
X183878514Y-95693923D01*
X183878514Y-95693923D02*
X184211847Y-95693923D01*
X184211847Y-95693923D02*
X184402323Y-95741542D01*
X184402323Y-95741542D02*
X184497561Y-95836780D01*
X184497561Y-95836780D02*
X184545180Y-95932018D01*
X183545180Y-96789161D02*
X184545180Y-96789161D01*
X184545180Y-96789161D02*
X184545180Y-97170113D01*
X184545180Y-97170113D02*
X184497561Y-97265351D01*
X184497561Y-97265351D02*
X184449942Y-97312970D01*
X184449942Y-97312970D02*
X184354704Y-97360589D01*
X184354704Y-97360589D02*
X184211847Y-97360589D01*
X184211847Y-97360589D02*
X184116609Y-97312970D01*
X184116609Y-97312970D02*
X184068990Y-97265351D01*
X184068990Y-97265351D02*
X184021371Y-97170113D01*
X184021371Y-97170113D02*
X184021371Y-96789161D01*
%TD*%
D14*
%TO.P,U1,1,3V3*%
%TO.N,3V3*%
X128500000Y-95540000D03*
D15*
%TO.P,U1,2,GPIO5*%
%TO.N,/STATUS_LED*%
X128500000Y-93000000D03*
%TO.P,U1,3,GPIO6*%
%TO.N,/CN105_OE*%
X128500000Y-90460000D03*
%TO.P,U1,4,GPIO7*%
%TO.N,/MODULE_SCL*%
X128500000Y-87920000D03*
%TO.P,U1,5,GPIO8*%
%TO.N,/MODULE_SDA*%
X128500000Y-85380000D03*
%TO.P,U1,6,GND*%
%TO.N,GND*%
X143500000Y-85380000D03*
%TO.P,U1,7,5V*%
%TO.N,5V_MODULE*%
X143500000Y-87920000D03*
%TO.P,U1,8,GPIO38*%
%TO.N,/CN105_TX_IN_3V3*%
X143500000Y-90460000D03*
%TO.P,U1,9,GPIO39*%
%TO.N,/CN105_RX_OUT_3V3*%
X143500000Y-93000000D03*
%TD*%
D16*
%TO.P,TP6,1,1*%
%TO.N,/MODULE_SCL*%
X120000000Y-103000000D03*
%TD*%
D17*
%TO.P,C10,1*%
%TO.N,GND*%
X161637500Y-102275000D03*
%TO.P,C10,2*%
%TO.N,5V_CN105*%
X163362500Y-102275000D03*
%TD*%
D18*
%TO.P,U4,1,VCCA*%
%TO.N,5V_CN105*%
X161350000Y-100225000D03*
%TO.P,U4,2,GND*%
%TO.N,GND*%
X161350000Y-99275000D03*
%TO.P,U4,3,A*%
%TO.N,/CN105_TX_IN*%
X161350000Y-98325000D03*
%TO.P,U4,4,BY*%
%TO.N,/CN105_TX_IN_3V3*%
X158650000Y-98325000D03*
%TO.P,U4,5,OE*%
%TO.N,/CN105_OE*%
X158650000Y-99275000D03*
%TO.P,U4,6,VCCB*%
%TO.N,3V3*%
X158650000Y-100225000D03*
%TD*%
D16*
%TO.P,TP4,1,1*%
%TO.N,3V3*%
X144500000Y-109500000D03*
%TD*%
D19*
%TO.P,C5,1*%
%TO.N,GND*%
X173300000Y-93037500D03*
%TO.P,C5,2*%
%TO.N,5V_CN105*%
X173300000Y-90962500D03*
%TD*%
D20*
%TO.P,C8,1*%
%TO.N,GND*%
X158362500Y-102275000D03*
%TO.P,C8,2*%
%TO.N,3V3*%
X156637500Y-102275000D03*
%TD*%
D21*
%TO.P,C4,1*%
%TO.N,GND*%
X155000000Y-85962500D03*
%TO.P,C4,2*%
%TO.N,5V_MODULE*%
X155000000Y-88037500D03*
%TD*%
D22*
%TO.P,D2,1,K*%
%TO.N,Net-(D2-K)*%
X151500000Y-98375000D03*
%TO.P,D2,2,A*%
%TO.N,/STATUS_LED*%
X151500000Y-96625000D03*
%TD*%
D23*
%TO.P,TP2,1,1*%
%TO.N,GND*%
X148000000Y-109500000D03*
%TD*%
D24*
%TO.P,R6,1*%
%TO.N,Net-(D4-K)*%
X170587500Y-97000000D03*
%TO.P,R6,2*%
%TO.N,GND*%
X172412500Y-97000000D03*
%TD*%
D25*
%TO.P,U3,1,VCCA*%
%TO.N,3V3*%
X158650000Y-106500000D03*
%TO.P,U3,2,GND*%
%TO.N,GND*%
X158650000Y-107450000D03*
%TO.P,U3,3,A*%
%TO.N,/CN105_RX_OUT_3V3*%
X158650000Y-108400000D03*
%TO.P,U3,4,BY*%
%TO.N,/CN105_RX_OUT*%
X161350000Y-108400000D03*
%TO.P,U3,5,OE*%
%TO.N,/CN105_OE*%
X161350000Y-107450000D03*
%TO.P,U3,6,VCCB*%
%TO.N,5V_CN105*%
X161350000Y-106500000D03*
%TD*%
D23*
%TO.P,TP16,1,1*%
%TO.N,GND*%
X169000000Y-110000000D03*
%TD*%
D26*
%TO.P,D5,1,K*%
%TO.N,5V_MODULE*%
X164000000Y-88000000D03*
%TO.P,D5,2,A*%
%TO.N,5V_CN105*%
X168000000Y-88000000D03*
%TD*%
D19*
%TO.P,C2,1*%
%TO.N,GND*%
X151500000Y-108037500D03*
%TO.P,C2,2*%
%TO.N,3V3*%
X151500000Y-105962500D03*
%TD*%
D16*
%TO.P,TP11,1,1*%
%TO.N,GND*%
X177000000Y-84000000D03*
%TD*%
D27*
%TO.P,R5,1*%
%TO.N,3V3*%
X124000000Y-113512500D03*
%TO.P,R5,2*%
%TO.N,/MODULE_SDA*%
X124000000Y-111687500D03*
%TD*%
D23*
%TO.P,TP3,1,1*%
%TO.N,GND*%
X121000000Y-92000000D03*
%TD*%
D17*
%TO.P,C6,1*%
%TO.N,GND*%
X178137500Y-99000000D03*
%TO.P,C6,2*%
%TO.N,/CN105_5V_IN*%
X179862500Y-99000000D03*
%TD*%
D28*
%TO.P,D3,1,K*%
%TO.N,Net-(D3-K)*%
X164875000Y-84500000D03*
%TO.P,D3,2,A*%
%TO.N,5V_MODULE*%
X163125000Y-84500000D03*
%TD*%
D22*
%TO.P,D1,1,K*%
%TO.N,Net-(D1-K)*%
X137000000Y-110375000D03*
%TO.P,D1,2,A*%
%TO.N,3V3*%
X137000000Y-108625000D03*
%TD*%
D23*
%TO.P,TP9,1,1*%
%TO.N,GND*%
X159000000Y-84500000D03*
%TD*%
D29*
%TO.P,R1,1*%
%TO.N,Net-(D1-K)*%
X137000000Y-112587500D03*
%TO.P,R1,2*%
%TO.N,GND*%
X137000000Y-114412500D03*
%TD*%
D27*
%TO.P,R8,1*%
%TO.N,5V_CN105*%
X165000000Y-100162500D03*
%TO.P,R8,2*%
%TO.N,/CN105_TX_IN*%
X165000000Y-98337500D03*
%TD*%
D24*
%TO.P,R3,1*%
%TO.N,Net-(D3-K)*%
X167087500Y-84500000D03*
%TO.P,R3,2*%
%TO.N,GND*%
X168912500Y-84500000D03*
%TD*%
D16*
%TO.P,TP7,1,1*%
%TO.N,/MODULE_SDA*%
X120000000Y-106500000D03*
%TD*%
%TO.P,TP8,1,1*%
%TO.N,5V_MODULE*%
X159000000Y-88000000D03*
%TD*%
D29*
%TO.P,R9,1*%
%TO.N,5V_CN105*%
X165000000Y-106537500D03*
%TO.P,R9,2*%
%TO.N,/CN105_RX_OUT*%
X165000000Y-108362500D03*
%TD*%
D30*
%TO.P,F1,1*%
%TO.N,5V_CN105*%
X178000000Y-91262500D03*
%TO.P,F1,2*%
%TO.N,/CN105_5V_IN*%
X178000000Y-94237500D03*
%TD*%
D16*
%TO.P,TP10,1,1*%
%TO.N,5V_CN105*%
X180500000Y-87500000D03*
%TD*%
%TO.P,TP1,1,1*%
%TO.N,/STATUS_LED*%
X121000000Y-98000000D03*
%TD*%
D22*
%TO.P,D4,1,K*%
%TO.N,Net-(D4-K)*%
X170500000Y-94875000D03*
%TO.P,D4,2,A*%
%TO.N,5V_CN105*%
X170500000Y-93125000D03*
%TD*%
D17*
%TO.P,C9,1*%
%TO.N,GND*%
X161637500Y-104450000D03*
%TO.P,C9,2*%
%TO.N,5V_CN105*%
X163362500Y-104450000D03*
%TD*%
D16*
%TO.P,TP12,1,1*%
%TO.N,/12V*%
X167500000Y-115000000D03*
%TD*%
D29*
%TO.P,R7,1*%
%TO.N,/CN105_OE*%
X153500000Y-96587500D03*
%TO.P,R7,2*%
%TO.N,GND*%
X153500000Y-98412500D03*
%TD*%
D31*
%TO.P,C3,1*%
%TO.N,GND*%
X152000000Y-86137500D03*
%TO.P,C3,2*%
%TO.N,5V_MODULE*%
X152000000Y-87862500D03*
%TD*%
D20*
%TO.P,C7,1*%
%TO.N,GND*%
X158362500Y-104450000D03*
%TO.P,C7,2*%
%TO.N,3V3*%
X156637500Y-104450000D03*
%TD*%
D32*
%TO.P,R4,1*%
%TO.N,3V3*%
X131612500Y-109300000D03*
%TO.P,R4,2*%
%TO.N,/MODULE_SCL*%
X129787500Y-109300000D03*
%TD*%
D23*
%TO.P,TP13,1,1*%
%TO.N,GND*%
X163500000Y-115000000D03*
%TD*%
D33*
%TO.P,U2,1,SDA*%
%TO.N,/MODULE_SDA*%
X127000000Y-111700000D03*
%TO.P,U2,2,GND*%
%TO.N,GND*%
X127000000Y-112650000D03*
%TO.P,U2,3,NC*%
%TO.N,unconnected-(U2-NC-Pad3)*%
X127000000Y-113600000D03*
%TO.P,U2,4,NC*%
%TO.N,unconnected-(U2-NC-Pad4)*%
X129800000Y-113600000D03*
%TO.P,U2,5,VCC*%
%TO.N,3V3*%
X129800000Y-112650000D03*
%TO.P,U2,6,SCL*%
%TO.N,/MODULE_SCL*%
X129800000Y-111700000D03*
D34*
%TO.P,U2,7,DAP*%
%TO.N,unconnected-(U2-DAP-Pad7)*%
X128400000Y-112650000D03*
%TD*%
D17*
%TO.P,C1,1*%
%TO.N,3V3*%
X132137500Y-112650000D03*
%TO.P,C1,2*%
%TO.N,GND*%
X133862500Y-112650000D03*
%TD*%
D35*
%TO.P,J1,1,Pin_1*%
%TO.N,/12V*%
X177000000Y-112000000D03*
D36*
%TO.P,J1,2,Pin_2*%
%TO.N,GND*%
X177000000Y-110000000D03*
%TO.P,J1,3,Pin_3*%
%TO.N,/CN105_5V_IN*%
X177000000Y-108000000D03*
%TO.P,J1,4,Pin_4*%
%TO.N,/CN105_TX_IN*%
X177000000Y-106000000D03*
%TO.P,J1,5,Pin_5*%
%TO.N,/CN105_RX_OUT*%
X177000000Y-104000000D03*
%TD*%
D16*
%TO.P,TP14,1,1*%
%TO.N,/CN105_TX_IN*%
X169000000Y-100000000D03*
%TD*%
%TO.P,TP15,1,1*%
%TO.N,/CN105_RX_OUT*%
X169000000Y-104500000D03*
%TD*%
D23*
%TO.P,TP5,1,1*%
%TO.N,GND*%
X120000000Y-110000000D03*
%TD*%
D24*
%TO.P,R2,1*%
%TO.N,Net-(D2-K)*%
X151587500Y-100500000D03*
%TO.P,R2,2*%
%TO.N,GND*%
X153412500Y-100500000D03*
%TD*%
D37*
%TO.N,GND*%
X152300000Y-94200000D03*
X153500000Y-93000000D03*
X145200000Y-92200000D03*
X145200000Y-93800000D03*
X146700000Y-92200000D03*
X146700000Y-93800000D03*
X148200000Y-92200000D03*
X148200000Y-93800000D03*
X136000000Y-81000000D03*
X116000000Y-107000000D03*
D38*
X160000000Y-99225000D03*
D39*
X118000000Y-117000000D03*
D37*
X173500000Y-97000000D03*
X116000000Y-85000000D03*
X120000000Y-85000000D03*
X120000000Y-83000000D03*
X166000000Y-81000000D03*
X184000000Y-87000000D03*
X160000000Y-104500000D03*
X149700000Y-92200000D03*
X116000000Y-115000000D03*
X130000000Y-81000000D03*
X182000000Y-81000000D03*
X184000000Y-101000000D03*
X156000000Y-81000000D03*
X151000000Y-86137500D03*
X116000000Y-105000000D03*
X120000000Y-119000000D03*
X184000000Y-99000000D03*
X153400000Y-95200000D03*
X118000000Y-81000000D03*
X152962500Y-108037500D03*
X172000000Y-119000000D03*
X148000000Y-119000000D03*
X184000000Y-81000000D03*
X134000000Y-119000000D03*
X155400000Y-107500000D03*
X136000000Y-119000000D03*
X160000000Y-100775000D03*
X176000000Y-119000000D03*
X162850000Y-99275000D03*
X158000000Y-81000000D03*
X122000000Y-119000000D03*
X170000000Y-81000000D03*
X184000000Y-103000000D03*
X160000000Y-81000000D03*
X173300000Y-94250000D03*
X128000000Y-81000000D03*
X150000000Y-108037500D03*
X132000000Y-119000000D03*
X184000000Y-83000000D03*
X130000000Y-119000000D03*
X174000000Y-81000000D03*
X120000000Y-115000000D03*
X184000000Y-111000000D03*
X116000000Y-89000000D03*
X178100000Y-100000000D03*
X116000000Y-97000000D03*
X180000000Y-83000000D03*
X162000000Y-119000000D03*
X184000000Y-117000000D03*
X116000000Y-91000000D03*
X116000000Y-119000000D03*
X152000000Y-81000000D03*
X154000000Y-81000000D03*
X142000000Y-81000000D03*
X164000000Y-119000000D03*
X128000000Y-119000000D03*
X116000000Y-87000000D03*
X126000000Y-81000000D03*
X138000000Y-119000000D03*
X176000000Y-81000000D03*
X151300000Y-92200000D03*
X151300000Y-93800000D03*
X146000000Y-81000000D03*
X154750000Y-96500000D03*
X120000000Y-81000000D03*
X116000000Y-93000000D03*
X157250000Y-97750000D03*
X116000000Y-111000000D03*
X118000000Y-119000000D03*
X134000000Y-81000000D03*
X182000000Y-119000000D03*
X184000000Y-115000000D03*
X144000000Y-119000000D03*
X164000000Y-81000000D03*
X148000000Y-81000000D03*
X184000000Y-85000000D03*
X155500000Y-97750000D03*
X120000000Y-117000000D03*
X157316228Y-107451315D03*
X180000000Y-117000000D03*
D38*
X160000000Y-105950000D03*
D37*
X146000000Y-119000000D03*
X124000000Y-81000000D03*
X116000000Y-81000000D03*
X158000000Y-119000000D03*
X180000000Y-115000000D03*
X162200000Y-97400000D03*
X153412500Y-99500000D03*
X184000000Y-107000000D03*
X137000000Y-115500000D03*
X140000000Y-119000000D03*
X116000000Y-103000000D03*
X126150000Y-112650000D03*
X182000000Y-85000000D03*
X160450000Y-97400000D03*
X140000000Y-81000000D03*
X150000000Y-81000000D03*
X182000000Y-115000000D03*
X132000000Y-81000000D03*
X116000000Y-109000000D03*
D39*
X118000000Y-83000000D03*
D37*
X155975000Y-95275000D03*
X178000000Y-81000000D03*
X126000000Y-119000000D03*
X168000000Y-81000000D03*
X118000000Y-85000000D03*
X118000000Y-115000000D03*
X142000000Y-119000000D03*
X153593750Y-85962500D03*
X124000000Y-119000000D03*
X184000000Y-113000000D03*
X138000000Y-81000000D03*
X174000000Y-119000000D03*
X152000000Y-119000000D03*
X144000000Y-81000000D03*
X116000000Y-117000000D03*
X116000000Y-101000000D03*
D39*
X182000000Y-117000000D03*
D38*
X160000000Y-107000000D03*
D37*
X180000000Y-81000000D03*
X155500000Y-103400000D03*
X184000000Y-109000000D03*
X149700000Y-93800000D03*
X170000000Y-84500000D03*
X180000000Y-85000000D03*
X168000000Y-119000000D03*
X156000000Y-119000000D03*
X172000000Y-81000000D03*
X178000000Y-119000000D03*
X116000000Y-83000000D03*
X166000000Y-119000000D03*
X180000000Y-119000000D03*
D39*
X182000000Y-83000000D03*
D37*
X160000000Y-102225000D03*
X184000000Y-119000000D03*
X162000000Y-81000000D03*
X133862500Y-111650000D03*
X150000000Y-119000000D03*
X160000000Y-119000000D03*
X184000000Y-105000000D03*
X116000000Y-95000000D03*
X116000000Y-113000000D03*
X170000000Y-119000000D03*
X122000000Y-81000000D03*
X157600000Y-103400000D03*
X154000000Y-119000000D03*
X154600000Y-94000000D03*
X116000000Y-99000000D03*
%TO.N,5V_CN105*%
X161400000Y-95600000D03*
X161400000Y-96500000D03*
X163000000Y-100700000D03*
X162400000Y-95600000D03*
%TO.N,/CN105_OE*%
X162700000Y-107450000D03*
X157300000Y-99300000D03*
%TO.N,/CN105_RX_OUT_3V3*%
X156400000Y-108400000D03*
%TD*%
D40*
%TO.N,5V_MODULE*%
X143500000Y-87920000D02*
X145380000Y-87920000D01*
D41*
%TO.N,GND*%
X152300000Y-94200000D02*
X153500000Y-93000000D01*
X145200000Y-92200000D02*
X145200000Y-93800000D01*
D11*
%TO.N,/CN105_OE*%
X153487500Y-96587500D02*
X152000000Y-95100000D01*
X136060000Y-90460000D02*
X128500000Y-90460000D01*
X153500000Y-96587500D02*
X153487500Y-96587500D01*
X152000000Y-95100000D02*
X140700000Y-95100000D01*
X140700000Y-95100000D02*
X136060000Y-90460000D01*
%TO.N,/STATUS_LED*%
X134000000Y-93000000D02*
X128500000Y-93000000D01*
X151500000Y-96625000D02*
X137625000Y-96625000D01*
X137625000Y-96625000D02*
X134000000Y-93000000D01*
D41*
%TO.N,GND*%
X146700000Y-92200000D02*
X146700000Y-93800000D01*
X148200000Y-92200000D02*
X148200000Y-93800000D01*
D11*
%TO.N,/CN105_TX_IN_3V3*%
X155160000Y-90460000D02*
X143500000Y-90460000D01*
X158650000Y-93950000D02*
X155160000Y-90460000D01*
X158650000Y-98325000D02*
X158650000Y-93950000D01*
%TO.N,/MODULE_SDA*%
X117700000Y-88000000D02*
X117700000Y-104200000D01*
X117700000Y-104200000D02*
X120000000Y-106500000D01*
X118600000Y-87100000D02*
X117700000Y-88000000D01*
X124500000Y-87100000D02*
X118600000Y-87100000D01*
X126220000Y-85380000D02*
X124500000Y-87100000D01*
X128500000Y-85380000D02*
X126220000Y-85380000D01*
%TO.N,/MODULE_SCL*%
X119480000Y-87920000D02*
X128500000Y-87920000D01*
X118400000Y-89000000D02*
X119480000Y-87920000D01*
X120000000Y-103000000D02*
X118400000Y-101400000D01*
X118400000Y-101400000D02*
X118400000Y-89000000D01*
%TO.N,/STATUS_LED*%
X121000000Y-96000000D02*
X124000000Y-93000000D01*
X124000000Y-93000000D02*
X128500000Y-93000000D01*
X121000000Y-98000000D02*
X121000000Y-96000000D01*
D42*
%TO.N,5V_MODULE*%
X151942500Y-87920000D02*
X152000000Y-87862500D01*
D41*
%TO.N,GND*%
X151300000Y-92200000D02*
X151300000Y-93800000D01*
X151000000Y-86137500D02*
X152000000Y-86137500D01*
X157250000Y-97750000D02*
X155500000Y-97750000D01*
D11*
X127000000Y-112650000D02*
X126900000Y-112650000D01*
D43*
X154956250Y-85962500D02*
X153593750Y-85962500D01*
D44*
X150000000Y-108037500D02*
X151462500Y-108037500D01*
D42*
X160150000Y-102225000D02*
X158412500Y-102225000D01*
D11*
X126650000Y-112650000D02*
X126150000Y-112650000D01*
X172412500Y-97000000D02*
X173500000Y-97000000D01*
D43*
X173300000Y-94250000D02*
X173300000Y-93037500D01*
D41*
X157600000Y-103400000D02*
X155500000Y-103400000D01*
D11*
X153412500Y-99500000D02*
X153412500Y-100500000D01*
D44*
X178100000Y-100000000D02*
X178100000Y-99037500D01*
D43*
X160000000Y-102225000D02*
X160000000Y-100775000D01*
D42*
X159850000Y-104500000D02*
X161587500Y-104500000D01*
D41*
X158750000Y-107450000D02*
X157500000Y-107450000D01*
D45*
X159550000Y-107450000D02*
X160000000Y-107000000D01*
D41*
X161350000Y-99275000D02*
X162850000Y-99275000D01*
D11*
X153412500Y-99500000D02*
X153412500Y-98500000D01*
D44*
X152962500Y-108037500D02*
X151500000Y-108037500D01*
D41*
X149700000Y-92200000D02*
X149700000Y-93800000D01*
X153400000Y-95200000D02*
X154600000Y-94000000D01*
X133862500Y-112650000D02*
X133862500Y-111650000D01*
D11*
X160000000Y-104500000D02*
X159850000Y-104500000D01*
D42*
X161587500Y-104500000D02*
X161637500Y-104450000D01*
D11*
X168912500Y-84500000D02*
X170000000Y-84500000D01*
D43*
X160000000Y-105950000D02*
X160000000Y-107000000D01*
D41*
X162200000Y-97400000D02*
X160450000Y-97400000D01*
X157267543Y-107500000D02*
X157316228Y-107451315D01*
X154750000Y-96500000D02*
X155975000Y-95275000D01*
D43*
X160000000Y-105950000D02*
X160000000Y-104500000D01*
D45*
X158650000Y-107450000D02*
X159550000Y-107450000D01*
D43*
X160000000Y-100775000D02*
X160000000Y-99225000D01*
D11*
X126650000Y-112650000D02*
X126400000Y-112650000D01*
D41*
X155400000Y-107500000D02*
X157267543Y-107500000D01*
X137000000Y-114500000D02*
X137000000Y-115500000D01*
D11*
X127000000Y-112650000D02*
X126650000Y-112650000D01*
D41*
X161500000Y-99225000D02*
X160000000Y-99225000D01*
X155600000Y-107500000D02*
X155400000Y-107500000D01*
D42*
X158712500Y-104500000D02*
X159850000Y-104500000D01*
X161287500Y-102225000D02*
X160150000Y-102225000D01*
D11*
%TO.N,5V_CN105*%
X164525000Y-102275000D02*
X163362500Y-102275000D01*
X161400000Y-106550000D02*
X161350000Y-106500000D01*
X164650000Y-104450000D02*
X163362500Y-104450000D01*
D44*
X161350000Y-100225000D02*
X162525000Y-100225000D01*
X163000000Y-100700000D02*
X163362500Y-101062500D01*
D11*
X165000000Y-106537500D02*
X165000000Y-104800000D01*
X165000000Y-101800000D02*
X164525000Y-102275000D01*
D44*
X163362500Y-105737500D02*
X163362500Y-104450000D01*
X163362500Y-101062500D02*
X163362500Y-102275000D01*
X162525000Y-100225000D02*
X163000000Y-100700000D01*
D42*
X163362500Y-102275000D02*
X163362500Y-104450000D01*
D44*
X162600000Y-106500000D02*
X163362500Y-105737500D01*
X161350000Y-106500000D02*
X162600000Y-106500000D01*
D11*
X165000000Y-100162500D02*
X165000000Y-101800000D01*
X165000000Y-104800000D02*
X164650000Y-104450000D01*
D41*
%TO.N,3V3*%
X124012500Y-113512500D02*
X124000000Y-113512500D01*
D11*
X137000000Y-108625000D02*
X137000000Y-106700000D01*
D41*
X132137500Y-112650000D02*
X132137500Y-113662500D01*
D42*
X132137500Y-111237500D02*
X132137500Y-112650000D01*
X131612500Y-109300000D02*
X131612500Y-110712500D01*
D41*
X131000000Y-114800000D02*
X125300000Y-114800000D01*
X125300000Y-114800000D02*
X124012500Y-113512500D01*
D42*
X144500000Y-109500000D02*
X144500000Y-106400000D01*
D11*
X129800000Y-112650000D02*
X132137500Y-112650000D01*
D42*
X131612500Y-109300000D02*
X131612500Y-106412500D01*
D41*
X132137500Y-113662500D02*
X131000000Y-114800000D01*
D11*
X156325000Y-102275000D02*
X156637500Y-102275000D01*
D42*
X131612500Y-110712500D02*
X132137500Y-111237500D01*
D11*
%TO.N,5V_MODULE*%
X164000000Y-86400000D02*
X164000000Y-88000000D01*
D42*
X153062500Y-87862500D02*
X152000000Y-87862500D01*
X155000000Y-88037500D02*
X153237500Y-88037500D01*
D11*
X163125000Y-85525000D02*
X164000000Y-86400000D01*
X158962500Y-88037500D02*
X159000000Y-88000000D01*
X152175000Y-88037500D02*
X152000000Y-87862500D01*
D42*
X155000000Y-88037500D02*
X158962500Y-88037500D01*
X164000000Y-88000000D02*
X159000000Y-88000000D01*
X153237500Y-88037500D02*
X153062500Y-87862500D01*
D11*
X163125000Y-84500000D02*
X163125000Y-85525000D01*
D44*
%TO.N,/CN105_5V_IN*%
X177000000Y-108000000D02*
X179000000Y-108000000D01*
D11*
%TO.N,/MODULE_SCL*%
X126300000Y-109300000D02*
X130087500Y-109300000D01*
X129800000Y-111700000D02*
X129800000Y-109312500D01*
X120000000Y-103000000D02*
X126300000Y-109300000D01*
%TO.N,/MODULE_SDA*%
X124000000Y-111687500D02*
X126987500Y-111687500D01*
X120000000Y-106500000D02*
X124000000Y-110500000D01*
X126987500Y-111687500D02*
X127000000Y-111700000D01*
X124000000Y-110500000D02*
X124000000Y-111387500D01*
%TO.N,Net-(D1-K)*%
X137000000Y-110375000D02*
X137000000Y-112587500D01*
%TO.N,Net-(D3-K)*%
X164875000Y-84500000D02*
X167087500Y-84500000D01*
%TO.N,Net-(D4-K)*%
X170500000Y-94875000D02*
X170500000Y-96912500D01*
X170500000Y-96912500D02*
X170587500Y-97000000D01*
%TO.N,/CN105_OE*%
X155400000Y-99300000D02*
X158625000Y-99300000D01*
X153500000Y-96587500D02*
X154600000Y-97687500D01*
X158625000Y-99300000D02*
X158650000Y-99275000D01*
X154600000Y-97687500D02*
X154600000Y-98500000D01*
X162700000Y-107450000D02*
X161350000Y-107450000D01*
X154600000Y-98500000D02*
X155400000Y-99300000D01*
D42*
%TO.N,/12V*%
X177000000Y-112000000D02*
X170500000Y-112000000D01*
X170500000Y-112000000D02*
X167500000Y-115000000D01*
D11*
%TO.N,/CN105_TX_IN*%
X176200000Y-100000000D02*
X178500000Y-102300000D01*
X167337500Y-98337500D02*
X169000000Y-100000000D01*
X178500000Y-104500000D02*
X177000000Y-106000000D01*
X164987500Y-98325000D02*
X165000000Y-98337500D01*
X169000000Y-100000000D02*
X176200000Y-100000000D01*
X178500000Y-102300000D02*
X178500000Y-104500000D01*
X161350000Y-98325000D02*
X164987500Y-98325000D01*
X165000000Y-98337500D02*
X167337500Y-98337500D01*
%TO.N,/CN105_RX_OUT*%
X169000000Y-106200000D02*
X169000000Y-104500000D01*
X161350000Y-108400000D02*
X164962500Y-108400000D01*
X173600000Y-104600000D02*
X174200000Y-104000000D01*
X174200000Y-104000000D02*
X177000000Y-104000000D01*
X164962500Y-108400000D02*
X165000000Y-108362500D01*
X166837500Y-108362500D02*
X169000000Y-106200000D01*
X169000000Y-104500000D02*
X169100000Y-104600000D01*
X169100000Y-104600000D02*
X173600000Y-104600000D01*
X165000000Y-108362500D02*
X166837500Y-108362500D01*
D41*
%TO.N,/CN105_RX_OUT_3V3*%
X156400000Y-108400000D02*
X158400000Y-108400000D01*
X158400000Y-108400000D02*
X158500000Y-108500000D01*
D11*
%TO.N,Net-(D2-K)*%
X151587500Y-100500000D02*
X151587500Y-98462500D01*
X151587500Y-98462500D02*
X151500000Y-98375000D01*
%TD*%
%TA.AperFunction,Conductor*%
%TO.N,/CN105_5V_IN*%
G36*
X176857017Y-93019685D02*
G01*
X176902772Y-93072489D01*
X176912716Y-93141647D01*
X176883691Y-93205203D01*
X176877659Y-93211681D01*
X176782684Y-93306655D01*
X176690643Y-93455876D01*
X176690641Y-93455881D01*
X176635494Y-93622303D01*
X176635493Y-93622310D01*
X176625000Y-93725014D01*
X176625000Y-93987500D01*
X179375000Y-93987500D01*
X179375000Y-93725027D01*
X179374999Y-93725014D01*
X179364506Y-93622310D01*
X179364505Y-93622303D01*
X179309358Y-93455881D01*
X179309356Y-93455876D01*
X179217315Y-93306655D01*
X179122341Y-93211681D01*
X179088856Y-93150358D01*
X179093840Y-93080666D01*
X179135712Y-93024733D01*
X179201176Y-93000316D01*
X179210022Y-93000000D01*
X181876000Y-93000000D01*
X181943039Y-93019685D01*
X181988794Y-93072489D01*
X182000000Y-93124000D01*
X182000000Y-109876000D01*
X181980315Y-109943039D01*
X181927511Y-109988794D01*
X181876000Y-110000000D01*
X178220123Y-110000000D01*
X178153084Y-109980315D01*
X178107329Y-109927511D01*
X178097650Y-109895397D01*
X178073403Y-109742303D01*
X178073402Y-109742302D01*
X178073402Y-109742299D01*
X178019873Y-109577555D01*
X177941232Y-109423212D01*
X177839414Y-109283072D01*
X177716928Y-109160586D01*
X177716924Y-109160583D01*
X177702525Y-109150121D01*
X177659861Y-109094790D01*
X177651795Y-109040077D01*
X177654328Y-109007882D01*
X177046446Y-108400000D01*
X177052661Y-108400000D01*
X177154394Y-108372741D01*
X177245606Y-108320080D01*
X177320080Y-108245606D01*
X177372741Y-108154394D01*
X177400000Y-108052661D01*
X177400000Y-108046446D01*
X178007882Y-108654328D01*
X178007883Y-108654328D01*
X178026331Y-108628937D01*
X178112085Y-108460637D01*
X178170451Y-108281002D01*
X178200000Y-108094447D01*
X178200000Y-107905552D01*
X178170451Y-107718997D01*
X178112085Y-107539362D01*
X178026329Y-107371059D01*
X178007883Y-107345670D01*
X178007882Y-107345669D01*
X177400000Y-107953552D01*
X177400000Y-107947339D01*
X177372741Y-107845606D01*
X177320080Y-107754394D01*
X177245606Y-107679920D01*
X177154394Y-107627259D01*
X177052661Y-107600000D01*
X177046444Y-107600000D01*
X177654328Y-106992116D01*
X177651794Y-106959925D01*
X177666157Y-106891547D01*
X177702525Y-106849877D01*
X177716928Y-106839414D01*
X177839414Y-106716928D01*
X177941232Y-106576788D01*
X178019873Y-106422445D01*
X178073402Y-106257701D01*
X178097650Y-106104601D01*
X178127579Y-106041468D01*
X178186890Y-106004536D01*
X178220123Y-106000000D01*
X179000000Y-106000000D01*
X179000000Y-104577817D01*
X179000500Y-104570187D01*
X179000500Y-102229815D01*
X179000000Y-102222185D01*
X179000000Y-99979229D01*
X179019685Y-99912190D01*
X179072489Y-99866435D01*
X179141647Y-99856491D01*
X179189098Y-99873691D01*
X179248692Y-99910450D01*
X179248699Y-99910453D01*
X179412347Y-99964680D01*
X179513351Y-99974999D01*
X180112500Y-99974999D01*
X180211640Y-99974999D01*
X180211654Y-99974998D01*
X180312652Y-99964680D01*
X180476300Y-99910453D01*
X180476311Y-99910448D01*
X180623034Y-99819947D01*
X180623038Y-99819944D01*
X180744944Y-99698038D01*
X180744947Y-99698034D01*
X180835448Y-99551311D01*
X180835453Y-99551300D01*
X180889680Y-99387652D01*
X180899999Y-99286654D01*
X180900000Y-99286641D01*
X180900000Y-99250000D01*
X180112500Y-99250000D01*
X180112500Y-99974999D01*
X179513351Y-99974999D01*
X179612500Y-99974998D01*
X179612500Y-98750000D01*
X180112500Y-98750000D01*
X180899999Y-98750000D01*
X180899999Y-98713360D01*
X180899998Y-98713345D01*
X180889680Y-98612347D01*
X180835453Y-98448699D01*
X180835448Y-98448688D01*
X180744947Y-98301965D01*
X180744944Y-98301961D01*
X180623038Y-98180055D01*
X180623034Y-98180052D01*
X180476311Y-98089551D01*
X180476300Y-98089546D01*
X180312652Y-98035319D01*
X180211654Y-98025000D01*
X180112500Y-98025000D01*
X180112500Y-98750000D01*
X179612500Y-98750000D01*
X179612500Y-98024999D01*
X179513360Y-98025000D01*
X179513344Y-98025001D01*
X179412347Y-98035319D01*
X179248699Y-98089546D01*
X179248694Y-98089548D01*
X179189097Y-98126309D01*
X179121704Y-98144749D01*
X179055041Y-98123826D01*
X179010271Y-98070184D01*
X179000000Y-98020770D01*
X179000000Y-96750000D01*
X175374000Y-96750000D01*
X175306961Y-96730315D01*
X175261206Y-96677511D01*
X175250000Y-96626000D01*
X175250000Y-94749985D01*
X176625000Y-94749985D01*
X176635493Y-94852689D01*
X176635494Y-94852696D01*
X176690641Y-95019118D01*
X176690643Y-95019123D01*
X176782684Y-95168344D01*
X176906655Y-95292315D01*
X177055876Y-95384356D01*
X177055881Y-95384358D01*
X177222303Y-95439505D01*
X177222310Y-95439506D01*
X177325014Y-95449999D01*
X177325027Y-95450000D01*
X177750000Y-95450000D01*
X178250000Y-95450000D01*
X178674973Y-95450000D01*
X178674985Y-95449999D01*
X178777689Y-95439506D01*
X178777696Y-95439505D01*
X178944118Y-95384358D01*
X178944123Y-95384356D01*
X179093344Y-95292315D01*
X179217315Y-95168344D01*
X179309356Y-95019123D01*
X179309358Y-95019118D01*
X179364505Y-94852696D01*
X179364506Y-94852689D01*
X179374999Y-94749985D01*
X179375000Y-94749972D01*
X179375000Y-94487500D01*
X178250000Y-94487500D01*
X178250000Y-95450000D01*
X177750000Y-95450000D01*
X177750000Y-94487500D01*
X176625000Y-94487500D01*
X176625000Y-94749985D01*
X175250000Y-94749985D01*
X175250000Y-93124000D01*
X175269685Y-93056961D01*
X175322489Y-93011206D01*
X175374000Y-93000000D01*
X176789978Y-93000000D01*
X176857017Y-93019685D01*
G37*
%TD.AperFunction*%
%TD*%
%TA.AperFunction,Conductor*%
%TO.N,5V_CN105*%
G36*
X178531381Y-86019685D02*
G01*
X178577136Y-86072489D01*
X178584114Y-86091900D01*
X178603497Y-86164237D01*
X178659515Y-86261263D01*
X178738737Y-86340485D01*
X178835763Y-86396503D01*
X178943982Y-86425500D01*
X179056018Y-86425500D01*
X179183205Y-86425500D01*
X179250244Y-86445185D01*
X179295999Y-86497989D01*
X179305943Y-86567147D01*
X179283523Y-86622386D01*
X179217085Y-86713828D01*
X179109897Y-86924197D01*
X179036934Y-87148752D01*
X179000000Y-87381947D01*
X179000000Y-87618052D01*
X179036934Y-87851247D01*
X179109897Y-88075802D01*
X179217087Y-88286174D01*
X179277338Y-88369104D01*
X179277340Y-88369105D01*
X180017037Y-87629408D01*
X180034075Y-87692993D01*
X180099901Y-87807007D01*
X180192993Y-87900099D01*
X180307007Y-87965925D01*
X180370590Y-87982962D01*
X179630893Y-88722658D01*
X179713828Y-88782914D01*
X179924197Y-88890102D01*
X180148752Y-88963065D01*
X180148751Y-88963065D01*
X180381948Y-89000000D01*
X180618052Y-89000000D01*
X180851247Y-88963065D01*
X181075802Y-88890102D01*
X181286163Y-88782918D01*
X181286169Y-88782914D01*
X181369104Y-88722658D01*
X181369105Y-88722658D01*
X180629408Y-87982962D01*
X180692993Y-87965925D01*
X180807007Y-87900099D01*
X180900099Y-87807007D01*
X180965925Y-87692993D01*
X180982962Y-87629409D01*
X181722658Y-88369105D01*
X181722659Y-88369104D01*
X181775682Y-88296125D01*
X181831012Y-88253459D01*
X181900625Y-88247480D01*
X181962420Y-88280086D01*
X181996777Y-88340924D01*
X182000000Y-88369010D01*
X182000000Y-91876000D01*
X181980315Y-91943039D01*
X181927511Y-91988794D01*
X181876000Y-92000000D01*
X179489325Y-92000000D01*
X179422286Y-91980315D01*
X179376531Y-91927511D01*
X179365967Y-91863397D01*
X179374999Y-91774985D01*
X179375000Y-91774972D01*
X179375000Y-91512500D01*
X176625000Y-91512500D01*
X176625000Y-91774985D01*
X176634033Y-91863397D01*
X176621264Y-91932090D01*
X176573383Y-91982975D01*
X176510675Y-92000000D01*
X174435023Y-92000000D01*
X174367984Y-91980315D01*
X174322229Y-91927511D01*
X174312285Y-91858353D01*
X174341310Y-91794797D01*
X174347342Y-91788319D01*
X174367315Y-91768345D01*
X174459356Y-91619124D01*
X174459358Y-91619119D01*
X174514505Y-91452697D01*
X174514506Y-91452690D01*
X174524999Y-91349986D01*
X174525000Y-91349973D01*
X174525000Y-91212500D01*
X172075001Y-91212500D01*
X172075001Y-91349986D01*
X172085494Y-91452697D01*
X172140641Y-91619119D01*
X172140643Y-91619124D01*
X172232684Y-91768345D01*
X172252658Y-91788319D01*
X172286143Y-91849642D01*
X172281159Y-91919334D01*
X172239287Y-91975267D01*
X172173823Y-91999684D01*
X172164977Y-92000000D01*
X172000000Y-92000000D01*
X172000000Y-96052228D01*
X171980315Y-96119267D01*
X171927511Y-96165022D01*
X171910602Y-96171302D01*
X171907113Y-96172315D01*
X171907103Y-96172320D01*
X171768363Y-96254369D01*
X171768351Y-96254378D01*
X171654378Y-96368351D01*
X171654372Y-96368359D01*
X171606732Y-96448916D01*
X171555663Y-96496599D01*
X171486922Y-96509103D01*
X171422332Y-96482458D01*
X171393268Y-96448916D01*
X171378752Y-96424371D01*
X171345626Y-96368357D01*
X171345624Y-96368355D01*
X171345621Y-96368351D01*
X171231648Y-96254378D01*
X171231636Y-96254369D01*
X171092896Y-96172320D01*
X171092883Y-96172314D01*
X171089895Y-96171446D01*
X171087831Y-96170128D01*
X171085731Y-96169219D01*
X171085877Y-96168879D01*
X171067487Y-96157133D01*
X171043297Y-96146086D01*
X171038495Y-96138615D01*
X171031012Y-96133835D01*
X171019897Y-96109675D01*
X171005523Y-96087308D01*
X171003665Y-96074392D01*
X171001811Y-96070360D01*
X171000500Y-96052373D01*
X171000500Y-95818911D01*
X171020185Y-95751872D01*
X171061380Y-95712179D01*
X171086035Y-95697597D01*
X171131643Y-95670626D01*
X171245626Y-95556643D01*
X171327681Y-95417894D01*
X171372654Y-95263098D01*
X171375500Y-95226935D01*
X171375499Y-94523066D01*
X171372654Y-94486902D01*
X171327681Y-94332106D01*
X171245626Y-94193357D01*
X171245624Y-94193355D01*
X171245621Y-94193351D01*
X171210307Y-94158037D01*
X171176822Y-94096714D01*
X171181806Y-94027022D01*
X171210307Y-93982674D01*
X171319948Y-93873033D01*
X171410448Y-93726311D01*
X171410453Y-93726300D01*
X171464680Y-93562652D01*
X171474999Y-93461654D01*
X171475000Y-93461641D01*
X171475000Y-93375000D01*
X169525001Y-93375000D01*
X169525001Y-93461654D01*
X169535319Y-93562652D01*
X169589546Y-93726300D01*
X169589551Y-93726311D01*
X169680052Y-93873034D01*
X169680055Y-93873038D01*
X169789692Y-93982675D01*
X169823177Y-94043998D01*
X169818193Y-94113690D01*
X169789693Y-94158036D01*
X169754379Y-94193350D01*
X169754369Y-94193363D01*
X169672320Y-94332103D01*
X169672317Y-94332110D01*
X169627346Y-94486897D01*
X169627345Y-94486903D01*
X169624500Y-94523057D01*
X169624500Y-95226922D01*
X169624501Y-95226947D01*
X169627346Y-95263098D01*
X169672317Y-95417889D01*
X169672320Y-95417896D01*
X169754369Y-95556636D01*
X169754378Y-95556648D01*
X169868349Y-95670619D01*
X169868353Y-95670622D01*
X169868357Y-95670626D01*
X169897449Y-95687830D01*
X169938620Y-95712179D01*
X169986304Y-95763247D01*
X169999500Y-95818911D01*
X169999500Y-96150442D01*
X169979815Y-96217481D01*
X169948226Y-96247925D01*
X169949520Y-96249594D01*
X169943351Y-96254378D01*
X169829378Y-96368351D01*
X169829369Y-96368363D01*
X169747320Y-96507103D01*
X169747317Y-96507110D01*
X169702346Y-96661897D01*
X169702345Y-96661903D01*
X169699500Y-96698057D01*
X169699500Y-96698065D01*
X169699500Y-96876001D01*
X169679817Y-96943039D01*
X169627013Y-96988794D01*
X169575501Y-97000000D01*
X162961761Y-97000000D01*
X162894722Y-96980315D01*
X162858658Y-96944890D01*
X162857421Y-96943039D01*
X162821789Y-96889711D01*
X162821787Y-96889708D01*
X162710292Y-96778213D01*
X162710288Y-96778210D01*
X162579185Y-96690609D01*
X162579172Y-96690602D01*
X162433501Y-96630264D01*
X162433489Y-96630261D01*
X162278845Y-96599500D01*
X162278842Y-96599500D01*
X162121158Y-96599500D01*
X162121155Y-96599500D01*
X161966510Y-96630261D01*
X161966498Y-96630264D01*
X161820827Y-96690602D01*
X161820814Y-96690609D01*
X161689711Y-96778210D01*
X161689707Y-96778213D01*
X161654742Y-96813180D01*
X161593420Y-96846666D01*
X161567060Y-96849500D01*
X161082940Y-96849500D01*
X161015901Y-96829815D01*
X160995258Y-96813180D01*
X160960292Y-96778213D01*
X160960288Y-96778210D01*
X160829185Y-96690609D01*
X160829172Y-96690602D01*
X160683501Y-96630264D01*
X160683491Y-96630261D01*
X160599808Y-96613615D01*
X160537897Y-96581229D01*
X160503323Y-96520513D01*
X160500000Y-96491998D01*
X160500000Y-92788345D01*
X169525000Y-92788345D01*
X169525000Y-92875000D01*
X170250000Y-92875000D01*
X170750000Y-92875000D01*
X171474999Y-92875000D01*
X171474999Y-92788360D01*
X171474998Y-92788345D01*
X171464680Y-92687347D01*
X171410453Y-92523699D01*
X171410448Y-92523688D01*
X171319947Y-92376965D01*
X171319944Y-92376961D01*
X171198038Y-92255055D01*
X171198034Y-92255052D01*
X171051311Y-92164551D01*
X171051300Y-92164546D01*
X170887652Y-92110319D01*
X170786654Y-92100000D01*
X170750000Y-92100000D01*
X170750000Y-92875000D01*
X170250000Y-92875000D01*
X170250000Y-92100000D01*
X170213361Y-92100000D01*
X170213343Y-92100001D01*
X170112347Y-92110319D01*
X169948699Y-92164546D01*
X169948688Y-92164551D01*
X169801965Y-92255052D01*
X169801961Y-92255055D01*
X169680055Y-92376961D01*
X169680052Y-92376965D01*
X169589551Y-92523688D01*
X169589546Y-92523699D01*
X169535319Y-92687347D01*
X169525000Y-92788345D01*
X160500000Y-92788345D01*
X160500000Y-91624000D01*
X160519685Y-91556961D01*
X160572489Y-91511206D01*
X160624000Y-91500000D01*
X166000000Y-91500000D01*
X166000000Y-90750014D01*
X176625000Y-90750014D01*
X176625000Y-91012500D01*
X177750000Y-91012500D01*
X178250000Y-91012500D01*
X179375000Y-91012500D01*
X179375000Y-90750027D01*
X179374999Y-90750014D01*
X179364506Y-90647310D01*
X179364505Y-90647303D01*
X179309358Y-90480881D01*
X179309356Y-90480876D01*
X179217315Y-90331655D01*
X179093344Y-90207684D01*
X178944123Y-90115643D01*
X178944118Y-90115641D01*
X178777696Y-90060494D01*
X178777689Y-90060493D01*
X178674985Y-90050000D01*
X178250000Y-90050000D01*
X178250000Y-91012500D01*
X177750000Y-91012500D01*
X177750000Y-90050000D01*
X177325014Y-90050000D01*
X177222310Y-90060493D01*
X177222303Y-90060494D01*
X177055881Y-90115641D01*
X177055876Y-90115643D01*
X176906655Y-90207684D01*
X176782684Y-90331655D01*
X176690643Y-90480876D01*
X176690641Y-90480881D01*
X176635494Y-90647303D01*
X176635493Y-90647310D01*
X176625000Y-90750014D01*
X166000000Y-90750014D01*
X166000000Y-90575013D01*
X172075000Y-90575013D01*
X172075000Y-90712500D01*
X173050000Y-90712500D01*
X173550000Y-90712500D01*
X174524999Y-90712500D01*
X174524999Y-90575028D01*
X174524998Y-90575013D01*
X174514505Y-90472302D01*
X174459358Y-90305880D01*
X174459356Y-90305875D01*
X174367315Y-90156654D01*
X174243345Y-90032684D01*
X174094124Y-89940643D01*
X174094119Y-89940641D01*
X173927697Y-89885494D01*
X173927690Y-89885493D01*
X173824986Y-89875000D01*
X173550000Y-89875000D01*
X173550000Y-90712500D01*
X173050000Y-90712500D01*
X173050000Y-89875000D01*
X172775029Y-89875000D01*
X172775012Y-89875001D01*
X172672302Y-89885494D01*
X172505880Y-89940641D01*
X172505875Y-89940643D01*
X172356654Y-90032684D01*
X172232684Y-90156654D01*
X172140643Y-90305875D01*
X172140641Y-90305880D01*
X172085494Y-90472302D01*
X172085493Y-90472309D01*
X172075000Y-90575013D01*
X166000000Y-90575013D01*
X166000000Y-88699986D01*
X166250001Y-88699986D01*
X166260494Y-88802697D01*
X166315641Y-88969119D01*
X166315643Y-88969124D01*
X166407684Y-89118345D01*
X166531654Y-89242315D01*
X166680875Y-89334356D01*
X166680880Y-89334358D01*
X166847302Y-89389505D01*
X166847309Y-89389506D01*
X166950019Y-89399999D01*
X167749999Y-89399999D01*
X168250000Y-89399999D01*
X169049972Y-89399999D01*
X169049986Y-89399998D01*
X169152697Y-89389505D01*
X169319119Y-89334358D01*
X169319124Y-89334356D01*
X169468345Y-89242315D01*
X169592315Y-89118345D01*
X169684356Y-88969124D01*
X169684358Y-88969119D01*
X169739505Y-88802697D01*
X169739506Y-88802690D01*
X169749999Y-88699986D01*
X169750000Y-88699973D01*
X169750000Y-88250000D01*
X168250000Y-88250000D01*
X168250000Y-89399999D01*
X167749999Y-89399999D01*
X167750000Y-89399998D01*
X167750000Y-88250000D01*
X166250001Y-88250000D01*
X166250001Y-88699986D01*
X166000000Y-88699986D01*
X166000000Y-87156091D01*
X166019685Y-87089052D01*
X166031457Y-87073558D01*
X166050915Y-87051741D01*
X166062517Y-87038730D01*
X166121829Y-87001800D01*
X166191691Y-87002798D01*
X166249924Y-87041409D01*
X166278037Y-87105372D01*
X166272767Y-87160266D01*
X166260494Y-87197304D01*
X166260493Y-87197309D01*
X166250000Y-87300013D01*
X166250000Y-87750000D01*
X167750000Y-87750000D01*
X168250000Y-87750000D01*
X169749999Y-87750000D01*
X169749999Y-87300028D01*
X169749998Y-87300013D01*
X169739505Y-87197302D01*
X169684358Y-87030880D01*
X169684356Y-87030875D01*
X169592315Y-86881654D01*
X169468345Y-86757684D01*
X169319124Y-86665643D01*
X169319119Y-86665641D01*
X169152697Y-86610494D01*
X169152690Y-86610493D01*
X169049986Y-86600000D01*
X168250000Y-86600000D01*
X168250000Y-87750000D01*
X167750000Y-87750000D01*
X167750000Y-86600000D01*
X166950028Y-86600000D01*
X166950012Y-86600001D01*
X166847302Y-86610494D01*
X166680880Y-86665641D01*
X166680875Y-86665643D01*
X166531654Y-86757684D01*
X166407682Y-86881656D01*
X166364212Y-86952132D01*
X166312264Y-86998856D01*
X166243301Y-87010077D01*
X166179219Y-86982233D01*
X166140364Y-86924164D01*
X166139153Y-86858770D01*
X166138133Y-86858548D01*
X166139071Y-86854229D01*
X166139074Y-86854223D01*
X166155500Y-86739977D01*
X166155500Y-86124000D01*
X166175185Y-86056961D01*
X166227989Y-86011206D01*
X166279500Y-86000000D01*
X178464342Y-86000000D01*
X178531381Y-86019685D01*
G37*
%TD.AperFunction*%
%TD*%
%TA.AperFunction,Conductor*%
%TO.N,5V_MODULE*%
G36*
X149693039Y-86019685D02*
G01*
X149738794Y-86072489D01*
X149750000Y-86124000D01*
X149750000Y-87000000D01*
X151020771Y-87000000D01*
X151087810Y-87019685D01*
X151133565Y-87072489D01*
X151143509Y-87141647D01*
X151126309Y-87189098D01*
X151089549Y-87248692D01*
X151089546Y-87248699D01*
X151035319Y-87412347D01*
X151025000Y-87513345D01*
X151025000Y-87612500D01*
X152974999Y-87612500D01*
X152974999Y-87513360D01*
X152974998Y-87513345D01*
X152964680Y-87412347D01*
X152910453Y-87248699D01*
X152910450Y-87248692D01*
X152873691Y-87189098D01*
X152855250Y-87121706D01*
X152876172Y-87055042D01*
X152929813Y-87010272D01*
X152979229Y-87000000D01*
X153864977Y-87000000D01*
X153932016Y-87019685D01*
X153977771Y-87072489D01*
X153987715Y-87141647D01*
X153958690Y-87205203D01*
X153952658Y-87211681D01*
X153932684Y-87231654D01*
X153840643Y-87380875D01*
X153840641Y-87380880D01*
X153785494Y-87547302D01*
X153785493Y-87547309D01*
X153775000Y-87650013D01*
X153775000Y-87787500D01*
X156224999Y-87787500D01*
X156224999Y-87650028D01*
X156224998Y-87650013D01*
X156214505Y-87547302D01*
X156159358Y-87380880D01*
X156159356Y-87380875D01*
X156067315Y-87231654D01*
X156047342Y-87211681D01*
X156013857Y-87150358D01*
X156018841Y-87080666D01*
X156060713Y-87024733D01*
X156126177Y-87000316D01*
X156135023Y-87000000D01*
X156750000Y-87000000D01*
X156750000Y-86124000D01*
X156769685Y-86056961D01*
X156822489Y-86011206D01*
X156874000Y-86000000D01*
X165626000Y-86000000D01*
X165693039Y-86019685D01*
X165738794Y-86072489D01*
X165750000Y-86124000D01*
X165750000Y-86739977D01*
X165730315Y-86807016D01*
X165677511Y-86852771D01*
X165608353Y-86862715D01*
X165544797Y-86833690D01*
X165538319Y-86827658D01*
X165468345Y-86757684D01*
X165319124Y-86665643D01*
X165319119Y-86665641D01*
X165152697Y-86610494D01*
X165152690Y-86610493D01*
X165049986Y-86600000D01*
X164250000Y-86600000D01*
X164250000Y-87876000D01*
X164230315Y-87943039D01*
X164177511Y-87988794D01*
X164126000Y-88000000D01*
X164000000Y-88000000D01*
X164000000Y-88126000D01*
X163980315Y-88193039D01*
X163927511Y-88238794D01*
X163876000Y-88250000D01*
X162250001Y-88250000D01*
X162250001Y-88699986D01*
X162260494Y-88802697D01*
X162315641Y-88969119D01*
X162315646Y-88969130D01*
X162372253Y-89060903D01*
X162390694Y-89128295D01*
X162369772Y-89194959D01*
X162316130Y-89239728D01*
X162266715Y-89250000D01*
X159901072Y-89250000D01*
X159888126Y-89241680D01*
X159129408Y-88482962D01*
X159192993Y-88465925D01*
X159307007Y-88400099D01*
X159400099Y-88307007D01*
X159465925Y-88192993D01*
X159482962Y-88129409D01*
X160222658Y-88869105D01*
X160222658Y-88869104D01*
X160282914Y-88786169D01*
X160282918Y-88786163D01*
X160390102Y-88575802D01*
X160463065Y-88351247D01*
X160500000Y-88118052D01*
X160500000Y-87881947D01*
X160463065Y-87648752D01*
X160390102Y-87424197D01*
X160353907Y-87353159D01*
X160326828Y-87300013D01*
X162250000Y-87300013D01*
X162250000Y-87750000D01*
X163750000Y-87750000D01*
X163750000Y-86600000D01*
X162950028Y-86600000D01*
X162950012Y-86600001D01*
X162847302Y-86610494D01*
X162680880Y-86665641D01*
X162680875Y-86665643D01*
X162531654Y-86757684D01*
X162407684Y-86881654D01*
X162315643Y-87030875D01*
X162315641Y-87030880D01*
X162260494Y-87197302D01*
X162260493Y-87197309D01*
X162250000Y-87300013D01*
X160326828Y-87300013D01*
X160282914Y-87213828D01*
X160222658Y-87130894D01*
X160222658Y-87130893D01*
X159482962Y-87870590D01*
X159465925Y-87807007D01*
X159400099Y-87692993D01*
X159307007Y-87599901D01*
X159192993Y-87534075D01*
X159129409Y-87517037D01*
X159869105Y-86777340D01*
X159869104Y-86777338D01*
X159786174Y-86717087D01*
X159575802Y-86609897D01*
X159351247Y-86536934D01*
X159351248Y-86536934D01*
X159118052Y-86500000D01*
X158881948Y-86500000D01*
X158648752Y-86536934D01*
X158424197Y-86609897D01*
X158213830Y-86717084D01*
X158130894Y-86777340D01*
X158870591Y-87517037D01*
X158807007Y-87534075D01*
X158692993Y-87599901D01*
X158599901Y-87692993D01*
X158534075Y-87807007D01*
X158517037Y-87870591D01*
X157777340Y-87130894D01*
X157717084Y-87213830D01*
X157609897Y-87424197D01*
X157536934Y-87648752D01*
X157500000Y-87881947D01*
X157500000Y-88118052D01*
X157536934Y-88351247D01*
X157609897Y-88575802D01*
X157717087Y-88786174D01*
X157777338Y-88869104D01*
X157777340Y-88869105D01*
X158517037Y-88129408D01*
X158534075Y-88192993D01*
X158599901Y-88307007D01*
X158692993Y-88400099D01*
X158807007Y-88465925D01*
X158870591Y-88482962D01*
X158111873Y-89241679D01*
X158096634Y-89250000D01*
X155922280Y-89250000D01*
X155855241Y-89230315D01*
X155809486Y-89177511D01*
X155799542Y-89108353D01*
X155828567Y-89044797D01*
X155857183Y-89020461D01*
X155943345Y-88967315D01*
X156067315Y-88843345D01*
X156159356Y-88694124D01*
X156159358Y-88694119D01*
X156214505Y-88527697D01*
X156214506Y-88527690D01*
X156224999Y-88424986D01*
X156225000Y-88424973D01*
X156225000Y-88287500D01*
X153775001Y-88287500D01*
X153775001Y-88424986D01*
X153785494Y-88527697D01*
X153840641Y-88694119D01*
X153840643Y-88694124D01*
X153932684Y-88843345D01*
X154056654Y-88967315D01*
X154142817Y-89020461D01*
X154189541Y-89072409D01*
X154200764Y-89141372D01*
X154172920Y-89205454D01*
X154114852Y-89244310D01*
X154077720Y-89250000D01*
X145024000Y-89250000D01*
X144956961Y-89230315D01*
X144911206Y-89177511D01*
X144900000Y-89126000D01*
X144900000Y-88211654D01*
X151025001Y-88211654D01*
X151035319Y-88312652D01*
X151089546Y-88476300D01*
X151089551Y-88476311D01*
X151180052Y-88623034D01*
X151180055Y-88623038D01*
X151301961Y-88744944D01*
X151301965Y-88744947D01*
X151448688Y-88835448D01*
X151448699Y-88835453D01*
X151612347Y-88889680D01*
X151713352Y-88899999D01*
X151750000Y-88899999D01*
X152250000Y-88899999D01*
X152286640Y-88899999D01*
X152286654Y-88899998D01*
X152387652Y-88889680D01*
X152551300Y-88835453D01*
X152551311Y-88835448D01*
X152698034Y-88744947D01*
X152698038Y-88744944D01*
X152819944Y-88623038D01*
X152819947Y-88623034D01*
X152910448Y-88476311D01*
X152910453Y-88476300D01*
X152964680Y-88312652D01*
X152974999Y-88211654D01*
X152975000Y-88211641D01*
X152975000Y-88112500D01*
X152250000Y-88112500D01*
X152250000Y-88899999D01*
X151750000Y-88899999D01*
X151750000Y-88112500D01*
X151025001Y-88112500D01*
X151025001Y-88211654D01*
X144900000Y-88211654D01*
X144900000Y-86124000D01*
X144919685Y-86056961D01*
X144972489Y-86011206D01*
X145024000Y-86000000D01*
X149626000Y-86000000D01*
X149693039Y-86019685D01*
G37*
%TD.AperFunction*%
%TD*%
%TA.AperFunction,Conductor*%
%TO.N,3V3*%
G36*
X127315080Y-94019685D02*
G01*
X127360835Y-94072489D01*
X127370779Y-94141647D01*
X127341754Y-94205203D01*
X127322352Y-94223267D01*
X127242809Y-94282813D01*
X127156649Y-94397906D01*
X127156645Y-94397913D01*
X127106403Y-94532620D01*
X127106401Y-94532627D01*
X127100000Y-94592155D01*
X127100000Y-95290000D01*
X128038120Y-95290000D01*
X128010778Y-95337358D01*
X127975000Y-95470882D01*
X127975000Y-95609118D01*
X128010778Y-95742642D01*
X128038120Y-95790000D01*
X127100000Y-95790000D01*
X127100000Y-96487844D01*
X127106401Y-96547372D01*
X127106403Y-96547379D01*
X127156645Y-96682086D01*
X127156649Y-96682093D01*
X127242809Y-96797187D01*
X127242812Y-96797190D01*
X127357906Y-96883350D01*
X127357913Y-96883354D01*
X127492620Y-96933596D01*
X127492627Y-96933598D01*
X127552155Y-96939999D01*
X127552172Y-96940000D01*
X128250000Y-96940000D01*
X128250000Y-96001879D01*
X128297358Y-96029222D01*
X128430882Y-96065000D01*
X128569118Y-96065000D01*
X128702642Y-96029222D01*
X128750000Y-96001879D01*
X128750000Y-96940000D01*
X129447828Y-96940000D01*
X129447844Y-96939999D01*
X129507372Y-96933598D01*
X129507379Y-96933596D01*
X129642086Y-96883354D01*
X129642093Y-96883350D01*
X129757187Y-96797190D01*
X129757190Y-96797187D01*
X129843350Y-96682093D01*
X129843354Y-96682086D01*
X129893596Y-96547379D01*
X129893598Y-96547372D01*
X129899999Y-96487844D01*
X129900000Y-96487827D01*
X129900000Y-95790000D01*
X128961880Y-95790000D01*
X128989222Y-95742642D01*
X129025000Y-95609118D01*
X129025000Y-95470882D01*
X128989222Y-95337358D01*
X128961880Y-95290000D01*
X129900000Y-95290000D01*
X129900000Y-94592172D01*
X129899999Y-94592155D01*
X129893598Y-94532627D01*
X129893596Y-94532620D01*
X129843354Y-94397913D01*
X129843350Y-94397906D01*
X129757190Y-94282813D01*
X129677648Y-94223267D01*
X129635777Y-94167333D01*
X129630793Y-94097641D01*
X129664278Y-94036318D01*
X129725602Y-94002834D01*
X129751959Y-94000000D01*
X131376000Y-94000000D01*
X131443039Y-94019685D01*
X131488794Y-94072489D01*
X131500000Y-94124000D01*
X131500000Y-100000000D01*
X148500000Y-100000000D01*
X150637590Y-100000000D01*
X150704629Y-100019685D01*
X150750384Y-100072489D01*
X150760529Y-100140185D01*
X150749501Y-100223949D01*
X150749500Y-100223966D01*
X150749500Y-100776047D01*
X150764635Y-100890997D01*
X150764636Y-100891002D01*
X150823882Y-101034036D01*
X150823883Y-101034037D01*
X150918133Y-101156867D01*
X151040963Y-101251117D01*
X151040962Y-101251117D01*
X151119189Y-101283519D01*
X151184001Y-101310365D01*
X151298960Y-101325500D01*
X151298967Y-101325500D01*
X151876033Y-101325500D01*
X151876040Y-101325500D01*
X151990999Y-101310365D01*
X152134037Y-101251117D01*
X152256867Y-101156867D01*
X152351117Y-101034037D01*
X152385439Y-100951176D01*
X152429280Y-100896772D01*
X152495574Y-100874707D01*
X152563273Y-100891986D01*
X152610884Y-100943123D01*
X152614561Y-100951176D01*
X152648882Y-101034036D01*
X152648883Y-101034037D01*
X152743133Y-101156867D01*
X152865963Y-101251117D01*
X152865962Y-101251117D01*
X152944189Y-101283519D01*
X153009001Y-101310365D01*
X153123960Y-101325500D01*
X153123967Y-101325500D01*
X153701033Y-101325500D01*
X153701040Y-101325500D01*
X153815999Y-101310365D01*
X153959037Y-101251117D01*
X154081867Y-101156867D01*
X154176117Y-101034037D01*
X154235365Y-100890999D01*
X154250500Y-100776040D01*
X154250500Y-100475000D01*
X157373085Y-100475000D01*
X157376064Y-100507792D01*
X157376067Y-100507802D01*
X157423927Y-100661392D01*
X157507163Y-100799080D01*
X157620919Y-100912836D01*
X157758603Y-100996070D01*
X157912207Y-101043934D01*
X157978957Y-101050000D01*
X158400000Y-101050000D01*
X158400000Y-100475000D01*
X157373085Y-100475000D01*
X154250500Y-100475000D01*
X154250500Y-100223960D01*
X154239471Y-100140185D01*
X154250237Y-100071150D01*
X154296617Y-100018894D01*
X154362410Y-100000000D01*
X157004135Y-100000000D01*
X157051587Y-100009438D01*
X157081087Y-100021658D01*
X157081091Y-100021658D01*
X157081092Y-100021659D01*
X157226079Y-100050500D01*
X157226082Y-100050500D01*
X157373920Y-100050500D01*
X157471462Y-100031096D01*
X157518913Y-100021658D01*
X157571200Y-100000000D01*
X158597644Y-100000000D01*
X158638794Y-100047489D01*
X158650000Y-100099000D01*
X158650000Y-100225000D01*
X158776000Y-100225000D01*
X158843039Y-100244685D01*
X158888794Y-100297489D01*
X158900000Y-100349000D01*
X158900000Y-101050000D01*
X158907662Y-101057662D01*
X158917687Y-101062240D01*
X158943039Y-101069685D01*
X158948966Y-101076525D01*
X158957203Y-101080287D01*
X158971492Y-101102521D01*
X158988794Y-101122489D01*
X158991081Y-101133003D01*
X158994977Y-101139065D01*
X159000000Y-101174000D01*
X159000000Y-101355271D01*
X158980315Y-101422310D01*
X158927511Y-101468065D01*
X158858353Y-101478009D01*
X158828552Y-101469834D01*
X158816001Y-101464636D01*
X158816002Y-101464636D01*
X158815999Y-101464635D01*
X158790452Y-101461271D01*
X158701047Y-101449500D01*
X158701040Y-101449500D01*
X158023960Y-101449500D01*
X158023952Y-101449500D01*
X157921774Y-101462953D01*
X157909001Y-101464635D01*
X157909000Y-101464635D01*
X157908997Y-101464636D01*
X157765962Y-101523882D01*
X157682998Y-101587543D01*
X157617828Y-101612737D01*
X157549384Y-101598698D01*
X157519831Y-101576848D01*
X157398038Y-101455055D01*
X157398034Y-101455052D01*
X157251311Y-101364551D01*
X157251300Y-101364546D01*
X157087652Y-101310319D01*
X156986654Y-101300000D01*
X156887500Y-101300000D01*
X156887500Y-102775500D01*
X156867815Y-102842539D01*
X156815011Y-102888294D01*
X156763500Y-102899500D01*
X156511500Y-102899500D01*
X156444461Y-102879815D01*
X156398706Y-102827011D01*
X156387500Y-102775500D01*
X156387500Y-102525000D01*
X155600001Y-102525000D01*
X155600001Y-102525500D01*
X155580316Y-102592539D01*
X155527512Y-102638294D01*
X155476001Y-102649500D01*
X155426080Y-102649500D01*
X155281092Y-102678340D01*
X155281082Y-102678343D01*
X155144511Y-102734912D01*
X155144498Y-102734919D01*
X155021584Y-102817048D01*
X155021580Y-102817051D01*
X154917051Y-102921580D01*
X154917048Y-102921584D01*
X154834919Y-103044498D01*
X154834912Y-103044511D01*
X154778343Y-103181082D01*
X154778340Y-103181092D01*
X154749500Y-103326079D01*
X154749500Y-103326082D01*
X154749500Y-103473918D01*
X154749500Y-103473920D01*
X154749499Y-103473920D01*
X154778340Y-103618907D01*
X154778343Y-103618917D01*
X154834912Y-103755488D01*
X154834919Y-103755501D01*
X154917048Y-103878415D01*
X154917051Y-103878419D01*
X155021580Y-103982948D01*
X155021584Y-103982951D01*
X155144498Y-104065080D01*
X155144511Y-104065087D01*
X155281082Y-104121656D01*
X155281087Y-104121658D01*
X155281091Y-104121658D01*
X155281092Y-104121659D01*
X155426079Y-104150500D01*
X155499138Y-104150500D01*
X155566177Y-104170185D01*
X155586819Y-104186819D01*
X155600000Y-104200000D01*
X156387500Y-104200000D01*
X156387500Y-104024500D01*
X156407185Y-103957461D01*
X156459989Y-103911706D01*
X156511500Y-103900500D01*
X156763500Y-103900500D01*
X156830539Y-103920185D01*
X156876294Y-103972989D01*
X156887500Y-104024500D01*
X156887500Y-105424999D01*
X156986640Y-105424999D01*
X156986654Y-105424998D01*
X157087652Y-105414680D01*
X157251300Y-105360453D01*
X157251311Y-105360448D01*
X157398033Y-105269948D01*
X157519830Y-105148151D01*
X157581153Y-105114666D01*
X157650845Y-105119650D01*
X157682996Y-105137455D01*
X157696789Y-105148038D01*
X157765963Y-105201117D01*
X157765962Y-105201117D01*
X157844189Y-105233519D01*
X157909001Y-105260365D01*
X158023960Y-105275500D01*
X158023967Y-105275500D01*
X158701033Y-105275500D01*
X158701040Y-105275500D01*
X158815999Y-105260365D01*
X158828548Y-105255166D01*
X158861176Y-105251658D01*
X158893647Y-105246990D01*
X158895734Y-105247943D01*
X158898016Y-105247698D01*
X158927348Y-105262381D01*
X158957203Y-105276015D01*
X158958444Y-105277946D01*
X158960495Y-105278973D01*
X158977233Y-105307183D01*
X158994977Y-105334793D01*
X158995412Y-105337821D01*
X158996148Y-105339061D01*
X159000000Y-105369728D01*
X159000000Y-105551000D01*
X158980315Y-105618039D01*
X158927511Y-105663794D01*
X158906672Y-105668327D01*
X158900000Y-105675000D01*
X158900000Y-106376000D01*
X158880315Y-106443039D01*
X158827511Y-106488794D01*
X158776000Y-106500000D01*
X158650000Y-106500000D01*
X158650000Y-106626000D01*
X158630315Y-106693039D01*
X158577511Y-106738794D01*
X158526000Y-106750000D01*
X157608918Y-106750000D01*
X157561466Y-106740561D01*
X157535141Y-106729657D01*
X157535135Y-106729655D01*
X157390148Y-106700815D01*
X157390146Y-106700815D01*
X157242310Y-106700815D01*
X157242308Y-106700815D01*
X157097320Y-106729655D01*
X157097310Y-106729658D01*
X156960739Y-106786227D01*
X156960726Y-106786234D01*
X156837812Y-106868363D01*
X156837808Y-106868366D01*
X156742994Y-106963181D01*
X156681671Y-106996666D01*
X156655313Y-106999500D01*
X156012229Y-106999500D01*
X155945190Y-106979815D01*
X155924547Y-106963180D01*
X155878419Y-106917051D01*
X155878415Y-106917048D01*
X155755501Y-106834919D01*
X155755488Y-106834912D01*
X155618917Y-106778343D01*
X155618907Y-106778340D01*
X155473920Y-106749500D01*
X155473918Y-106749500D01*
X155326082Y-106749500D01*
X155326080Y-106749500D01*
X155181092Y-106778340D01*
X155181082Y-106778343D01*
X155044511Y-106834912D01*
X155044498Y-106834919D01*
X154921584Y-106917048D01*
X154921580Y-106917051D01*
X154874953Y-106963680D01*
X154813630Y-106997166D01*
X154787271Y-107000000D01*
X152635023Y-107000000D01*
X152567984Y-106980315D01*
X152522229Y-106927511D01*
X152512285Y-106858353D01*
X152541310Y-106794797D01*
X152547342Y-106788319D01*
X152567315Y-106768345D01*
X152659356Y-106619124D01*
X152659358Y-106619119D01*
X152714505Y-106452697D01*
X152714506Y-106452690D01*
X152724999Y-106349986D01*
X152725000Y-106349973D01*
X152725000Y-106249999D01*
X157373085Y-106249999D01*
X157373085Y-106250000D01*
X158400000Y-106250000D01*
X158400000Y-105675000D01*
X157978957Y-105675000D01*
X157912207Y-105681065D01*
X157758603Y-105728929D01*
X157620919Y-105812163D01*
X157507163Y-105925919D01*
X157423927Y-106063607D01*
X157376067Y-106217197D01*
X157376064Y-106217207D01*
X157373085Y-106249999D01*
X152725000Y-106249999D01*
X152725000Y-106212500D01*
X150275001Y-106212500D01*
X150275001Y-106349986D01*
X150285494Y-106452697D01*
X150340641Y-106619119D01*
X150340643Y-106619124D01*
X150432684Y-106768345D01*
X150452658Y-106788319D01*
X150486143Y-106849642D01*
X150481159Y-106919334D01*
X150439287Y-106975267D01*
X150373823Y-106999684D01*
X150364977Y-107000000D01*
X125624000Y-107000000D01*
X125556961Y-106980315D01*
X125511206Y-106927511D01*
X125500000Y-106876000D01*
X125500000Y-105575013D01*
X150275000Y-105575013D01*
X150275000Y-105712500D01*
X151250000Y-105712500D01*
X151750000Y-105712500D01*
X152724999Y-105712500D01*
X152724999Y-105575028D01*
X152724998Y-105575013D01*
X152714505Y-105472302D01*
X152659358Y-105305880D01*
X152659356Y-105305875D01*
X152567315Y-105156654D01*
X152443345Y-105032684D01*
X152294124Y-104940643D01*
X152294119Y-104940641D01*
X152127697Y-104885494D01*
X152127690Y-104885493D01*
X152024986Y-104875000D01*
X151750000Y-104875000D01*
X151750000Y-105712500D01*
X151250000Y-105712500D01*
X151250000Y-104875000D01*
X150975029Y-104875000D01*
X150975012Y-104875001D01*
X150872302Y-104885494D01*
X150705880Y-104940641D01*
X150705875Y-104940643D01*
X150556654Y-105032684D01*
X150432684Y-105156654D01*
X150340643Y-105305875D01*
X150340641Y-105305880D01*
X150285494Y-105472302D01*
X150285493Y-105472309D01*
X150275000Y-105575013D01*
X125500000Y-105575013D01*
X125500000Y-104736654D01*
X155600001Y-104736654D01*
X155610319Y-104837652D01*
X155664546Y-105001300D01*
X155664551Y-105001311D01*
X155755052Y-105148034D01*
X155755055Y-105148038D01*
X155876961Y-105269944D01*
X155876965Y-105269947D01*
X156023688Y-105360448D01*
X156023699Y-105360453D01*
X156187347Y-105414680D01*
X156288351Y-105424999D01*
X156387500Y-105424998D01*
X156387500Y-104700000D01*
X155600001Y-104700000D01*
X155600001Y-104736654D01*
X125500000Y-104736654D01*
X125500000Y-101988345D01*
X155600000Y-101988345D01*
X155600000Y-102025000D01*
X156387500Y-102025000D01*
X156387500Y-101299999D01*
X156288360Y-101300000D01*
X156288344Y-101300001D01*
X156187347Y-101310319D01*
X156023699Y-101364546D01*
X156023688Y-101364551D01*
X155876965Y-101455052D01*
X155876961Y-101455055D01*
X155755055Y-101576961D01*
X155755052Y-101576965D01*
X155664551Y-101723688D01*
X155664546Y-101723699D01*
X155610319Y-101887347D01*
X155600000Y-101988345D01*
X125500000Y-101988345D01*
X125500000Y-94124000D01*
X125519685Y-94056961D01*
X125572489Y-94011206D01*
X125624000Y-94000000D01*
X127248041Y-94000000D01*
X127315080Y-94019685D01*
G37*
%TD.AperFunction*%
%TD*%
M02*
